<svg xmlns="http://www.w3.org/2000/svg" width="32" height="32" viewBox="0 0 32 32" fill="none">
  <path d="M25.6933 7.10689C23.92 6.28022 22 5.68022 20 5.33356C19.9825 5.333 19.965 5.33629 19.9489 5.3432C19.9328 5.35011 19.9183 5.36047 19.9067 5.37356C19.6667 5.81356 19.3867 6.38689 19.2 6.82689C17.0787 6.50689 14.9213 6.50689 12.8 6.82689C12.6133 6.37356 12.3333 5.81356 12.08 5.37356C12.0667 5.34689 12.0267 5.33356 11.9867 5.33356C9.98666 5.68022 8.07999 6.28022 6.29333 7.10689C6.27999 7.10689 6.26666 7.12022 6.25333 7.13356C2.62666 12.5602 1.62666 17.8402 2.11999 23.0669C2.11999 23.0936 2.13333 23.1202 2.15999 23.1336C4.55999 24.8936 6.86666 25.9602 9.14666 26.6669C9.18666 26.6802 9.22666 26.6669 9.23999 26.6402C9.77333 25.9069 10.2533 25.1336 10.6667 24.3202C10.6933 24.2669 10.6667 24.2136 10.6133 24.2002C9.85333 23.9069 9.13333 23.5602 8.42666 23.1602C8.37333 23.1336 8.37333 23.0536 8.41333 23.0136C8.55999 22.9069 8.70666 22.7869 8.85333 22.6802C8.87999 22.6536 8.91999 22.6536 8.94666 22.6669C13.5333 24.7602 18.48 24.7602 23.0133 22.6669C23.04 22.6536 23.08 22.6536 23.1067 22.6802C23.2533 22.8002 23.4 22.9069 23.5467 23.0269C23.6 23.0669 23.6 23.1469 23.5333 23.1736C22.84 23.5869 22.1067 23.9202 21.3467 24.2136C21.2933 24.2269 21.28 24.2936 21.2933 24.3336C21.72 25.1469 22.2 25.9202 22.72 26.6536C22.76 26.6669 22.8 26.6802 22.84 26.6669C25.1333 25.9602 27.44 24.8936 29.84 23.1336C29.8667 23.1202 29.88 23.0936 29.88 23.0669C30.4667 17.0269 28.9067 11.7869 25.7467 7.13356C25.7333 7.12022 25.72 7.10689 25.6933 7.10689ZM11.36 19.8802C9.98666 19.8802 8.83999 18.6136 8.83999 17.0536C8.83999 15.4936 9.95999 14.2269 11.36 14.2269C12.7733 14.2269 13.8933 15.5069 13.88 17.0536C13.88 18.6136 12.76 19.8802 11.36 19.8802ZM20.6533 19.8802C19.28 19.8802 18.1333 18.6136 18.1333 17.0536C18.1333 15.4936 19.2533 14.2269 20.6533 14.2269C22.0667 14.2269 23.1867 15.5069 23.1733 17.0536C23.1733 18.6136 22.0667 19.8802 20.6533 19.8802Z" fill="currentColor"/>
</svg>