<svg xmlns="http://www.w3.org/2000/svg" width="30" height="32" viewBox="0 0 30 32" fill="none">
  <path d="M24 5.13927V26.8617C24.0002 27.5369 23.8646 28.2055 23.6011 28.8293C23.3376 29.4531 22.9512 30.0199 22.4642 30.4971C21.9772 30.9743 21.399 31.3527 20.7627 31.6105C20.1265 31.8684 19.4446 32.0007 18.7562 31.9999H11.2335C9.84494 31.9989 8.51359 31.457 7.53218 30.4935C6.55078 29.53 5.99966 28.2236 6 26.8617V16.5904C6.53605 17.1438 9.75748 20.3991 14.9769 20.4053C20.2233 20.4192 23.4652 17.135 23.9949 16.5904C23.7384 16.2131 20.7247 11.9365 15.1783 11.8472C9.40738 11.7516 6.21673 16.2697 6.00128 16.5904V5.14431C6.00112 4.46945 6.13649 3.80116 6.39968 3.17763C6.66288 2.55409 7.04873 1.98752 7.5352 1.51026C8.02167 1.03301 8.59924 0.65442 9.23491 0.396124C9.87057 0.137829 10.5519 0.00488526 11.24 0.00488528H18.7562C19.4443 0.00422428 20.1257 0.136514 20.7616 0.394199C21.3976 0.651884 21.9755 1.02992 22.4625 1.5067C22.9494 1.98349 23.3358 2.5497 23.5996 3.17298C23.8635 3.79626 23.9995 4.46441 24 5.13927Z" fill="currentColor"/>
  <path d="M15.3692 20.4067C17.7822 20.4067 19.7384 18.488 19.7384 16.1213C19.7384 13.7546 17.7822 11.8359 15.3692 11.8359C12.9562 11.8359 11 13.7546 11 16.1213C11 18.488 12.9562 20.4067 15.3692 20.4067Z" fill="currentColor"/>
</svg>