<svg xmlns="http://www.w3.org/2000/svg" width="32" height="32" viewBox="0 0 32 32" fill="none">
  <path fill-rule="evenodd" clip-rule="evenodd" d="M4.78133 3.44784C4 4.22917 4 5.48517 4 7.99984V21.3332C4 25.1038 4 26.9905 5.172 28.1612C6.02667 29.0172 7.26267 29.2478 9.33333 29.3105V25.3332C9.33333 24.9795 9.47381 24.6404 9.72386 24.3904C9.97391 24.1403 10.313 23.9998 10.6667 23.9998C11.0203 23.9998 11.3594 24.1403 11.6095 24.3904C11.8595 24.6404 12 24.9795 12 25.3332V29.3332H20V25.3332C20 24.9795 20.1405 24.6404 20.3905 24.3904C20.6406 24.1403 20.9797 23.9998 21.3333 23.9998C21.687 23.9998 22.0261 24.1403 22.2761 24.3904C22.5262 24.6404 22.6667 24.9795 22.6667 25.3332V29.3105C24.7373 29.2478 25.9733 29.0172 26.828 28.1612C28 26.9905 28 25.1038 28 21.3332V7.99984C28 5.48517 28 4.22917 27.2187 3.44784C26.4373 2.6665 25.1813 2.6665 22.6667 2.6665H9.33333C6.81867 2.6665 5.56267 2.6665 4.78133 3.44784ZM10.6667 10.6665C10.313 10.6665 9.97391 10.807 9.72386 11.057C9.47381 11.3071 9.33333 11.6462 9.33333 11.9998C9.33333 12.3535 9.47381 12.6926 9.72386 12.9426C9.97391 13.1927 10.313 13.3332 10.6667 13.3332H21.3333C21.687 13.3332 22.0261 13.1927 22.2761 12.9426C22.5262 12.6926 22.6667 12.3535 22.6667 11.9998C22.6667 11.6462 22.5262 11.3071 22.2761 11.057C22.0261 10.807 21.687 10.6665 21.3333 10.6665H10.6667ZM10.6667 18.6665H21.3333C21.687 18.6665 22.0261 18.526 22.2761 18.276C22.5262 18.0259 22.6667 17.6868 22.6667 17.3332C22.6667 16.9795 22.5262 16.6404 22.2761 16.3904C22.0261 16.1403 21.687 15.9998 21.3333 15.9998H10.6667C10.313 15.9998 9.97391 16.1403 9.72386 16.3904C9.47381 16.6404 9.33333 16.9795 9.33333 17.3332C9.33333 17.6868 9.47381 18.0259 9.72386 18.276C9.97391 18.526 10.313 18.6665 10.6667 18.6665Z" fill="currentColor"/>
</svg>