<svg xmlns="http://www.w3.org/2000/svg" width="32" height="32" viewBox="0 0 32 32" fill="none">
  <path d="M26.6666 5.3335H5.33329C3.86663 5.3335 2.67996 6.5335 2.67996 8.00016L2.66663 24.0002C2.66663 25.4668 3.86663 26.6668 5.33329 26.6668H26.6666C28.1333 26.6668 29.3333 25.4668 29.3333 24.0002V8.00016C29.3333 6.5335 28.1333 5.3335 26.6666 5.3335ZM26.1333 11.0002L16.7066 16.8935C16.28 17.1602 15.72 17.1602 15.2933 16.8935L5.86663 11.0002C5.73293 10.9251 5.61585 10.8237 5.52248 10.7021C5.4291 10.5805 5.36138 10.4412 5.32339 10.2927C5.28541 10.1441 5.27796 9.98941 5.3015 9.83791C5.32504 9.6864 5.37907 9.54125 5.46033 9.41123C5.54159 9.28121 5.64839 9.16904 5.77426 9.08149C5.90013 8.99394 6.04245 8.93284 6.19262 8.90189C6.34279 8.87094 6.49767 8.87079 6.6479 8.90143C6.79813 8.93207 6.94058 8.99287 7.06663 9.08016L16 14.6668L24.9333 9.08016C25.0593 8.99287 25.2018 8.93207 25.352 8.90143C25.5022 8.87079 25.6571 8.87094 25.8073 8.90189C25.9575 8.93284 26.0998 8.99394 26.2257 9.08149C26.3515 9.16904 26.4583 9.28121 26.5396 9.41123C26.6208 9.54125 26.6749 9.6864 26.6984 9.83791C26.722 9.98941 26.7145 10.1441 26.6765 10.2927C26.6385 10.4412 26.5708 10.5805 26.4774 10.7021C26.3841 10.8237 26.267 10.9251 26.1333 11.0002Z" fill="currentColor"/>
</svg>