<svg xmlns="http://www.w3.org/2000/svg" width="32" height="32" viewBox="0 0 32 32" fill="currentColor">
  <path d="M5 14C4.73478 14 4.48043 13.8947 4.29289 13.7071C4.10536 13.5196 4 13.2652 4 13V5.00201C4 4.7368 4.10536 4.48244 4.29289 4.29491C4.48043 4.10737 4.73478 4.00201 5 4.00201H13C13.2652 4.00201 13.5196 4.10737 13.7071 4.29491C13.8946 4.48244 14 4.7368 14 5.00201V13C14 13.2652 13.8946 13.5196 13.7071 13.7071C13.5196 13.8947 13.2652 14 13 14H5ZM19 14C18.7348 14 18.4804 13.8947 18.2929 13.7071C18.1054 13.5196 18 13.2652 18 13V5.00201C18 4.7368 18.1054 4.48244 18.2929 4.29491C18.4804 4.10737 18.7348 4.00201 19 4.00201H26.998C27.2632 4.00201 27.5176 4.10737 27.7051 4.29491C27.8926 4.48244 27.998 4.7368 27.998 5.00201V13C27.998 13.2652 27.8926 13.5196 27.7051 13.7071C27.5176 13.8947 27.2632 14 26.998 14H19ZM5 28C4.73478 28 4.48043 27.8947 4.29289 27.7071C4.10536 27.5196 4 27.2652 4 27V19C4 18.7348 4.10536 18.4804 4.29289 18.2929C4.48043 18.1054 4.73478 18 5 18H13C13.2652 18 13.5196 18.1054 13.7071 18.2929C13.8946 18.4804 14 18.7348 14 19V27C14 27.2652 13.8946 27.5196 13.7071 27.7071C13.5196 27.8947 13.2652 28 13 28H5ZM19 28C18.7348 28 18.4804 27.8947 18.2929 27.7071C18.1054 27.5196 18 27.2652 18 27V19C18 18.7348 18.1054 18.4804 18.2929 18.2929C18.4804 18.1054 18.7348 18 19 18H26.998C27.2632 18 27.5176 18.1054 27.7051 18.2929C27.8926 18.4804 27.998 18.7348 27.998 19V27C27.998 27.2652 27.8926 27.5196 27.7051 27.7071C27.5176 27.8947 27.2632 28 26.998 28H19Z" fill="currentColor"/>
</svg>