<svg width="162" height="40" viewBox="0 0 162 40" fill="none" xmlns="http://www.w3.org/2000/svg">
<g clip-path="url(#clip0_508_171)">
<path d="M88.2672 9.65536V18.954L60.4041 9.11895L68.9773 9.65536C68.9773 7.0946 69.9935 4.63872 71.8023 2.82799C73.611 1.01726 76.0643 0 78.6223 0C81.1803 0 83.6335 1.01726 85.4423 2.82799C87.251 4.63872 88.2672 7.0946 88.2672 9.65536Z" fill="url(#paint0_linear_508_171)"/>
<path d="M68.9774 14.4643L90.9786 22.1027V23.771L88.2673 23.602C88.2673 26.1627 87.2511 28.6186 85.4424 30.4294C83.6336 32.2401 81.1804 33.2573 78.6224 33.2573C76.0644 33.2573 73.6111 32.2401 71.8024 30.4294C69.9936 28.6186 68.9774 26.1627 68.9774 23.602V14.4643Z" fill="url(#paint1_linear_508_171)"/>
<path d="M22.6656 14.9899C22.0368 13.4862 21.0962 12.1332 19.9061 11.0205C18.681 9.89116 17.2427 9.01847 15.6757 8.45379C13.9531 7.83487 12.134 7.52879 10.304 7.54995H0V32.7022H10.2263C12.079 32.7244 13.9205 32.4118 15.6623 31.7795C17.2375 31.2057 18.6815 30.321 19.9088 29.1779C21.0964 28.0568 22.0364 26.6992 22.6683 25.1924C23.9623 21.9187 23.9623 18.2744 22.6683 15.0007L22.6656 14.9899ZM16.3669 23.9158C15.7751 24.9672 14.8896 25.8229 13.8191 26.3779C12.6059 26.9838 11.2628 27.2822 9.90749 27.2469H6.15668V13.0052H9.90749C11.2628 12.9699 12.6059 13.2683 13.8191 13.8742C14.8902 14.4283 15.7759 15.2842 16.3669 16.3363C16.9909 17.496 17.3021 18.7985 17.2698 20.1153C17.3058 21.4394 16.9945 22.7497 16.3669 23.9158Z" fill="white"/>
<path d="M45.1169 23.492C45.1351 22.0699 44.9076 20.6553 44.4444 19.3107C44.031 18.1199 43.3812 17.0252 42.5342 16.0923C41.7055 15.1939 40.6917 14.4865 39.563 14.0191C38.3379 13.5233 37.0263 13.2772 35.705 13.2949C34.4171 13.2829 33.1405 13.5358 31.9542 14.0378C30.8151 14.5221 29.786 15.2329 28.9294 16.1271C28.0606 17.0363 27.3764 18.1056 26.9147 19.2759C26.4215 20.5273 26.1749 21.8625 26.1887 23.2077C26.1734 24.5863 26.4132 25.9557 26.896 27.2469C27.3428 28.4364 28.0295 29.521 28.9134 30.4332C29.7846 31.3307 30.833 32.0367 31.9917 32.5064C33.2293 33.0014 34.5519 33.2483 35.8845 33.2332C37.1752 33.2418 38.4571 33.0202 39.6702 32.5788C40.8094 32.1657 41.8603 31.5405 42.7673 30.7362C43.6394 29.9625 44.3231 28.9992 44.7659 27.9201L39.4907 26.5522C39.0894 27.1236 38.5635 27.5959 37.9528 27.9335C37.3335 28.2488 36.6461 28.4063 35.9515 28.3921C35.492 28.4086 35.0337 28.3342 34.6029 28.1731C34.1721 28.012 33.7773 27.7675 33.4411 27.4534C32.7785 26.8276 32.332 25.9336 32.1016 24.7714H45.1222L45.1169 23.492ZM32.0962 21.0782C32.307 19.9678 32.7258 19.1114 33.3527 18.5088C33.665 18.209 34.0339 17.9746 34.4378 17.8194C34.8417 17.6642 35.2726 17.5913 35.705 17.6049C36.127 17.5918 36.5471 17.6652 36.9397 17.8206C37.3322 17.976 37.6889 18.2102 37.9876 18.5088C38.5878 19.1096 38.9825 19.966 39.1718 21.0782H32.0962Z" fill="white"/>
<path d="M60.4042 25.6886C60.1657 26.379 59.7157 26.9765 59.1182 27.396C58.5208 27.8154 57.8063 28.0354 57.0767 28.0247C56.381 28.0366 55.6996 27.8261 55.1316 27.4239C54.547 26.9992 54.0886 26.4236 53.8054 25.7584C53.4738 24.9873 53.3103 24.1543 53.3259 23.315C53.3122 22.4621 53.4812 21.6162 53.8215 20.8341C54.109 20.1567 54.5657 19.5647 55.1477 19.1149C55.7054 18.7022 56.3832 18.4845 57.0767 18.4954C57.7535 18.4858 58.4139 18.704 58.9521 19.1149C59.5216 19.565 59.9616 20.1582 60.2273 20.8341L65.8187 19.9142C65.5405 18.6289 64.9641 17.4272 64.1362 16.4061C63.3261 15.416 62.297 14.6281 61.1302 14.1049C59.8883 13.5543 58.5419 13.2798 57.1838 13.3003C55.8657 13.2905 54.5594 13.5497 53.3446 14.062C52.1745 14.554 51.1198 15.2847 50.2475 16.2076C49.366 17.1407 48.6696 18.2328 48.1953 19.4261C47.6916 20.6993 47.4395 22.0583 47.4532 23.4277C47.4382 24.7678 47.6848 26.098 48.1792 27.3434C48.6409 28.5041 49.3254 29.5629 50.1939 30.46C51.0568 31.3467 52.0928 32.046 53.2374 32.5144C54.4452 33.0058 55.7382 33.2529 57.0418 33.2413C58.0968 33.245 59.1463 33.0895 60.155 32.7799C61.1189 32.4917 62.0255 32.0379 62.8342 31.4389C63.6189 30.8533 64.3008 30.1409 64.8516 29.3308C65.4074 28.5115 65.7979 27.5913 66.0009 26.622L60.4042 25.6886Z" fill="white"/>
<path d="M90.9785 32.7021H96.7441V24.1384L90.9785 23.7763V32.7021ZM90.9785 6.20355V22.1027L96.7441 24.1062V6.20355H90.9785Z" fill="white"/>
<path d="M113.987 13.8206L113.845 15.9823C113.259 15.1355 112.467 14.4523 111.544 13.9976C110.565 13.5173 109.486 13.2747 108.396 13.2895C107.216 13.2787 106.049 13.5326 104.98 14.0324C103.933 14.5273 102.995 15.2257 102.22 16.0869C101.423 16.9721 100.799 17.9992 100.38 19.1149C99.9345 20.2911 99.7101 21.5396 99.718 22.7974C99.71 24.0068 99.9262 25.2072 100.356 26.3377C100.764 27.4191 101.363 28.4184 102.124 29.2879C102.856 30.1337 103.753 30.821 104.76 31.3075C105.77 31.7943 106.878 32.043 107.999 32.0343C109.081 32.0453 110.152 31.8087 111.128 31.3424C112.067 30.8979 112.886 30.2359 113.518 29.4113V30.8649C113.535 31.6602 113.365 32.4483 113.023 33.1661C112.714 33.8042 112.229 34.3397 111.624 34.7083C110.988 35.0836 110.259 35.274 109.521 35.2581C108.843 35.2713 108.173 35.1126 107.573 34.7968C107.013 34.4955 106.539 34.0573 106.193 33.5229L100.532 34.7271C100.996 35.7787 101.67 36.7242 102.512 37.5057C103.394 38.3165 104.429 38.9429 105.556 39.3483C106.804 39.7977 108.122 40.0202 109.449 40.0054C110.816 40.0202 112.173 39.7782 113.451 39.2919C114.614 38.8411 115.673 38.1565 116.562 37.2804C117.444 36.4068 118.131 35.3567 118.579 34.1987C119.065 32.927 119.305 31.5746 119.287 30.2132V13.8206H113.987ZM113.066 24.8894C112.731 25.5202 112.237 26.0521 111.632 26.4315C111.018 26.8019 110.314 26.9976 109.597 26.9976C108.88 26.9976 108.177 26.8019 107.563 26.4315C106.96 26.0511 106.466 25.5195 106.132 24.8894C105.765 24.1982 105.58 23.4245 105.596 22.6418C105.583 21.8697 105.767 21.1071 106.132 20.4264C106.467 19.7976 106.96 19.267 107.563 18.8869C108.176 18.5149 108.88 18.3181 109.597 18.3181C110.315 18.3181 111.019 18.5149 111.632 18.8869C112.236 19.2662 112.73 19.7969 113.066 20.4264C113.429 21.1076 113.613 21.8698 113.601 22.6418C113.613 23.425 113.426 24.1985 113.057 24.8894H113.066Z" fill="white"/>
<path d="M141.191 23.492C141.207 22.0694 140.977 20.6548 140.511 19.3107C140.096 18.1198 139.446 17.025 138.598 16.0923C137.769 15.1939 136.755 14.4865 135.627 14.019C134.402 13.5231 133.09 13.2769 131.769 13.2949C130.481 13.2833 129.204 13.5361 128.018 14.0378C126.879 14.5228 125.85 15.2335 124.993 16.1271C124.123 17.0376 123.438 18.1089 122.976 19.2812C122.484 20.533 122.237 21.868 122.25 23.2131C122.234 24.5919 122.475 25.9616 122.96 27.2523C123.405 28.4394 124.09 29.5221 124.972 30.4332C125.843 31.3307 126.891 32.0367 128.05 32.5064C129.288 33.0008 130.61 33.2477 131.943 33.2332C133.234 33.2415 134.517 33.0199 135.731 32.5788C136.87 32.1657 137.92 31.5405 138.826 30.7362C139.698 29.9619 140.382 28.9988 140.827 27.9201L135.565 26.5522C135.163 27.1237 134.636 27.596 134.024 27.9335C133.406 28.2484 132.72 28.406 132.026 28.3921C131.566 28.4088 131.107 28.3345 130.676 28.1734C130.245 28.0123 129.849 27.7677 129.513 27.4534C128.85 26.8276 128.404 25.9336 128.173 24.7714H141.197L141.191 23.492ZM128.168 21.0782C128.38 19.9678 128.799 19.1114 129.424 18.5088C129.737 18.209 130.106 17.9746 130.509 17.8194C130.913 17.6642 131.344 17.5913 131.777 17.6049C132.199 17.5911 132.619 17.6642 133.012 17.8197C133.404 17.9752 133.761 18.2097 134.059 18.5088C134.663 19.1096 135.059 19.966 135.246 21.0782H128.168Z" fill="white"/>
<path d="M160.811 17.0605C160.31 15.9324 159.501 14.9691 158.477 14.2819C157.428 13.6069 156.201 13.2613 154.954 13.2895C153.817 13.2633 152.693 13.541 151.699 14.0941C150.776 14.6167 150.007 15.3734 149.47 16.288L149.293 13.8098H143.994V32.6914H149.754V21.9927C149.745 21.3705 149.89 20.7558 150.177 20.2038C150.444 19.6908 150.842 19.257 151.329 18.9459C151.833 18.6332 152.416 18.473 153.009 18.4846C153.412 18.4666 153.814 18.5459 154.181 18.7158C154.547 18.8857 154.867 19.1412 155.115 19.4609C155.622 20.11 155.876 20.9897 155.876 22.1V32.6914H161.644V21.2954C161.679 19.8398 161.394 18.3942 160.811 17.0605Z" fill="white"/>
</g>
<defs>
<linearGradient id="paint0_linear_508_171" x1="60.4041" y1="9.47566" x2="88.2672" y2="9.47566" gradientUnits="userSpaceOnUse">
<stop stop-color="#6F2AFF"/>
<stop offset="1" stop-color="#E900A9"/>
</linearGradient>
<linearGradient id="paint1_linear_508_171" x1="68.9774" y1="23.8595" x2="90.9786" y2="23.8595" gradientUnits="userSpaceOnUse">
<stop stop-color="#6F2AFF"/>
<stop offset="1" stop-color="#E900A9"/>
</linearGradient>
<clipPath id="clip0_508_171">
<rect width="161.644" height="40" fill="white"/>
</clipPath>
</defs>
</svg>
