<svg width="23" height="40" viewBox="0 0 23 40" fill="none" xmlns="http://www.w3.org/2000/svg">
<path d="M22.0683 6.42427V33.5773C22.0685 34.4213 21.9023 35.2571 21.5792 36.0369C21.2561 36.8166 20.7825 37.525 20.1854 38.1215C19.5883 38.718 18.8794 39.191 18.0994 39.5133C17.3193 39.8357 16.4834 40.001 15.6393 40H6.41641C4.71397 39.9987 3.08171 39.3215 1.87848 38.1171C0.675264 36.9127 -0.000417123 35.2797 1.93194e-07 33.5773V20.7382C0.657207 21.43 4.60674 25.499 11.0059 25.5069C17.438 25.5242 21.4127 21.419 22.062 20.7382C21.7476 20.2665 18.0527 14.9208 11.2527 14.8092C4.17751 14.6897 0.265715 20.3372 0.00157399 20.7382V6.43057C0.00136749 5.58699 0.16734 4.75164 0.490018 3.97222C0.812697 3.1928 1.28576 2.48458 1.88218 1.88801C2.47861 1.29144 3.18671 0.818208 3.96605 0.495339C4.74539 0.172469 5.5807 0.00628968 6.42428 0.0062897H15.6393C16.4829 0.00546345 17.3184 0.170826 18.098 0.492932C18.8777 0.815039 19.5863 1.28758 20.1833 1.88356C20.7803 2.47955 21.254 3.1873 21.5775 3.96641C21.9009 4.74551 22.0677 5.5807 22.0683 6.42427Z" fill="white"/>
</svg>
