<svg width="62" height="62" viewBox="0 0 62 62" fill="none" xmlns="http://www.w3.org/2000/svg">
<path d="M42.613 7.905C40.3168 5.61385 37.3932 4.05441 34.2113 3.4236C31.0295 2.79279 27.7321 3.11889 24.7354 4.36071C21.7388 5.60253 19.1773 7.7044 17.3743 10.4009C15.5713 13.0975 14.6077 16.2678 14.6052 19.5115L0.0154419 18.5993L47.4283 35.3167V19.5115C47.4291 17.3552 47.0041 15.2199 46.1778 13.2282C45.3515 11.2364 44.14 9.42746 42.613 7.905ZM27.4528 17.5947C27.0864 17.5947 26.7282 17.486 26.4235 17.2824C26.1189 17.0789 25.8814 16.7895 25.7412 16.451C25.601 16.1125 25.5643 15.74 25.6358 15.3806C25.7073 15.0212 25.8837 14.6911 26.1428 14.432C26.4019 14.1729 26.732 13.9965 27.0914 13.925C27.4507 13.8535 27.8232 13.8902 28.1618 14.0304C28.5003 14.1707 28.7896 14.4081 28.9932 14.7128C29.1968 15.0174 29.3054 15.3756 29.3054 15.742C29.3058 15.9867 29.2576 16.2291 29.1636 16.455C29.0697 16.6809 28.9319 16.886 28.7581 17.0583C28.5844 17.2306 28.3782 17.3667 28.1515 17.4588C27.9248 17.5509 27.6821 17.597 27.4374 17.5947H27.4528ZM38.5686 17.5947C38.2021 17.5947 37.844 17.486 37.5393 17.2824C37.2346 17.0789 36.9972 16.7895 36.8569 16.451C36.7167 16.1125 36.68 15.74 36.7515 15.3806C36.823 15.0212 36.9995 14.6911 37.2585 14.432C37.5176 14.1729 37.8477 13.9965 38.2071 13.925C38.5665 13.8535 38.939 13.8902 39.2775 14.0304C39.6161 14.1707 39.9054 14.4081 40.109 14.7128C40.3125 15.0174 40.4212 15.3756 40.4212 15.742C40.4212 15.9866 40.3728 16.2288 40.2787 16.4546C40.1846 16.6804 40.0468 16.8853 39.8731 17.0575C39.6995 17.2298 39.4934 17.3659 39.2668 17.4581C39.0403 17.5503 38.7977 17.5967 38.5531 17.5947H38.5686Z" fill="url(#paint0_linear_506_314)"/>
<path d="M14.5897 27.6853L62 44.1302L47.4128 43.2181C47.4128 47.5707 45.6837 51.745 42.606 54.8228C39.5282 57.9005 35.3539 59.6296 31.0013 59.6296C26.6486 59.6296 22.4743 57.9005 19.3966 54.8228C16.3188 51.745 14.5897 47.5707 14.5897 43.2181V27.6853Z" fill="url(#paint1_linear_506_314)"/>
<defs>
<linearGradient id="paint0_linear_506_314" x1="-24.5641" y1="40.2288" x2="35.9285" y2="-22.4975" gradientUnits="userSpaceOnUse">
<stop stop-color="#E900A9"/>
<stop offset="0.13" stop-color="#E502AC"/>
<stop offset="0.27" stop-color="#D806B5"/>
<stop offset="0.42" stop-color="#C20EC5"/>
<stop offset="0.58" stop-color="#A318DA"/>
<stop offset="0.73" stop-color="#7D25F5"/>
<stop offset="0.78" stop-color="#6F2AFF"/>
</linearGradient>
<linearGradient id="paint1_linear_506_314" x1="-9.98853" y1="64.5017" x2="49.9921" y2="1.79938" gradientUnits="userSpaceOnUse">
<stop stop-color="#E900A9"/>
<stop offset="0.13" stop-color="#E502AC"/>
<stop offset="0.27" stop-color="#D806B5"/>
<stop offset="0.42" stop-color="#C20EC5"/>
<stop offset="0.58" stop-color="#A318DA"/>
<stop offset="0.73" stop-color="#7D25F5"/>
<stop offset="0.78" stop-color="#6F2AFF"/>
</linearGradient>
</defs>
</svg>
