<svg width="360" height="360" viewBox="0 0 360 360" fill="none" xmlns="http://www.w3.org/2000/svg">
<path d="M126.311 156.072C128.011 157.773 129.17 159.943 129.642 162.307C130.113 164.671 129.877 167.122 128.962 169.351C128.047 171.58 126.495 173.485 124.502 174.826C122.509 176.167 120.165 176.882 117.768 176.882C115.37 176.882 113.026 176.167 111.034 174.826C109.041 173.485 107.489 171.58 106.574 169.351C105.659 167.122 105.422 164.671 105.894 162.307C106.366 159.943 107.525 157.773 109.224 156.072C111.494 153.8 114.566 152.524 117.768 152.524C120.97 152.524 124.042 153.8 126.311 156.072Z" fill="#6EE8FC"/>
<path opacity="0.5" d="M117.768 176.95C119.478 176.899 121.157 176.485 122.696 175.735C124.235 174.984 125.599 173.915 126.697 172.596C127.795 171.277 128.603 169.74 129.068 168.084C129.532 166.429 129.643 164.693 129.392 162.992C129.142 161.29 128.536 159.661 127.614 158.212C126.692 156.764 125.476 155.527 124.044 154.586C122.613 153.644 121 153.017 119.311 152.748C117.621 152.478 115.894 152.571 114.244 153.021C114.244 153.279 114.244 153.537 114.244 153.773C114.216 161.636 115.405 169.455 117.768 176.95Z" fill="#161242"/>
<path d="M117.746 138.286C118.619 139.164 119.212 140.281 119.453 141.498C119.693 142.714 119.57 143.975 119.098 145.121C118.626 146.267 117.826 147.247 116.801 147.936C115.775 148.625 114.569 148.993 113.336 148.993C112.102 148.993 110.897 148.625 109.871 147.936C108.845 147.247 108.046 146.267 107.574 145.121C107.102 143.975 106.978 142.714 107.219 141.498C107.459 140.281 108.053 139.164 108.925 138.286C109.501 137.699 110.188 137.232 110.945 136.913C111.702 136.595 112.515 136.431 113.336 136.431C114.157 136.431 114.969 136.595 115.726 136.913C116.484 137.232 117.17 137.699 117.746 138.286Z" fill="#6EE8FC"/>
<path opacity="0.5" d="M113.368 149.026C116.812 149.026 119.605 146.218 119.605 142.754C119.605 139.29 116.812 136.482 113.368 136.482C109.923 136.482 107.131 139.29 107.131 142.754C107.131 146.218 109.923 149.026 113.368 149.026Z" fill="#161242"/>
<path d="M95.4904 136.611C96.0504 137.172 96.4321 137.888 96.5874 138.667C96.7426 139.447 96.6643 140.255 96.3624 140.99C96.0605 141.725 95.5486 142.353 94.8915 142.795C94.2343 143.237 93.4616 143.473 92.671 143.473C91.8804 143.473 91.1077 143.237 90.4506 142.795C89.7934 142.353 89.2815 141.725 88.9796 140.99C88.6777 140.255 88.5994 139.447 88.7546 138.667C88.9099 137.888 89.2917 137.172 89.8516 136.611C90.603 135.866 91.6158 135.448 92.671 135.448C93.7262 135.448 94.739 135.866 95.4904 136.611Z" fill="#6EE8FC"/>
<path d="M268.631 163.753C278.331 123.09 253.416 82.2178 212.982 72.463C172.547 62.7082 131.905 87.7643 122.205 128.427C112.505 169.09 137.42 209.962 177.855 219.717C218.289 229.472 258.931 204.416 268.631 163.753Z" fill="url(#paint0_linear_291_1132)"/>
<path opacity="0.6" d="M195.429 286.282C218.113 286.282 236.502 275.607 236.502 262.439C236.502 249.271 218.113 238.597 195.429 238.597C172.745 238.597 154.356 249.271 154.356 262.439C154.356 275.607 172.745 286.282 195.429 286.282Z" fill="#0C0F38"/>
<path d="M195.408 292.726C182.272 292.726 169.115 289.826 159.097 284.005C149.08 278.184 143.804 270.623 143.804 262.525C143.804 254.427 149.23 246.673 159.076 241.045C179.111 229.403 211.683 229.425 231.697 241.045C241.564 246.759 246.99 254.427 246.99 262.525C246.99 270.623 241.564 278.399 231.697 284.005C221.829 289.611 208.586 292.726 195.408 292.726ZM195.408 233.85C182.592 233.85 169.777 236.685 159.973 242.442C150.661 247.833 145.535 254.964 145.535 262.504C145.535 270.043 150.661 277.196 159.973 282.587C179.517 293.928 211.235 293.928 230.864 282.587C240.155 277.196 245.281 270.064 245.281 262.504C245.281 254.943 240.155 247.833 230.864 242.442C221.039 236.685 208.223 233.85 195.408 233.85Z" fill="url(#paint1_linear_291_1132)"/>
<path d="M122.467 147.587C122.456 134.022 126.074 120.703 132.941 109.027C139.807 97.3504 149.671 87.7465 161.497 81.2212C173.323 74.696 186.677 71.4897 200.159 71.9382C213.64 72.3868 226.754 76.4738 238.126 83.7709C229.894 78.1423 220.635 74.2119 210.882 72.2074C201.13 70.203 191.079 70.1642 181.312 72.0934C171.545 74.0227 162.255 77.8815 153.981 83.4465C145.708 89.0114 138.614 96.1719 133.111 104.513C127.608 112.855 123.806 122.211 121.924 132.041C120.042 141.87 120.118 151.978 122.147 161.777C124.177 171.577 128.12 180.875 133.747 189.131C139.375 197.388 146.576 204.44 154.932 209.878C144.906 202.919 136.712 193.613 131.057 182.761C125.401 171.91 122.453 159.839 122.467 147.587Z" fill="#D4088C"/>
<path d="M237.207 83.0836C252.956 94.8585 263.508 112.355 266.612 131.842C269.716 151.329 265.127 171.265 253.824 187.398C242.521 203.531 225.397 214.585 206.105 218.203C186.813 221.82 166.879 217.716 150.554 206.764C158.614 212.79 167.791 217.132 177.546 219.535C187.301 221.938 197.435 222.353 207.352 220.756C217.269 219.158 226.767 215.58 235.288 210.233C243.808 204.886 251.178 197.878 256.962 189.621C262.747 181.365 266.829 172.027 268.969 162.159C271.109 152.291 271.263 142.092 269.422 132.163C267.581 122.235 263.782 112.777 258.25 104.348C252.717 95.9185 245.562 88.6884 237.207 83.0836Z" fill="#6EE8FC"/>
<path d="M183.25 134.32C194.22 120.057 194.187 101.552 183.176 92.9878C172.166 84.4236 154.347 89.0435 143.377 103.307C132.408 117.57 132.441 136.075 143.451 144.639C154.462 153.204 172.28 148.584 183.25 134.32Z" fill="#6DE0F6"/>
<path d="M154.997 109.826C163.284 99.0859 175.458 93.8019 185.668 95.5632C184.912 94.6451 184.075 93.7969 183.169 93.0286C172.169 84.4367 154.356 89.0763 143.377 103.339C132.399 117.601 132.442 136.117 143.377 144.687C146.052 146.733 149.183 148.089 152.498 148.64C144.253 139.339 144.979 122.842 154.997 109.826Z" fill="#25BFEC"/>
<path d="M148.674 106.368C158.094 94.1241 172.554 89.0549 183.425 93.2864C183.319 93.2864 183.276 93.1145 183.169 93.0286C172.169 84.4367 154.356 89.0763 143.377 103.339C132.399 117.601 132.442 136.117 143.377 144.687C144.914 145.854 146.612 146.788 148.418 147.458C137.738 138.802 137.738 120.523 148.674 106.368Z" fill="#267FE5"/>
<path opacity="0.5" d="M233.213 200.578C227.019 206.828 217.771 207.601 212.538 202.36C207.305 197.119 208.095 187.776 214.289 181.547C220.483 175.317 229.753 174.523 234.986 179.785C240.219 185.048 239.429 194.306 233.213 200.578Z" fill="#161242"/>
<path opacity="0.5" d="M214.289 165.093C213.856 165.394 213.346 165.564 212.821 165.585C212.295 165.606 211.774 165.476 211.318 165.21C210.863 164.944 210.492 164.554 210.249 164.085C210.006 163.615 209.901 163.086 209.945 162.558C209.99 162.031 210.183 161.527 210.501 161.106C210.819 160.684 211.25 160.362 211.744 160.178C212.237 159.993 212.772 159.953 213.287 160.063C213.802 160.173 214.276 160.427 214.652 160.797C214.911 161.102 215.108 161.456 215.23 161.838C215.352 162.219 215.397 162.622 215.364 163.021C215.33 163.421 215.217 163.81 215.033 164.166C214.848 164.521 214.596 164.837 214.289 165.093Z" fill="#161242"/>
<path opacity="0.5" d="M209.093 184.602C210.361 183.327 210.523 181.423 209.456 180.349C208.388 179.275 206.495 179.439 205.227 180.714C203.959 181.989 203.797 183.893 204.864 184.966C205.932 186.04 207.825 185.877 209.093 184.602Z" fill="#161242"/>
<path opacity="0.5" d="M210.069 171.476C210.645 170.898 210.719 170.034 210.235 169.547C209.751 169.061 208.893 169.136 208.317 169.715C207.742 170.293 207.667 171.157 208.151 171.643C208.635 172.13 209.494 172.055 210.069 171.476Z" fill="#161242"/>
<path d="M229.881 194.134C229.885 194.747 229.708 195.348 229.372 195.86C229.035 196.372 228.555 196.772 227.992 197.009C227.429 197.245 226.809 197.308 226.211 197.19C225.612 197.071 225.062 196.776 224.631 196.342C224.199 195.908 223.906 195.355 223.788 194.753C223.67 194.151 223.732 193.528 223.968 192.962C224.203 192.395 224.601 191.913 225.11 191.574C225.619 191.236 226.217 191.058 226.827 191.062C227.635 191.068 228.409 191.393 228.98 191.968C229.552 192.543 229.875 193.321 229.881 194.134Z" fill="#6EE8FC"/>
<path d="M240.112 181.998C240.112 182.303 240.022 182.602 239.853 182.857C239.684 183.111 239.444 183.309 239.163 183.426C238.882 183.543 238.573 183.574 238.274 183.514C237.976 183.455 237.702 183.307 237.487 183.091C237.272 182.875 237.125 182.599 237.066 182.299C237.007 181.999 237.037 181.688 237.153 181.406C237.27 181.123 237.467 180.882 237.72 180.712C237.973 180.542 238.27 180.451 238.574 180.451C238.982 180.451 239.373 180.614 239.662 180.904C239.95 181.194 240.112 181.587 240.112 181.998Z" fill="#6EE8FC"/>
<path d="M223.046 166.339C223.046 166.972 222.86 167.591 222.51 168.117C222.16 168.643 221.663 169.054 221.082 169.296C220.5 169.538 219.86 169.601 219.243 169.478C218.626 169.354 218.059 169.05 217.613 168.602C217.168 168.154 216.865 167.584 216.742 166.963C216.62 166.342 216.683 165.699 216.924 165.114C217.164 164.529 217.572 164.029 218.096 163.678C218.619 163.326 219.234 163.138 219.864 163.138C220.708 163.138 221.517 163.476 222.114 164.076C222.711 164.676 223.046 165.49 223.046 166.339Z" fill="#6EE8FC"/>
<path d="M217.258 173.47C217.252 173.831 217.106 174.175 216.85 174.428C216.594 174.682 216.25 174.823 215.891 174.823C215.534 174.823 215.192 174.681 214.939 174.427C214.687 174.173 214.545 173.829 214.545 173.47C214.545 173.111 214.687 172.767 214.939 172.513C215.192 172.259 215.534 172.117 215.891 172.117C216.25 172.117 216.594 172.259 216.85 172.512C217.106 172.765 217.252 173.109 217.258 173.47Z" fill="#6EE8FC"/>
<path d="M223.046 176.305C224.367 176.305 225.438 175.228 225.438 173.9C225.438 172.571 224.367 171.494 223.046 171.494C221.725 171.494 220.654 172.571 220.654 173.9C220.654 175.228 221.725 176.305 223.046 176.305Z" fill="#6EE8FC"/>
<path d="M251.261 229.489C262.031 229.489 270.762 220.709 270.762 209.878C270.762 199.047 262.031 190.267 251.261 190.267C240.492 190.267 231.761 199.047 231.761 209.878C231.761 220.709 240.492 229.489 251.261 229.489Z" fill="#6EE8FC"/>
<path d="M248.997 208.418C245.067 212.37 239.407 213.079 236.331 210.007C233.256 206.936 233.982 201.222 237.912 197.27C241.842 193.317 247.502 192.609 250.557 195.702C253.611 198.795 252.927 204.465 248.997 208.418Z" fill="#3BE1FA"/>
<path d="M246.541 205.948C245.817 206.384 244.985 206.607 244.14 206.591C243.296 206.575 242.473 206.32 241.765 205.857C241.058 205.393 240.494 204.739 240.138 203.969C239.782 203.199 239.649 202.343 239.753 201.501C239.857 200.658 240.195 199.861 240.727 199.202C241.26 198.543 241.965 198.047 242.764 197.772C243.563 197.497 244.423 197.453 245.246 197.645C246.068 197.837 246.82 198.258 247.417 198.859C248.215 199.924 248.569 201.259 248.406 202.582C248.242 203.904 247.574 205.112 246.541 205.948Z" fill="#18D0F7"/>
<path d="M257.349 234.43C258.552 235.628 259.373 237.159 259.71 238.828C260.046 240.496 259.881 242.228 259.237 243.803C258.593 245.378 257.498 246.724 256.091 247.672C254.684 248.62 253.029 249.126 251.336 249.126C249.643 249.126 247.988 248.62 246.581 247.672C245.174 246.724 244.08 245.378 243.435 243.803C242.791 242.228 242.627 240.496 242.963 238.828C243.299 237.159 244.121 235.628 245.324 234.43C246.923 232.836 249.084 231.942 251.336 231.942C253.588 231.942 255.749 232.836 257.349 234.43Z" fill="#6EE8FC"/>
<path d="M231.269 235.804C233.121 235.804 234.623 234.294 234.623 232.432C234.623 230.57 233.121 229.06 231.269 229.06C229.417 229.06 227.916 230.57 227.916 232.432C227.916 234.294 229.417 235.804 231.269 235.804Z" fill="#6EE8FC"/>
<path d="M249.852 239.026C249.399 239.302 248.879 239.445 248.35 239.438C247.821 239.43 247.305 239.274 246.86 238.985C246.416 238.697 246.061 238.288 245.836 237.807C245.611 237.325 245.526 236.789 245.59 236.261C245.653 235.733 245.864 235.233 246.196 234.82C246.529 234.406 246.971 234.095 247.471 233.922C247.971 233.749 248.51 233.72 249.025 233.841C249.541 233.961 250.012 234.224 250.386 234.601C250.886 235.264 251.11 236.097 251.011 236.923C250.911 237.749 250.495 238.503 249.852 239.026Z" fill="#3BE1FA"/>
<path style="mix-blend-mode:lighten" opacity="0.2" d="M183.169 93.0286L182.656 92.685L64.2208 0L18 67.747L145.492 146.062C156.556 152.656 172.917 147.78 183.233 134.377C194.233 120.115 194.19 101.599 183.169 93.0286Z" fill="url(#paint2_linear_291_1132)"/>
<path style="mix-blend-mode:lighten" opacity="0.25" d="M179.816 95.1122C179.666 94.9833 179.495 94.8974 179.346 94.79L74.2596 12.5442L33.2504 72.6874L146.453 142.196C156.278 148.038 170.802 143.699 179.944 131.8C189.619 119.127 189.577 102.716 179.816 95.1122Z" fill="url(#paint3_linear_291_1132)"/>
<path d="M115.931 59.6492C115.15 59.5603 114.359 59.7067 113.661 60.0697C112.962 60.4327 112.386 60.9961 112.006 61.6885C111.626 62.3809 111.459 63.1711 111.526 63.9591C111.593 64.7471 111.891 65.4973 112.382 66.1149C112.874 66.7324 113.536 67.1895 114.286 67.4281C115.036 67.6667 115.839 67.6762 116.594 67.4554C117.349 67.2345 118.022 66.7933 118.528 66.1875C119.033 65.5818 119.348 64.8387 119.434 64.0525C119.548 63.0019 119.243 61.9486 118.587 61.1233C117.93 60.298 116.975 59.768 115.931 59.6492Z" fill="#6EE8FC"/>
<path opacity="0.8" d="M132.698 64.0525C131.953 63.8184 131.156 63.8113 130.407 64.0322C129.658 64.253 128.991 64.6919 128.49 65.2934C127.989 65.8949 127.676 66.6322 127.591 67.4123C127.506 68.1924 127.653 68.9803 128.012 69.6767C128.372 70.3731 128.929 70.9469 129.612 71.3256C130.295 71.7044 131.075 71.8711 131.853 71.8049C132.63 71.7386 133.371 71.4424 133.981 70.9534C134.592 70.4644 135.044 69.8046 135.282 69.0573C135.444 68.5582 135.506 68.0316 135.463 67.5084C135.42 66.9851 135.274 66.4757 135.034 66.0098C134.793 65.5438 134.463 65.1308 134.062 64.7947C133.661 64.4587 133.197 64.2064 132.698 64.0525Z" fill="#6EE8FC"/>
<path opacity="0.6" d="M148.418 71.6993C147.73 71.3158 146.944 71.1464 146.16 71.2126C145.376 71.2787 144.63 71.5773 144.015 72.0706C143.4 72.5639 142.944 73.2298 142.706 73.9837C142.468 74.7376 142.458 75.5456 142.676 76.3054C142.895 77.0653 143.334 77.7426 143.936 78.2517C144.538 78.7608 145.276 79.0787 146.058 79.1651C146.84 79.2515 147.63 79.1026 148.328 78.7371C149.025 78.3716 149.599 77.8061 149.977 77.1122C150.23 76.6541 150.39 76.1504 150.448 75.63C150.506 75.1096 150.462 74.5827 150.317 74.0797C150.172 73.5767 149.929 73.1074 149.604 72.6989C149.278 72.2903 148.875 71.9506 148.418 71.6993Z" fill="#6EE8FC"/>
<path opacity="0.4" d="M162.152 82.1599C161.553 81.6466 160.815 81.3239 160.033 81.2327C159.251 81.1415 158.46 81.286 157.76 81.6478C157.06 82.0096 156.482 82.5724 156.101 83.2649C155.719 83.9573 155.551 84.7481 155.617 85.5369C155.683 86.3257 155.981 87.077 156.472 87.6954C156.964 88.3139 157.627 88.7715 158.377 89.0104C159.128 89.2492 159.932 89.2585 160.687 89.0369C161.443 88.8154 162.116 88.3731 162.622 87.7661C162.957 87.3673 163.212 86.9057 163.37 86.4079C163.528 85.9101 163.587 85.3858 163.543 84.865C163.5 84.3443 163.354 83.8373 163.115 83.3731C162.877 82.9089 162.549 82.4967 162.152 82.1599Z" fill="#6EE8FC"/>
<path opacity="0.2" d="M173.664 95.1766C173.174 94.5583 172.512 94.1002 171.763 93.8603C171.014 93.6204 170.211 93.6095 169.455 93.8289C168.7 94.0484 168.026 94.4883 167.52 95.0931C167.013 95.6978 166.696 96.4401 166.609 97.226C166.523 98.0119 166.67 98.8061 167.032 99.5079C167.394 100.21 167.955 100.788 168.644 101.169C169.334 101.549 170.119 101.716 170.903 101.647C171.686 101.579 172.432 101.278 173.045 100.783C173.865 100.121 174.39 99.1593 174.506 98.1084C174.622 97.0576 174.32 96.0033 173.664 95.1766Z" fill="#6EE8FC"/>
<path opacity="0.1" d="M182.891 112.103C182.904 111.312 182.683 110.535 182.256 109.87C181.829 109.206 181.216 108.684 180.493 108.37C179.771 108.057 178.973 107.966 178.199 108.109C177.426 108.253 176.712 108.624 176.148 109.176C175.584 109.727 175.196 110.435 175.033 111.209C174.87 111.983 174.938 112.788 175.23 113.522C175.523 114.257 176.025 114.887 176.674 115.335C177.323 115.782 178.089 116.025 178.876 116.033C179.397 116.042 179.914 115.947 180.398 115.754C180.882 115.56 181.323 115.273 181.696 114.908C182.069 114.542 182.367 114.107 182.572 113.625C182.777 113.144 182.886 112.626 182.891 112.103Z" fill="#6EE8FC"/>
<path d="M100.211 68.9928C101.004 69.0812 101.805 68.9312 102.514 68.5616C103.222 68.1921 103.806 67.6196 104.191 66.9166C104.576 66.2136 104.745 65.4115 104.677 64.6119C104.609 63.8122 104.307 63.0507 103.809 62.4237C103.311 61.7966 102.639 61.3322 101.878 61.089C101.118 60.8458 100.303 60.8348 99.5357 61.0574C98.7689 61.28 98.0849 61.7262 97.5702 62.3396C97.0555 62.9529 96.7331 63.706 96.6438 64.5036C96.5815 65.0344 96.6246 65.5725 96.7706 66.0864C96.9167 66.6004 97.1627 67.0801 97.4945 67.4977C97.8263 67.9153 98.2373 68.2625 98.7035 68.5191C99.1698 68.7758 99.6821 68.9368 100.211 68.9928Z" fill="#6EE8FC"/>
<path opacity="0.8" d="M83.4226 64.5465C84.1712 64.7906 84.975 64.8055 85.7321 64.5894C86.4892 64.3734 87.1654 63.9361 87.675 63.333C88.1845 62.7299 88.5045 61.9882 88.5943 61.2019C88.6841 60.4157 88.5397 59.6203 88.1794 58.9167C87.819 58.2131 87.259 57.633 86.5704 57.2499C85.8818 56.8669 85.0955 56.6981 84.3114 56.7651C83.5272 56.832 82.7805 57.1317 82.166 57.626C81.5514 58.1204 81.0967 58.7871 80.8595 59.5418C80.5492 60.5473 80.644 61.6352 81.1233 62.5713C81.6027 63.5073 82.4284 64.2166 83.4226 64.5465Z" fill="#6EE8FC"/>
<path opacity="0.6" d="M67.8304 56.9428C68.5185 57.3262 69.3042 57.4956 70.0881 57.4295C70.8719 57.3634 71.6186 57.0647 72.2336 56.5714C72.8485 56.0781 73.3039 55.4123 73.5422 54.6584C73.7805 53.9045 73.7908 53.0964 73.5719 52.3366C73.3531 51.5767 72.9148 50.8994 72.3127 50.3903C71.7107 49.8812 70.9718 49.5633 70.1899 49.4769C69.408 49.3905 68.6182 49.5395 67.9206 49.905C67.2229 50.2704 66.6489 50.836 66.2712 51.5299C66.0187 51.9879 65.8587 52.4916 65.8005 53.012C65.7422 53.5324 65.7868 54.0593 65.9317 54.5623C66.0766 55.0654 66.3189 55.5346 66.6448 55.9431C66.9706 56.3517 67.3736 56.6914 67.8304 56.9428Z" fill="#6EE8FC"/>
<path opacity="0.4" d="M53.9899 46.4392C54.5899 46.9496 55.327 47.2695 56.1079 47.3586C56.8887 47.4476 57.6784 47.3018 58.3768 46.9395C59.0753 46.5772 59.6512 46.0146 60.0316 45.3231C60.4121 44.6316 60.5801 43.8421 60.5144 43.0545C60.4486 42.2669 60.1521 41.5167 59.6622 40.8986C59.1724 40.2806 58.5113 39.8226 57.7625 39.5824C57.0138 39.3423 56.211 39.3309 55.4558 39.5497C54.7006 39.7685 54.027 40.2076 53.52 40.8115C52.8407 41.6206 52.5086 42.6679 52.5967 43.7231C52.6848 44.7784 53.1859 45.7553 53.9899 46.4392Z" fill="#6EE8FC"/>
<path opacity="0.2" d="M42.4561 33.4009C42.9441 34.0208 43.604 34.4811 44.3523 34.7235C45.1006 34.966 45.9035 34.9798 46.6596 34.7631C47.4156 34.5464 48.0908 34.109 48.5995 33.5062C49.1082 32.9035 49.4277 32.1625 49.5175 31.3771C49.6072 30.5916 49.4633 29.7971 49.1038 29.094C48.7443 28.3909 48.1855 27.8108 47.498 27.4273C46.8106 27.0437 46.0255 26.8739 45.242 26.9393C44.4585 27.0047 43.712 27.3024 43.0968 27.7947C42.2786 28.4568 41.7525 29.4163 41.6326 30.4656C41.5127 31.5149 41.8085 32.5694 42.4561 33.4009Z" fill="#6EE8FC"/>
<path opacity="0.1" d="M33.2503 16.4749C33.2376 17.2659 33.4588 18.0429 33.8856 18.7073C34.3125 19.3718 34.926 19.8938 35.6482 20.2073C36.3704 20.5208 37.1689 20.6116 37.9425 20.4682C38.7161 20.3249 39.4299 19.9538 39.9936 19.402C40.5573 18.8502 40.9454 18.1426 41.1087 17.3688C41.272 16.595 41.2033 15.7898 40.9111 15.0553C40.619 14.3208 40.1166 13.6901 39.4676 13.2431C38.8187 12.796 38.0523 12.5528 37.2658 12.5442C36.2158 12.5327 35.2039 12.9397 34.4515 13.6763C33.699 14.4129 33.2671 15.4191 33.2503 16.4749Z" fill="#6EE8FC"/>
<path d="M92.8846 88.7542C93.1916 89.2086 93.3574 89.7445 93.3609 90.2938C93.3644 90.8431 93.2054 91.3811 92.9042 91.8394C92.603 92.2977 92.1731 92.6556 91.6692 92.8677C91.1653 93.0797 90.6101 93.1364 90.0741 93.0304C89.5381 92.9244 89.0455 92.6606 88.6589 92.2724C88.2723 91.8843 88.0092 91.3893 87.903 90.8505C87.7967 90.3116 87.8521 89.7531 88.0622 89.246C88.2723 88.7389 88.6275 88.306 89.0827 88.0024C89.3812 87.7999 89.7165 87.6588 90.0693 87.587C90.4222 87.5152 90.7857 87.5142 91.1389 87.584C91.4922 87.6539 91.8283 87.7932 92.1278 87.994C92.4274 88.1948 92.6846 88.4532 92.8846 88.7542Z" fill="#6EE8FC"/>
<path opacity="0.8" d="M84.8964 79.7971C85.2757 80.1828 85.5332 80.6728 85.6363 81.2053C85.7394 81.7378 85.6835 82.2891 85.4757 82.7897C85.2679 83.2903 84.9175 83.718 84.4685 84.0188C84.0196 84.3196 83.4922 84.4801 82.9527 84.4801C82.4133 84.4801 81.8859 84.3196 81.4369 84.0188C80.988 83.718 80.6375 83.2903 80.4297 82.7897C80.2219 82.2891 80.166 81.7378 80.2691 81.2053C80.3722 80.6728 80.6297 80.1828 81.0091 79.7971C81.2633 79.5387 81.566 79.3335 81.8996 79.1934C82.2332 79.0534 82.5912 78.9813 82.9527 78.9813C83.3143 78.9813 83.6722 79.0534 84.0058 79.1934C84.3394 79.3335 84.6421 79.5387 84.8964 79.7971Z" fill="#6EE8FC"/>
<path opacity="0.6" d="M75.2421 72.58C75.6984 72.8815 76.0553 73.3126 76.2676 73.8185C76.4799 74.3244 76.5379 74.8823 76.4343 75.4214C76.3308 75.9605 76.0702 76.4566 75.6858 76.8465C75.3014 77.2365 74.8105 77.5028 74.2753 77.6116C73.7401 77.7205 73.1848 77.667 72.6799 77.4579C72.1751 77.2488 71.7433 76.8936 71.4395 76.4373C71.1358 75.981 70.9736 75.4443 70.9738 74.8952C70.9739 74.3461 71.1362 73.8094 71.4402 73.3532C71.8446 72.7464 72.4709 72.3246 73.1829 72.1798C73.8949 72.035 74.635 72.1788 75.2421 72.58Z" fill="#6EE8FC"/>
<path opacity="0.4" d="M64.3703 67.4033C64.8753 67.6093 65.3083 67.9613 65.6144 68.4148C65.9205 68.8683 66.0861 69.4028 66.09 69.9509C66.094 70.499 65.9362 71.0359 65.6367 71.4938C65.3372 71.9517 64.9094 72.31 64.4074 72.5234C63.9054 72.7367 63.3517 72.7956 62.8164 72.6925C62.2811 72.5894 61.7883 72.3289 61.4002 71.9441C61.0121 71.5593 60.7463 71.0674 60.6362 70.5306C60.5262 69.9938 60.5769 69.4362 60.782 68.9284C61.0569 68.2478 61.5893 67.7047 62.2622 67.4188C62.9351 67.1328 63.6933 67.1272 64.3703 67.4033Z" fill="#6EE8FC"/>
<path opacity="0.2" d="M52.7084 64.4821C53.2381 64.5906 53.724 64.8547 54.1045 65.2408C54.4851 65.627 54.7432 66.1179 54.8464 66.6516C54.9495 67.1852 54.8931 67.7377 54.6841 68.2391C54.4751 68.7405 54.123 69.1683 53.6722 69.4685C53.2215 69.7687 52.6924 69.9277 52.1518 69.9256C51.6112 69.9234 51.0834 69.7601 50.635 69.4563C50.1867 69.1525 49.838 68.7219 49.6329 68.2188C49.4279 67.7158 49.3758 67.1629 49.4832 66.6301C49.5545 66.276 49.6946 65.9395 49.8954 65.6399C50.0961 65.3403 50.3536 65.0834 50.6531 64.8839C50.9527 64.6844 51.2884 64.5462 51.641 64.4773C51.9937 64.4084 52.3564 64.41 52.7084 64.4821Z" fill="#6EE8FC"/>
<path opacity="0.1" d="M39.4872 64.2028C39.9663 63.9422 40.5116 63.8302 41.054 63.8811C41.5964 63.932 42.1117 64.1435 42.5347 64.4887C42.9576 64.834 43.2693 65.2977 43.4303 65.8211C43.5913 66.3445 43.5944 66.9041 43.4393 67.4293C43.2841 67.9544 42.9776 68.4215 42.5585 68.7716C42.1394 69.1216 41.6266 69.3389 41.0847 69.3959C40.5429 69.4528 39.9964 69.347 39.5144 69.0918C39.0324 68.8365 38.6364 68.4433 38.3765 67.9618C38.0333 67.3142 37.9575 66.5567 38.1653 65.8533C38.3732 65.1498 38.848 64.5569 39.4872 64.2028Z" fill="#6EE8FC"/>
<path d="M92.3293 101.47C92.0165 101.01 91.8468 100.466 91.8418 99.9084C91.8368 99.3507 91.9967 98.8041 92.3012 98.338C92.6057 97.8719 93.041 97.5073 93.552 97.2905C94.0629 97.0737 94.6264 97.0145 95.1709 97.1204C95.7154 97.2262 96.2163 97.4924 96.61 97.8852C97.0038 98.2779 97.2726 98.7794 97.3824 99.3261C97.4921 99.8728 97.4379 100.44 97.2265 100.956C97.0151 101.471 96.6562 101.912 96.1952 102.222C95.8935 102.432 95.5533 102.579 95.1944 102.655C94.8355 102.73 94.4652 102.733 94.1051 102.663C93.745 102.593 93.4025 102.452 93.0975 102.247C92.7926 102.042 92.5314 101.778 92.3293 101.47Z" fill="#6EE8FC"/>
<path opacity="0.8" d="M100.424 110.363C100.038 109.976 99.7739 109.482 99.6666 108.944C99.5592 108.406 99.613 107.849 99.8212 107.341C100.029 106.834 100.382 106.401 100.836 106.096C101.289 105.791 101.822 105.628 102.368 105.628C102.913 105.628 103.447 105.791 103.9 106.096C104.353 106.401 104.707 106.834 104.915 107.341C105.123 107.849 105.177 108.406 105.069 108.944C104.962 109.482 104.698 109.976 104.312 110.363C104.057 110.621 103.755 110.826 103.421 110.966C103.087 111.107 102.73 111.179 102.368 111.179C102.006 111.179 101.649 111.107 101.315 110.966C100.981 110.826 100.679 110.621 100.424 110.363Z" fill="#6EE8FC"/>
<path opacity="0.6" d="M110.079 117.601C109.625 117.298 109.272 116.866 109.062 116.36C108.853 115.854 108.798 115.297 108.903 114.76C109.008 114.222 109.27 113.728 109.654 113.34C110.039 112.952 110.529 112.687 111.063 112.579C111.597 112.471 112.151 112.525 112.655 112.733C113.159 112.942 113.59 113.296 113.893 113.75C114.197 114.205 114.36 114.74 114.362 115.288C114.363 115.836 114.203 116.372 113.902 116.828C113.701 117.132 113.444 117.392 113.143 117.595C112.842 117.799 112.505 117.94 112.15 118.012C111.795 118.084 111.429 118.085 111.073 118.014C110.718 117.944 110.38 117.803 110.079 117.601Z" fill="#6EE8FC"/>
<path opacity="0.4" d="M120.95 122.778C120.445 122.57 120.013 122.217 119.708 121.762C119.404 121.307 119.24 120.771 119.238 120.222C119.236 119.674 119.396 119.137 119.698 118.68C120 118.223 120.43 117.867 120.934 117.656C121.437 117.445 121.992 117.389 122.527 117.495C123.062 117.601 123.554 117.865 123.94 118.252C124.326 118.64 124.589 119.134 124.696 119.672C124.802 120.21 124.748 120.768 124.539 121.274C124.403 121.611 124.202 121.918 123.947 122.176C123.693 122.435 123.39 122.64 123.057 122.779C122.723 122.919 122.365 122.991 122.003 122.991C121.642 122.991 121.284 122.918 120.95 122.778Z" fill="#6EE8FC"/>
<path opacity="0.2" d="M132.612 125.721C132.076 125.615 131.583 125.352 131.196 124.963C130.809 124.575 130.545 124.08 130.439 123.541C130.332 123.002 130.388 122.443 130.598 121.935C130.809 121.428 131.164 120.995 131.62 120.691C132.076 120.388 132.611 120.227 133.158 120.231C133.704 120.234 134.238 120.401 134.69 120.71C135.142 121.018 135.493 121.456 135.697 121.966C135.901 122.475 135.95 123.035 135.837 123.573C135.688 124.285 135.266 124.91 134.663 125.312C134.059 125.714 133.323 125.861 132.612 125.721Z" fill="#6EE8FC"/>
<path opacity="0.1" d="M145.919 125.979C145.443 126.235 144.902 126.344 144.365 126.292C143.827 126.239 143.317 126.028 142.899 125.685C142.481 125.341 142.173 124.881 142.014 124.362C141.856 123.843 141.854 123.288 142.009 122.768C142.163 122.247 142.468 121.785 142.883 121.438C143.299 121.092 143.807 120.877 144.344 120.82C144.881 120.764 145.423 120.869 145.901 121.122C146.379 121.375 146.772 121.764 147.03 122.241C147.202 122.56 147.31 122.909 147.347 123.27C147.385 123.63 147.351 123.995 147.248 124.342C147.144 124.69 146.974 125.013 146.746 125.294C146.518 125.575 146.237 125.807 145.919 125.979Z" fill="#6EE8FC"/>
<path opacity="0.4" d="M144.616 123.809C144.548 123.809 144.483 123.782 144.435 123.734C144.387 123.685 144.36 123.62 144.36 123.551C144.36 123.483 144.387 123.417 144.435 123.369C144.483 123.321 144.548 123.294 144.616 123.294L173.301 114.229L133.21 123.251C133.181 123.261 133.15 123.265 133.119 123.263C133.088 123.261 133.057 123.252 133.03 123.238C133.002 123.224 132.977 123.205 132.957 123.181C132.936 123.157 132.921 123.13 132.911 123.1C132.875 123.055 132.855 122.998 132.855 122.939C132.855 122.881 132.875 122.824 132.911 122.778L167.662 99.2578L122.018 120.458C121.973 120.495 121.916 120.515 121.858 120.515C121.8 120.515 121.743 120.495 121.698 120.458C121.656 120.411 121.633 120.35 121.633 120.286C121.633 120.223 121.656 120.162 121.698 120.115L157.282 86.9499L111.745 115.518C111.694 115.553 111.635 115.572 111.574 115.572C111.513 115.572 111.453 115.553 111.403 115.518C111.361 115.471 111.338 115.409 111.338 115.346C111.338 115.283 111.361 115.221 111.403 115.174L144.573 76.8759L102.518 108.644C102.471 108.687 102.41 108.71 102.347 108.71C102.284 108.71 102.223 108.687 102.176 108.644C102.138 108.595 102.117 108.535 102.117 108.473C102.117 108.41 102.138 108.35 102.176 108.301L129.942 69.5299L94.8069 100.095C94.7607 100.131 94.7038 100.15 94.6455 100.149C94.5871 100.148 94.5309 100.127 94.4861 100.09C94.4413 100.052 94.4105 100 94.399 99.9426C94.3874 99.8851 94.3957 99.8254 94.4224 99.7733L114.115 65.4058L90.8768 90.4081C90.8314 90.4447 90.7749 90.4647 90.7166 90.4647C90.6584 90.4647 90.6019 90.4447 90.5565 90.4081C90.5234 90.361 90.5056 90.3047 90.5056 90.247C90.5056 90.1893 90.5234 90.133 90.5565 90.0859C94.3797 81.1289 99.9117 67.747 100.488 65.2983C98.5661 66.673 89.3817 75.6945 83.2517 81.8377C83.2103 81.8645 83.1621 81.8788 83.1129 81.8788C83.0636 81.8788 83.0154 81.8645 82.974 81.8377C82.9234 81.8186 82.8809 81.7825 82.8537 81.7356C82.8265 81.6886 82.8161 81.6337 82.8245 81.58L84.4051 61.432L74.0459 74.8998C74.0046 74.9266 73.9564 74.9408 73.9071 74.9408C73.8579 74.9408 73.8097 74.9266 73.7683 74.8998C73.7233 74.8851 73.6825 74.86 73.6491 74.8264C73.6157 74.7928 73.5906 74.7516 73.5761 74.7064L69.646 54.5155L63.5801 70.1742C63.5551 70.2222 63.5186 70.2631 63.4738 70.2932C63.429 70.3232 63.3774 70.3414 63.3238 70.3461C63.2702 70.3402 63.2194 70.3189 63.1777 70.2846C63.136 70.2502 63.1051 70.2044 63.0888 70.1527L56.6811 44.6993L52.5375 67.3389C52.5273 67.3996 52.4958 67.4546 52.4488 67.494C52.4018 67.5334 52.3424 67.5546 52.2812 67.5537C52.22 67.5546 52.1605 67.5334 52.1135 67.494C52.0665 67.4546 52.035 67.3996 52.0248 67.3389L45.6171 32.6707L41.0036 66.7805C40.9866 66.8435 40.9509 66.8998 40.9014 66.942C40.8518 66.9842 40.7906 67.0103 40.726 67.0167C40.6951 67.0167 40.6645 67.0106 40.636 66.9987C40.6075 66.9869 40.5816 66.9694 40.5598 66.9475C40.538 66.9256 40.5207 66.8995 40.5089 66.8708C40.4971 66.8422 40.491 66.8115 40.491 66.7805L36.9668 16.6683C36.9639 16.6344 36.9676 16.6003 36.9779 16.5679C36.9881 16.5355 37.0046 16.5054 37.0265 16.4795C37.0483 16.4535 37.075 16.4321 37.1051 16.4166C37.1352 16.4011 37.168 16.3917 37.2017 16.389C37.2685 16.3882 37.3334 16.4117 37.3844 16.4551C37.4354 16.4985 37.4691 16.5589 37.4794 16.6253L40.8328 64.2244L45.3181 30.8878C45.3181 30.8568 45.3242 30.8261 45.336 30.7974C45.3478 30.7687 45.3651 30.7427 45.387 30.7207C45.4088 30.6988 45.4346 30.6814 45.4631 30.6695C45.4917 30.6577 45.5222 30.6516 45.5531 30.6516C45.6105 30.6556 45.665 30.679 45.7076 30.718C45.7502 30.7569 45.7786 30.8092 45.788 30.8664L52.1957 65.7494L56.2966 43.3246C56.3102 43.2714 56.3403 43.224 56.3826 43.1892C56.4249 43.1544 56.4771 43.1341 56.5316 43.1313C56.5889 43.1329 56.6444 43.1524 56.6903 43.187C56.7362 43.2216 56.7703 43.2697 56.7879 43.3246L63.3665 69.1002L69.4751 53.3341C69.4975 53.2797 69.5364 53.2338 69.5863 53.2029C69.6361 53.1721 69.6944 53.1578 69.7528 53.1623C69.8052 53.1735 69.8533 53.1998 69.8912 53.2379C69.9291 53.276 69.9552 53.3244 69.9664 53.3771L73.8537 74.2554L84.4051 60.5513C84.4486 60.5198 84.5009 60.5029 84.5546 60.5029C84.6082 60.5029 84.6605 60.5198 84.7041 60.5513C84.7582 60.5738 84.8039 60.6129 84.8346 60.663C84.8653 60.7132 84.8794 60.7718 84.875 60.8306L83.2517 81.1289C90.8555 73.5251 99.7836 64.7828 100.659 64.7828C100.737 64.8131 100.803 64.8654 100.852 64.9332C101.257 65.7709 94.8283 81.1504 91.4535 89.0979L115.226 63.494C115.276 63.4589 115.336 63.4401 115.397 63.4401C115.458 63.4401 115.518 63.4589 115.568 63.494C115.606 63.5431 115.627 63.6036 115.627 63.6659C115.627 63.7281 115.606 63.7886 115.568 63.8377L95.4904 98.7637L131.331 67.6396C131.378 67.5974 131.439 67.574 131.502 67.574C131.565 67.574 131.626 67.5974 131.672 67.6396C131.712 67.6921 131.734 67.7562 131.734 67.8222C131.734 67.8882 131.712 67.9523 131.672 68.0048L103.564 107.205L146.282 74.9857C146.329 74.9434 146.39 74.92 146.453 74.92C146.516 74.92 146.577 74.9434 146.624 74.9857C146.648 75.0096 146.667 75.0381 146.68 75.0694C146.693 75.1008 146.699 75.1344 146.699 75.1683C146.699 75.2022 146.693 75.2358 146.68 75.2671C146.667 75.2984 146.648 75.3269 146.624 75.3508L112.983 114.208L159.482 85.0167C159.534 84.9766 159.598 84.955 159.663 84.955C159.729 84.955 159.793 84.9766 159.845 85.0167C159.887 85.064 159.91 85.1251 159.91 85.1885C159.91 85.2519 159.887 85.3131 159.845 85.3604L123.535 119.277L170.46 97.4749C170.52 97.4445 170.589 97.4386 170.653 97.4587C170.717 97.4788 170.77 97.5231 170.802 97.5824C170.84 97.6314 170.861 97.6919 170.861 97.7542C170.861 97.8165 170.84 97.8769 170.802 97.926L134.492 122.477L179.175 112.403C179.24 112.39 179.307 112.403 179.363 112.439C179.419 112.475 179.459 112.532 179.474 112.597C179.484 112.629 179.487 112.663 179.484 112.697C179.481 112.731 179.471 112.763 179.455 112.793C179.439 112.823 179.418 112.85 179.391 112.871C179.365 112.893 179.335 112.909 179.303 112.919L144.766 123.831L144.616 123.809Z" fill="#6EE8FC"/>
<defs>
<linearGradient id="paint0_linear_291_1132" x1="125.199" y1="117.707" x2="265.19" y2="173.631" gradientUnits="userSpaceOnUse">
<stop stop-color="#A31FA9"/>
<stop offset="0.07" stop-color="#8B17A0"/>
<stop offset="0.15" stop-color="#740F98"/>
<stop offset="0.24" stop-color="#640A92"/>
<stop offset="0.34" stop-color="#5B078F"/>
<stop offset="0.48" stop-color="#58068E"/>
<stop offset="0.63" stop-color="#4D22A3"/>
<stop offset="0.94" stop-color="#3168DA"/>
<stop offset="1" stop-color="#2C75E4"/>
</linearGradient>
<linearGradient id="paint1_linear_291_1132" x1="143.847" y1="262.418" x2="247.032" y2="262.418" gradientUnits="userSpaceOnUse">
<stop stop-color="#D4088C"/>
<stop offset="0.23" stop-color="#D4088C"/>
<stop offset="0.51" stop-color="#6EE1F8"/>
<stop offset="0.78" stop-color="#6EE8FC"/>
<stop offset="1" stop-color="#6EE8FC"/>
</linearGradient>
<linearGradient id="paint2_linear_291_1132" x1="187.014" y1="125.764" x2="39.5341" y2="33.934" gradientUnits="userSpaceOnUse">
<stop offset="0.01" stop-color="#25BFEC"/>
<stop offset="0.05" stop-color="#24B4E1"/>
<stop offset="0.22" stop-color="#1F83B0"/>
<stop offset="0.39" stop-color="#1B5A86"/>
<stop offset="0.56" stop-color="#173A66"/>
<stop offset="0.72" stop-color="#152350"/>
<stop offset="0.87" stop-color="#131642"/>
<stop offset="1" stop-color="#13113D"/>
</linearGradient>
<linearGradient id="paint3_linear_291_1132" x1="183.212" y1="124.153" x2="52.3592" y2="42.6565" gradientUnits="userSpaceOnUse">
<stop offset="0.01" stop-color="#70E8FC"/>
<stop offset="0.15" stop-color="#5AB5CF"/>
<stop offset="0.3" stop-color="#4584A3"/>
<stop offset="0.46" stop-color="#335A7E"/>
<stop offset="0.6" stop-color="#253A62"/>
<stop offset="0.75" stop-color="#1B244D"/>
<stop offset="0.88" stop-color="#151641"/>
<stop offset="1" stop-color="#13113D"/>
</linearGradient>
</defs>
</svg>
