<svg width="338" height="360" viewBox="0 0 338 360" fill="none" xmlns="http://www.w3.org/2000/svg">
<g clip-path="url(#clip0_291_1194)">
<path style="mix-blend-mode:lighten" d="M113.19 360C111.587 360.043 110 359.672 108.582 358.923L2.47584 297.622C1.90238 297.348 1.41319 296.925 1.05986 296.397C0.706522 295.869 0.502109 295.255 0.46814 294.62C0.556245 293.812 0.85362 293.041 1.33089 292.383C1.80815 291.725 2.44878 291.203 3.18942 290.868L218.945 166.209C222.077 164.393 226.673 164.212 229.406 165.797L335.524 227.098C336.098 227.372 336.587 227.795 336.94 228.323C337.293 228.851 337.498 229.465 337.532 230.1C337.447 230.909 337.151 231.682 336.674 232.341C336.196 232.999 335.553 233.52 334.811 233.852L119.055 358.511C117.261 359.506 115.241 360.019 113.19 360ZM224.822 165.943C222.982 165.929 221.167 166.383 219.549 167.262L3.79415 291.885C2.45165 292.66 1.6776 293.64 1.6776 294.584C1.71323 295.005 1.86257 295.409 2.10966 295.752C2.35675 296.096 2.69233 296.365 3.08057 296.533L109.186 357.834C111.545 359.201 115.705 359.044 118.451 357.434L334.206 232.775C335.548 232 336.322 231.02 336.322 230.076C336.278 229.657 336.126 229.257 335.879 228.915C335.633 228.573 335.303 228.302 334.919 228.127L228.802 166.862C227.577 166.218 226.206 165.901 224.822 165.943Z" fill="url(#paint0_linear_291_1194)"/>
<path style="mix-blend-mode:lighten" d="M113.19 348.768C111.587 348.805 110.002 348.435 108.582 347.691L2.47584 286.378C1.90077 286.107 1.41019 285.684 1.05655 285.156C0.70292 284.627 0.499532 284.012 0.46814 283.377C0.554723 282.569 0.85165 281.799 1.32922 281.143C1.8068 280.486 2.44827 279.967 3.18942 279.637L218.945 154.977C222.077 153.174 226.673 152.992 229.406 154.578L335.524 215.879C336.098 216.152 336.587 216.575 336.94 217.104C337.293 217.632 337.498 218.246 337.532 218.88C337.444 219.689 337.146 220.46 336.669 221.118C336.192 221.776 335.551 222.298 334.811 222.632L119.055 347.292C117.258 348.277 115.239 348.785 113.19 348.768ZM109.186 346.638C111.545 348.006 115.705 347.849 118.451 346.227L334.206 221.567C335.548 220.793 336.322 219.812 336.322 218.868C336.288 218.446 336.139 218.042 335.892 217.699C335.645 217.355 335.308 217.086 334.919 216.92L228.802 155.607C226.443 154.251 222.295 154.396 219.549 156.018L3.79415 280.678C3.24199 280.912 2.75817 281.282 2.388 281.754C2.01783 282.226 1.7734 282.784 1.6776 283.377C1.7198 283.798 1.87154 284.2 2.11771 284.544C2.36388 284.888 2.69587 285.162 3.08057 285.337L109.186 346.638Z" fill="url(#paint1_linear_291_1194)"/>
<path d="M336.927 200.073L331.521 203.328L229.104 144.157C226.576 142.705 222.162 142.887 219.247 144.569L6.89036 267.256L1.07288 264.654V272.52C1.13442 273.024 1.32328 273.505 1.62165 273.915C1.92002 274.326 2.31807 274.654 2.77822 274.868L108.884 336.182C111.424 337.634 115.838 337.452 118.753 335.77L334.508 211.11C336.153 210.154 336.927 208.932 336.927 207.782V200.073Z" fill="url(#paint2_linear_291_1194)"/>
<path d="M6.89036 267.256L1.07288 264.654V272.52C1.13442 273.025 1.32328 273.505 1.62165 273.915C1.92002 274.326 2.31807 274.654 2.77822 274.868L3.008 275.001C2.70901 274.619 2.53202 274.155 2.50003 273.67V265.743L8.26914 268.405L16.4693 263.673C16.0984 263.221 15.6952 262.786 15.2598 262.366L6.89036 267.256Z" fill="#D4088C"/>
<path d="M331.521 203.328L281.244 174.281L279.732 175.274L330.154 204.405L335.56 201.15V208.92C335.555 209.327 335.469 209.73 335.307 210.104C335.146 210.478 334.911 210.816 334.617 211.098C335.258 210.812 335.811 210.359 336.217 209.787C336.624 209.214 336.869 208.543 336.927 207.843V200.073L331.521 203.328Z" fill="#6EE8FC"/>
<path d="M108.884 328.387L2.77826 267.086C0.250493 265.622 0.564947 263.068 3.49183 261.386L219.247 136.726C222.162 135.032 226.576 134.85 229.104 136.315L335.222 197.616C337.75 199.08 337.435 201.634 334.508 203.316L118.753 327.976C115.838 329.67 111.424 329.852 108.884 328.387Z" fill="url(#paint3_linear_291_1194)"/>
<path d="M108.884 328.387L2.77826 267.086C0.250493 265.622 0.564947 263.068 3.49183 261.386L219.247 136.726C222.162 135.032 226.576 134.85 229.104 136.315L335.222 197.616C337.75 199.08 337.435 201.634 334.508 203.316L118.753 327.976C115.838 329.67 111.424 329.852 108.884 328.387Z" fill="url(#paint4_linear_291_1194)"/>
<path d="M110.359 328.387L4.24169 267.086C1.71393 265.622 2.04047 263.068 4.95527 261.386L220.71 136.726C222.218 135.902 223.893 135.435 225.609 135.358C223.401 135.195 221.193 135.67 219.247 136.726L3.49183 261.386C0.564947 263.068 0.250493 265.622 2.77826 267.086L108.884 328.387C110.422 329.169 112.148 329.504 113.867 329.355C112.64 329.298 111.442 328.967 110.359 328.387Z" fill="#D4088C"/>
<path d="M335.222 197.628L229.104 136.327C227.574 135.548 225.855 135.216 224.145 135.371C225.383 135.419 226.594 135.746 227.689 136.327L333.795 197.628C336.335 199.092 336.008 201.646 333.093 203.328L117.338 327.988C115.83 328.81 114.155 329.278 112.44 329.355C114.631 329.504 116.82 329.03 118.753 327.988L334.508 203.328C337.435 201.646 337.75 199.092 335.222 197.628Z" fill="#6EE8FC"/>
<path d="M120.991 324.623L9.29712 260.091L215.703 140.853L327.397 205.374L120.991 324.623Z" fill="url(#paint5_radial_291_1194)"/>
<path d="M281.921 174.076L269.887 167.117C269.427 166.85 269.488 166.39 270.008 166.088C270.279 165.94 270.58 165.856 270.888 165.844C271.197 165.831 271.504 165.89 271.786 166.015L283.88 172.974C284.328 173.241 284.267 173.7 283.747 174.003C283.471 174.162 283.161 174.251 282.843 174.264C282.525 174.277 282.209 174.212 281.921 174.076Z" fill="url(#paint6_radial_291_1194)"/>
<path d="M60.8321 306.045L52.2692 301.144C51.9778 300.933 51.7397 300.656 51.5738 300.337C51.4079 300.018 51.3189 299.664 51.3137 299.304C51.3137 298.59 51.7491 298.275 52.2692 298.578L60.8321 303.479C61.1244 303.691 61.3639 303.966 61.5317 304.286C61.6996 304.605 61.7913 304.959 61.7997 305.319C61.7997 306.033 61.3643 306.408 60.8321 306.045Z" fill="#58068E"/>
<path d="M206.765 260.418L193.534 268.067C192.965 268.379 192.332 268.556 191.684 268.584C191.035 268.611 190.389 268.488 189.797 268.224L186.313 266.203C185.346 265.646 185.467 264.69 186.579 264.048L199.811 256.399C200.379 256.084 201.012 255.906 201.661 255.878C202.31 255.851 202.956 255.975 203.548 256.242L207.031 258.263C207.987 258.844 207.83 259.812 206.765 260.418Z" fill="#6EE1F8"/>
<path d="M232.249 245.737L219.005 253.374C218.44 253.692 217.809 253.872 217.161 253.899C216.514 253.926 215.869 253.8 215.28 253.531L211.785 251.522C210.829 250.965 210.95 249.997 212.063 249.355L225.294 241.719C225.861 241.4 226.495 241.22 227.144 241.193C227.793 241.166 228.44 241.292 229.031 241.561L232.515 243.57C233.47 244.127 233.349 245.095 232.249 245.737Z" fill="#A31FA9"/>
<path style="mix-blend-mode:lighten" opacity="0.4" d="M327.784 205.144L120.991 324.623L36.6793 195.086L243.472 75.6066L327.784 205.144Z" fill="url(#paint7_linear_291_1194)"/>
<path style="mix-blend-mode:lighten" d="M82.6991 322.771L81.5623 322.372L96.9949 278.451C100.006 269.906 106.453 262.354 113.044 259.667C114.373 259.029 115.824 258.685 117.298 258.66C118.772 258.635 120.233 258.929 121.583 259.522L126.034 261.737C127.182 262.23 128.421 262.479 129.67 262.466C130.92 262.454 132.153 262.18 133.291 261.664C139.338 259.34 145.301 252.72 148.457 244.72C152.086 235.582 159.415 228.115 166.261 226.566L174.122 224.787C180.943 223.237 188.261 215.383 191.538 206.112L206.233 164.393C210.357 152.69 220.444 143.685 228.257 144.714L236.615 145.827C243.75 146.784 253.426 137.997 257.321 127.02L282.961 54.705L284.098 55.1165L258.457 127.431C254.321 139.086 244.21 148.067 236.457 147.038L228.1 145.924C220.916 144.944 211.252 153.791 207.37 164.793L192.687 206.56C189.289 216.242 181.596 224.387 174.4 226.009L166.539 227.8C160.056 229.265 153.09 236.43 149.606 245.216C146.317 253.458 140.1 260.417 133.738 262.838C132.442 263.414 131.039 263.712 129.62 263.712C128.201 263.712 126.798 263.414 125.502 262.838L121.051 260.623C119.854 260.109 118.56 259.859 117.258 259.89C115.955 259.921 114.675 260.233 113.504 260.805C107.215 263.359 101.035 270.62 98.1439 278.862L82.6991 322.771Z" fill="url(#paint8_linear_291_1194)"/>
<path opacity="0.4" d="M223.553 164.684L51.725 263.927V253.035C51.8201 251.289 52.3252 249.59 53.1994 248.076C54.0736 246.562 55.2922 245.275 56.7563 244.321L67.1698 238.269C68.6316 237.313 69.8479 236.026 70.7199 234.512C71.592 232.998 72.0953 231.3 72.189 229.555V210.638C72.2841 208.892 72.7893 207.193 73.6634 205.679C74.5376 204.165 75.7562 202.879 77.2204 201.924L88.7948 195.244C91.5645 193.634 93.8141 194.941 93.8141 198.148V207.516C93.8141 210.723 96.0637 212.018 98.8455 210.421L108.11 205.071C109.57 204.114 110.786 202.826 111.658 201.313C112.529 199.799 113.034 198.102 113.129 196.357V154.675C113.222 152.928 113.727 151.229 114.601 149.714C115.475 148.2 116.695 146.914 118.16 145.961L127.135 140.769C128.6 139.815 129.82 138.529 130.694 137.015C131.568 135.501 132.073 133.801 132.166 132.054V121.162C132.262 119.417 132.766 117.72 133.638 116.206C134.51 114.692 135.725 113.405 137.185 112.448L147.889 106.263C150.671 104.666 152.92 105.961 152.92 109.168V113.005C152.92 116.224 155.17 117.519 157.952 115.909L166.636 110.899C169.405 109.289 171.667 110.596 171.667 113.803C171.667 117.011 173.916 118.306 176.686 116.708L184.511 112.182C185.973 111.228 187.189 109.944 188.061 108.431C188.934 106.919 189.437 105.223 189.531 103.48V56.8956C189.629 55.1502 190.135 53.4524 191.009 51.9387C191.883 50.4251 193.1 49.1381 194.562 48.1815L202.097 43.8245C203.563 42.8722 204.783 41.5862 205.658 40.0717C206.532 38.5572 207.036 36.8571 207.128 35.1104V13.0832C207.224 11.3387 207.728 9.64113 208.6 8.12745C209.472 6.61377 210.687 5.32638 212.147 4.36913L218.533 0.738267C221.303 -0.871415 223.553 0.435687 223.553 3.64295V164.684Z" fill="#2142A1"/>
<path d="M145.881 106.275H141.551C141.351 106.272 141.161 106.19 141.02 106.048C140.88 105.905 140.801 105.713 140.802 105.513C140.801 105.313 140.88 105.121 141.02 104.978C141.161 104.835 141.351 104.754 141.551 104.75H145.881C146.081 104.754 146.272 104.835 146.412 104.978C146.553 105.121 146.631 105.313 146.631 105.513C146.631 105.713 146.553 105.905 146.412 106.048C146.272 106.19 146.081 106.272 145.881 106.275Z" fill="white"/>
<path d="M151.493 106.275H149.461C149.259 106.275 149.065 106.195 148.922 106.052C148.78 105.909 148.699 105.715 148.699 105.513C148.699 105.311 148.78 105.117 148.922 104.974C149.065 104.831 149.259 104.75 149.461 104.75H151.493C151.695 104.75 151.889 104.831 152.032 104.974C152.175 105.117 152.255 105.311 152.255 105.513C152.255 105.715 152.175 105.909 152.032 106.052C151.889 106.195 151.695 106.275 151.493 106.275Z" fill="white"/>
<path d="M143.45 109.059H141.551C141.351 109.056 141.161 108.974 141.02 108.831C140.88 108.689 140.801 108.497 140.802 108.296C140.801 108.096 140.88 107.904 141.02 107.762C141.161 107.619 141.351 107.537 141.551 107.534H143.45C143.651 107.537 143.843 107.618 143.986 107.761C144.128 107.903 144.209 108.095 144.212 108.296C144.212 108.499 144.132 108.693 143.989 108.836C143.846 108.979 143.652 109.059 143.45 109.059Z" fill="white"/>
<path d="M149.062 109.059H147.03C146.828 109.059 146.634 108.979 146.491 108.836C146.349 108.693 146.268 108.499 146.268 108.296C146.271 108.095 146.353 107.903 146.495 107.761C146.637 107.618 146.829 107.537 147.03 107.534H149.062C149.264 107.534 149.458 107.614 149.601 107.757C149.744 107.9 149.824 108.094 149.824 108.296C149.824 108.499 149.744 108.693 149.601 108.836C149.458 108.979 149.264 109.059 149.062 109.059Z" fill="white"/>
<path d="M148.699 111.855H141.551C141.351 111.852 141.161 111.77 141.02 111.627C140.88 111.485 140.801 111.292 140.802 111.092C140.801 110.892 140.88 110.7 141.02 110.557C141.161 110.415 141.351 110.333 141.551 110.33H148.699C148.901 110.33 149.095 110.41 149.238 110.553C149.381 110.696 149.461 110.89 149.461 111.092C149.461 111.294 149.381 111.488 149.238 111.631C149.095 111.774 148.901 111.855 148.699 111.855Z" fill="white"/>
<path d="M154.323 111.855H152.291C152.089 111.855 151.895 111.774 151.753 111.631C151.61 111.488 151.529 111.294 151.529 111.092C151.529 110.89 151.61 110.696 151.753 110.553C151.895 110.41 152.089 110.33 152.291 110.33H154.323C154.525 110.33 154.719 110.41 154.862 110.553C155.005 110.696 155.085 110.89 155.085 111.092C155.085 111.294 155.005 111.488 154.862 111.631C154.719 111.774 154.525 111.855 154.323 111.855Z" fill="white"/>
<path d="M79.6271 210.796H72.4792C72.2772 210.796 72.0834 210.715 71.9405 210.572C71.7976 210.429 71.7173 210.235 71.7173 210.033C71.7173 209.831 71.7976 209.637 71.9405 209.494C72.0834 209.351 72.2772 209.271 72.4792 209.271H79.6271C79.8292 209.271 80.023 209.351 80.1659 209.494C80.3088 209.637 80.3891 209.831 80.3891 210.033C80.3891 210.235 80.3088 210.429 80.1659 210.572C80.023 210.715 79.8292 210.796 79.6271 210.796Z" fill="white"/>
<path d="M85.2028 210.796H83.1709C82.9688 210.796 82.775 210.715 82.6321 210.572C82.4892 210.429 82.4089 210.235 82.4089 210.033C82.4089 209.831 82.4892 209.637 82.6321 209.494C82.775 209.351 82.9688 209.271 83.1709 209.271H85.2028C85.4049 209.271 85.5987 209.351 85.7416 209.494C85.8845 209.637 85.9647 209.831 85.9647 210.033C85.9647 210.235 85.8845 210.429 85.7416 210.572C85.5987 210.715 85.4049 210.796 85.2028 210.796Z" fill="white"/>
<path d="M77.2082 213.591H72.4913C72.2893 213.591 72.0954 213.511 71.9525 213.368C71.8096 213.225 71.7294 213.031 71.7294 212.829C71.7294 212.627 71.8096 212.433 71.9525 212.29C72.0954 212.147 72.2893 212.067 72.4913 212.067H77.2082C77.4103 212.067 77.6041 212.147 77.747 212.29C77.8899 212.433 77.9702 212.627 77.9702 212.829C77.9702 213.031 77.8899 213.225 77.747 213.368C77.6041 213.511 77.4103 213.591 77.2082 213.591Z" fill="white"/>
<path d="M82.7718 213.591H80.752C80.5499 213.591 80.3561 213.511 80.2132 213.368C80.0703 213.225 79.99 213.031 79.99 212.829C79.99 212.627 80.0703 212.433 80.2132 212.29C80.3561 212.147 80.5499 212.067 80.752 212.067H82.7718C82.9738 212.067 83.1676 212.147 83.3105 212.29C83.4534 212.433 83.5337 212.627 83.5337 212.829C83.5337 213.031 83.4534 213.225 83.3105 213.368C83.1676 213.511 82.9738 213.591 82.7718 213.591Z" fill="white"/>
<path d="M202.52 34.239H198.154C197.951 34.2359 197.757 34.1528 197.614 34.0079C197.472 33.863 197.392 33.6678 197.392 33.4645C197.392 33.2622 197.472 33.0683 197.615 32.9253C197.758 32.7823 197.952 32.702 198.154 32.702H202.484C202.686 32.702 202.88 32.7823 203.023 32.9253C203.165 33.0683 203.246 33.2622 203.246 33.4645C203.246 33.6618 203.171 33.8518 203.036 33.9957C202.902 34.1397 202.717 34.2267 202.52 34.239Z" fill="white"/>
<path d="M208.156 34.239H206.112C205.909 34.2359 205.715 34.1528 205.573 34.0079C205.43 33.863 205.35 33.6678 205.35 33.4645C205.353 33.2632 205.435 33.0711 205.577 32.9287C205.719 32.7864 205.911 32.7051 206.112 32.702H208.156C208.358 32.702 208.552 32.7823 208.695 32.9253C208.838 33.0683 208.918 33.2622 208.918 33.4645C208.918 33.6678 208.838 33.863 208.696 34.0079C208.553 34.1528 208.359 34.2359 208.156 34.239Z" fill="white"/>
<path d="M200.645 37.1921H198.227C198.024 37.1921 197.831 37.1118 197.688 36.9688C197.545 36.8258 197.465 36.6319 197.465 36.4297C197.465 36.2274 197.545 36.0335 197.688 35.8905C197.831 35.7475 198.024 35.6672 198.227 35.6672H200.645C200.848 35.6672 201.041 35.7475 201.184 35.8905C201.327 36.0335 201.407 36.2274 201.407 36.4297C201.407 36.6319 201.327 36.8258 201.184 36.9688C201.041 37.1118 200.848 37.1921 200.645 37.1921Z" fill="white"/>
<path d="M207.031 37.1921H204.201C203.999 37.1921 203.805 37.1118 203.663 36.9688C203.52 36.8258 203.439 36.6319 203.439 36.4297C203.439 36.2274 203.52 36.0335 203.663 35.8905C203.805 35.7475 203.999 35.6672 204.201 35.6672H206.995C207.198 35.6672 207.393 35.7471 207.538 35.8897C207.683 36.0324 207.766 36.2263 207.769 36.4297C207.766 36.6268 207.688 36.8155 207.551 36.9572C207.414 37.0989 207.228 37.1829 207.031 37.1921Z" fill="white"/>
<path d="M213.744 34.239H211.712C211.509 34.2359 211.315 34.1528 211.172 34.0079C211.03 33.863 210.95 33.6678 210.95 33.4645C210.95 33.2622 211.03 33.0683 211.173 32.9253C211.316 32.7823 211.51 32.702 211.712 32.702H213.744C213.947 32.7019 214.142 32.7819 214.287 32.9245C214.432 33.0672 214.515 33.2611 214.518 33.4645C214.518 33.6699 214.436 33.8669 214.291 34.0122C214.146 34.1574 213.949 34.239 213.744 34.239Z" fill="white"/>
</g>
<defs>
<linearGradient id="paint0_linear_291_1194" x1="0.46814" y1="262.366" x2="337.532" y2="262.366" gradientUnits="userSpaceOnUse">
<stop stop-color="#071033"/>
<stop offset="0.09" stop-color="#380E48"/>
<stop offset="0.2" stop-color="#6F0C60"/>
<stop offset="0.3" stop-color="#9B0A73"/>
<stop offset="0.39" stop-color="#BA0981"/>
<stop offset="0.46" stop-color="#CD0889"/>
<stop offset="0.52" stop-color="#D4088C"/>
<stop offset="0.57" stop-color="#C70886"/>
<stop offset="0.66" stop-color="#A50A78"/>
<stop offset="0.79" stop-color="#6F0C60"/>
<stop offset="0.94" stop-color="#240F3F"/>
<stop offset="1" stop-color="#071033"/>
</linearGradient>
<linearGradient id="paint1_linear_291_1194" x1="0.46814" y1="251.147" x2="337.532" y2="251.147" gradientUnits="userSpaceOnUse">
<stop stop-color="#071033"/>
<stop offset="0.1" stop-color="#244C6B"/>
<stop offset="0.21" stop-color="#3F839E"/>
<stop offset="0.3" stop-color="#54AFC7"/>
<stop offset="0.39" stop-color="#63CEE4"/>
<stop offset="0.46" stop-color="#6DE1F6"/>
<stop offset="0.52" stop-color="#70E8FC"/>
<stop offset="0.57" stop-color="#6ADBF0"/>
<stop offset="0.66" stop-color="#59B9D1"/>
<stop offset="0.78" stop-color="#3F829E"/>
<stop offset="0.93" stop-color="#1A3858"/>
<stop offset="1" stop-color="#071033"/>
</linearGradient>
<linearGradient id="paint2_linear_291_1194" x1="-66.2576" y1="240.194" x2="419.968" y2="240.194" gradientUnits="userSpaceOnUse">
<stop stop-color="#8D139B"/>
<stop offset="0.17" stop-color="#851BA1"/>
<stop offset="0.43" stop-color="#6E33B2"/>
<stop offset="0.76" stop-color="#4958CD"/>
<stop offset="1" stop-color="#2979E4"/>
</linearGradient>
<linearGradient id="paint3_linear_291_1194" x1="95.0573" y1="208.525" x2="153.154" y2="308.623" gradientUnits="userSpaceOnUse">
<stop stop-color="#8D139B"/>
<stop offset="0.17" stop-color="#851BA1"/>
<stop offset="0.43" stop-color="#6E33B2"/>
<stop offset="0.76" stop-color="#4958CD"/>
<stop offset="1" stop-color="#2979E4"/>
</linearGradient>
<linearGradient id="paint4_linear_291_1194" x1="95.0573" y1="208.525" x2="153.154" y2="308.623" gradientUnits="userSpaceOnUse">
<stop stop-color="#8D139B"/>
<stop offset="0.17" stop-color="#851BA1"/>
<stop offset="0.43" stop-color="#6E33B2"/>
<stop offset="0.76" stop-color="#4958CD"/>
<stop offset="1" stop-color="#2979E4"/>
</linearGradient>
<radialGradient id="paint5_radial_291_1194" cx="0" cy="0" r="1" gradientUnits="userSpaceOnUse" gradientTransform="translate(3.76362 115.241) rotate(30.2735) scale(303.879 302.407)">
<stop offset="0.01" stop-color="#2C35A2"/>
<stop offset="0.16" stop-color="#252C88"/>
<stop offset="0.4" stop-color="#1B2167"/>
<stop offset="0.62" stop-color="#15194F"/>
<stop offset="0.83" stop-color="#101540"/>
<stop offset="1" stop-color="#0F133B"/>
</radialGradient>
<radialGradient id="paint6_radial_291_1194" cx="0" cy="0" r="1" gradientUnits="userSpaceOnUse" gradientTransform="translate(232.611 164.042) rotate(29.9035) scale(39.5102 34.1501)">
<stop offset="0.01" stop-color="#2C35A2"/>
<stop offset="0.16" stop-color="#252C88"/>
<stop offset="0.4" stop-color="#1B2167"/>
<stop offset="0.62" stop-color="#15194F"/>
<stop offset="0.83" stop-color="#101540"/>
<stop offset="1" stop-color="#0F133B"/>
</radialGradient>
<linearGradient id="paint7_linear_291_1194" x1="216.405" y1="257.513" x2="141.633" y2="132.1" gradientUnits="userSpaceOnUse">
<stop stop-color="#2C75E4"/>
<stop offset="1" stop-color="#0C0F38"/>
</linearGradient>
<linearGradient id="paint8_linear_291_1194" x1="81.5623" y1="188.768" x2="284.11" y2="188.768" gradientUnits="userSpaceOnUse">
<stop stop-color="#071033"/>
<stop offset="0.1" stop-color="#244C6B"/>
<stop offset="0.21" stop-color="#3F839E"/>
<stop offset="0.3" stop-color="#54AFC7"/>
<stop offset="0.39" stop-color="#63CEE4"/>
<stop offset="0.46" stop-color="#6DE1F6"/>
<stop offset="0.52" stop-color="#70E8FC"/>
<stop offset="0.57" stop-color="#6ADBF0"/>
<stop offset="0.66" stop-color="#59B9D1"/>
<stop offset="0.78" stop-color="#3F829E"/>
<stop offset="0.93" stop-color="#1A3858"/>
<stop offset="1" stop-color="#071033"/>
</linearGradient>
<clipPath id="clip0_291_1194">
<rect width="337.064" height="360" fill="white" transform="translate(0.46814)"/>
</clipPath>
</defs>
</svg>
