<svg width="80" height="80" viewBox="0 0 80 80" fill="none" xmlns="http://www.w3.org/2000/svg">
<path d="M70 66.6667C70 67.5508 69.6488 68.3986 69.0237 69.0237C68.3986 69.6488 67.5507 70 66.6667 70H13.3333C12.4493 70 11.6014 69.6488 10.9763 69.0237C10.3512 68.3986 10 67.5508 10 66.6667V31.63C9.99965 31.1221 10.1154 30.6208 10.3384 30.1644C10.5614 29.708 10.8857 29.3086 11.2867 28.9967L37.9533 8.2567C38.5385 7.80151 39.2587 7.55438 40 7.55438C40.7413 7.55438 41.4615 7.80151 42.0467 8.2567L68.7133 28.9967C69.1143 29.3086 69.4386 29.708 69.6616 30.1644C69.8846 30.6208 70.0004 31.1221 70 31.63V66.6667Z" fill="white"/>
<path d="M39.13 27.88L30.655 33.94C29.935 34.45 29.5 35.275 29.5 36.16C29.5 38.395 32.02 39.685 33.835 38.395L40 34L46.165 38.395C47.98 39.7 50.5 38.395 50.5 36.16C50.5 35.275 50.065 34.435 49.345 33.925L40.87 27.865C40.345 27.505 39.655 27.505 39.13 27.88Z" fill="currentColor"/>
<path d="M39.13 38.38L30.655 44.425C29.935 44.95 29.5 45.775 29.5 46.66C29.5 48.895 32.02 50.2 33.835 48.895L40 44.5L46.165 48.895C47.98 50.2 50.5 48.895 50.5 46.66C50.5 45.775 50.065 44.935 49.345 44.425L40.87 38.365C40.345 38.005 39.655 38.005 39.13 38.38Z" fill="currentColor"/>
</svg>
