<svg width="318" height="360" viewBox="0 0 318 360" fill="none" xmlns="http://www.w3.org/2000/svg">
<g clip-path="url(#clip0_291_1300)">
<g style="mix-blend-mode:lighten">
<path d="M158.987 281.703C158.046 281.726 157.115 281.505 156.285 281.061L95.3399 245.787C94.982 245.625 94.6754 245.368 94.4537 245.044C94.2319 244.719 94.1036 244.34 94.0828 243.947C94.1326 243.461 94.3084 242.995 94.5929 242.598C94.8773 242.2 95.2604 241.883 95.7044 241.68L155.832 206.897C156.766 206.369 157.812 206.071 158.883 206.03C159.954 205.988 161.02 206.203 161.992 206.657L222.937 241.932C223.295 242.093 223.601 242.35 223.823 242.674C224.045 242.999 224.173 243.378 224.194 243.771C224.147 244.258 223.972 244.725 223.687 245.123C223.402 245.521 223.018 245.837 222.572 246.039L162.432 280.834C161.375 281.41 160.19 281.709 158.987 281.703ZM159.327 206.985C158.287 206.975 157.262 207.231 156.348 207.728L96.2198 242.511C95.4907 242.939 95.0633 243.481 95.0633 243.96C95.0864 244.18 95.1672 244.391 95.2974 244.57C95.4276 244.749 95.6027 244.891 95.805 244.98L156.75 280.255C157.578 280.621 158.48 280.791 159.385 280.752C160.289 280.712 161.173 280.465 161.967 280.028L222.094 245.232C222.824 244.817 223.251 244.275 223.251 243.784C223.227 243.562 223.144 243.35 223.012 243.171C222.879 242.992 222.701 242.851 222.497 242.763L161.552 207.489C160.866 207.133 160.099 206.959 159.327 206.985Z" fill="#8686F2"/>
</g>
<path d="M255.244 90.3779H215.331L170.892 64.6654C165.172 61.3648 155.178 61.7805 148.566 65.5977L105.736 90.3779H65.8479V206.116C65.6845 208.358 66.9291 210.525 69.6822 212.112L150.137 258.725C155.857 262.025 165.864 261.61 172.464 257.793L249.738 213.082C253.17 211.092 255.006 208.585 255.182 206.153L255.244 90.3779Z" fill="url(#paint0_linear_291_1300)"/>
<path d="M254.088 90.3779V207.388C253.968 208.663 253.488 209.878 252.705 210.89C254.101 209.663 254.996 207.963 255.219 206.116V90.3779H254.088Z" fill="#6EE8FC"/>
<path d="M150.175 142.937L69.7199 96.3242C64 93.0109 64.6914 87.2284 71.3164 83.4112L148.591 38.701C155.203 34.9216 165.198 34.4555 170.917 37.7687L251.373 84.3813C257.092 87.6945 256.401 93.477 249.764 97.3068L172.489 142.017C165.902 145.834 155.895 146.25 150.175 142.937Z" fill="url(#paint1_linear_291_1300)"/>
<path d="M151.772 142.937L71.3164 96.3242C65.5965 93.0109 66.2879 87.2284 72.9255 83.4112L150.2 38.701C153.825 36.715 157.874 35.6346 162.004 35.5515C157.337 35.3788 152.708 36.4665 148.604 38.701L71.3289 83.4112C64.7291 87.1906 64.0125 93.0109 69.7324 96.3242L150.188 142.937C153.431 144.613 157.067 145.379 160.71 145.154C157.594 145.159 154.525 144.397 151.772 142.937Z" fill="#D4088C"/>
<path d="M251.385 84.3813L170.93 37.7688C167.675 36.0858 164.026 35.3195 160.37 35.5515C163.472 35.5626 166.525 36.3232 169.271 37.7688L249.726 84.3813C255.446 87.6946 254.754 93.477 248.117 97.3068L170.829 142.017C167.22 143.995 163.188 145.071 159.075 145.154C163.746 145.331 168.379 144.248 172.489 142.017L249.764 97.3068C256.389 93.477 257.105 87.6946 251.385 84.3813Z" fill="#6EE8FC"/>
<path d="M152.828 129.532L92.8885 94.8376C88.6268 92.318 89.1171 88.0725 94.0827 85.2253L151.621 51.9415C156.536 49.0943 163.978 48.7794 168.24 51.2486L228.154 85.9182C232.415 88.4378 231.925 92.6833 226.972 95.5305L169.447 128.827C164.544 131.661 157.089 131.976 152.828 129.532Z" fill="url(#paint2_linear_291_1300)"/>
<path d="M154.952 118.736L111.531 93.6156C108.451 91.8267 108.841 88.7024 112.399 86.6489L154.085 62.5238C157.642 60.4703 163.035 60.2435 166.128 62.0324L209.536 87.1528C212.628 88.9291 212.239 92.0534 208.668 94.1195L167.058 118.194C163.425 120.298 158.032 120.512 154.952 118.736Z" fill="#6DE0F6"/>
<mask id="mask0_291_1300" style="mask-type:luminance" maskUnits="userSpaceOnUse" x="109" y="60" width="103" height="60">
<path d="M154.952 118.736L111.531 93.6156C108.451 91.8267 108.841 88.7024 112.399 86.6489L154.085 62.5238C157.642 60.4703 163.035 60.2435 166.128 62.0324L209.536 87.1528C212.628 88.9291 212.239 92.0534 208.668 94.1195L167.058 118.194C163.425 120.298 158.032 120.512 154.952 118.736Z" fill="white"/>
</mask>
<g mask="url(#mask0_291_1300)">
<path d="M112.386 90.0377L154.085 65.9126C157.642 63.8591 163.036 63.6323 166.128 65.4213L209.561 90.5416C210.16 90.8809 210.675 91.3501 211.07 91.9148C212.113 90.2015 211.673 88.3622 209.561 87.1402L166.128 62.0198C163.036 60.2309 157.642 60.4576 154.085 62.5237L112.386 86.6992C109.608 88.2992 108.791 90.4786 109.998 92.2928C110.596 91.3546 111.416 90.5798 112.386 90.0377Z" fill="#267FE5"/>
<path d="M112.386 94.1447L154.085 70.0196C157.642 67.9535 163.035 67.7267 166.128 69.5156L209.561 94.6486C210.034 94.9318 210.458 95.2891 210.818 95.7068C212.188 93.9053 211.824 91.8645 209.561 90.5417L166.128 65.4213C163.035 63.6324 157.642 63.8591 154.085 65.9126L112.386 90.0377C109.445 91.7385 108.703 94.1573 110.249 95.9462C110.835 95.2097 111.562 94.5973 112.386 94.1447Z" fill="#25BFEC"/>
<path d="M110.664 100.557C111.169 100.025 111.749 99.5712 112.386 99.2091L154.085 75.084C157.642 73.0179 163.035 72.7911 166.128 74.58L209.561 99.713C209.86 99.8921 210.142 100.099 210.403 100.33C212.239 98.4154 212.025 96.1352 209.561 94.7116L166.128 69.5786C163.035 67.7897 157.642 68.0165 154.085 70.0825L112.386 94.2077C109.231 95.984 108.565 98.6674 110.664 100.557Z" fill="#18D0F7"/>
</g>
<path d="M255.244 71.166H215.331L170.892 45.4535C165.172 42.1402 155.178 42.556 148.566 46.3858L105.736 71.166H65.8479V79.4303C65.6845 81.6727 66.9291 83.827 69.6822 85.4269L150.137 132.039C155.857 135.353 165.864 134.937 172.464 131.107L249.738 86.3969C253.17 84.4191 255.006 81.8995 255.182 79.4807L255.244 71.166Z" fill="url(#paint3_linear_291_1300)"/>
<path d="M254.088 71.166V80.7027C253.967 81.974 253.488 83.1846 252.705 84.1923C254.098 82.9683 254.993 81.2732 255.219 79.4303V71.166H254.088Z" fill="#6EE8FC"/>
<path d="M150.175 123.725L69.7199 77.1123C64 73.799 64.6914 68.0165 71.3164 64.1867L148.591 19.4765C155.203 15.6971 165.198 15.2436 170.917 18.5568L251.373 65.1694C257.092 68.4826 256.401 74.2651 249.764 78.0823L172.489 122.805C165.902 126.622 155.895 127.013 150.175 123.725Z" fill="url(#paint4_linear_291_1300)"/>
<path d="M151.772 123.725L71.3164 77.1122C65.5965 73.7989 66.2879 68.0165 72.9255 64.1867L150.2 19.4764C153.828 17.5004 157.876 16.4247 162.004 16.3395C157.338 16.1685 152.711 17.2516 148.604 19.4764L71.3289 64.1867C64.7291 67.9661 64.0125 73.7989 69.7324 77.1122L150.188 123.725C153.433 125.395 157.067 126.161 160.71 125.942C157.595 125.941 154.527 125.18 151.772 123.725Z" fill="#D4088C"/>
<path d="M251.385 65.1694L170.93 18.5568C167.675 16.8739 164.026 16.1076 160.37 16.3396C163.473 16.3441 166.527 17.1051 169.271 18.5568L249.726 65.1694C255.446 68.4826 254.754 74.2651 248.117 78.0823L170.829 122.805C167.216 124.771 163.186 125.846 159.075 125.942C163.746 126.113 168.377 125.03 172.489 122.805L249.764 78.0823C256.389 74.2651 257.105 68.4826 251.385 65.1694Z" fill="#6EE8FC"/>
<path d="M152.828 110.295L92.8885 75.6257C88.6268 73.1061 89.1171 68.8606 94.0827 66.0134L151.621 32.7295C156.536 29.8824 163.978 29.5674 168.24 32.0367L228.154 66.7063C232.415 69.2259 231.925 73.4714 226.972 76.3186L169.447 109.602C164.544 112.45 157.089 112.765 152.828 110.295Z" fill="url(#paint5_linear_291_1300)"/>
<path d="M154.952 99.5114L111.531 74.4037C108.451 72.6147 108.841 69.4904 112.399 67.4244L154.085 43.3118C157.642 41.2584 163.035 41.0316 166.128 42.8079L209.536 67.9283C212.628 69.7172 212.239 72.8415 208.668 74.895L167.058 99.0201C163.425 101.074 158.032 101.3 154.952 99.5114Z" fill="#6DE0F6"/>
<mask id="mask1_291_1300" style="mask-type:luminance" maskUnits="userSpaceOnUse" x="109" y="41" width="103" height="60">
<path d="M154.952 99.5114L111.531 74.4037C108.451 72.6147 108.841 69.4904 112.399 67.4244L154.085 43.3118C157.642 41.2584 163.035 41.0316 166.128 42.8079L209.536 67.9283C212.628 69.7172 212.239 72.8415 208.668 74.895L167.058 99.0201C163.425 101.074 158.032 101.3 154.952 99.5114Z" fill="white"/>
</mask>
<g mask="url(#mask1_291_1300)">
<path d="M112.386 70.826L154.085 46.7008C157.642 44.6348 163.035 44.4206 166.128 46.1969L209.561 71.3929C210.163 71.7283 210.679 72.1982 211.07 72.7661C212.113 71.0528 211.673 69.2134 209.561 67.9914L166.128 42.8711C163.035 41.0822 157.642 41.3089 154.085 43.3624L112.386 67.4245C109.608 69.0371 108.791 71.2669 109.998 73.0306C110.602 72.1109 111.422 71.3539 112.386 70.826Z" fill="#267FE5"/>
<path d="M112.386 74.9328L154.085 50.8077C157.642 48.7416 163.035 48.5148 166.128 50.3037L209.561 75.4241C210.037 75.7077 210.462 76.0697 210.818 76.4949C212.188 74.6808 211.824 72.64 209.561 71.3298L166.128 46.1338C163.035 44.3575 157.642 44.5717 154.085 46.6377L112.386 70.8259C109.445 72.5266 108.703 74.9328 110.249 76.7343C110.835 75.9978 111.562 75.3854 112.386 74.9328Z" fill="#25BFEC"/>
<path d="M110.664 81.2822C111.169 80.7505 111.749 80.2963 112.386 79.9342L154.085 55.809C157.642 53.743 163.035 53.5162 166.128 55.3051L209.561 80.4003C209.861 80.5836 210.143 80.7944 210.403 81.0302C212.239 79.1153 212.025 76.8351 209.561 75.3989L166.128 50.2785C163.035 48.4896 157.642 48.7164 154.085 50.7824L112.386 74.9076C109.231 76.7721 108.565 79.4555 110.664 81.2822Z" fill="#18D0F7"/>
</g>
<path d="M255.244 54.8012H215.331L170.892 29.0888C165.172 25.7755 155.178 26.1912 148.566 30.021L105.736 54.8012H65.8479V63.0529C65.6845 65.2954 66.9291 67.4622 69.6822 69.0496L150.137 115.662C155.857 118.963 165.864 118.547 172.464 114.73L249.738 70.0196C253.17 68.0291 255.006 65.5221 255.182 63.0907L255.244 54.8012Z" fill="url(#paint6_linear_291_1300)"/>
<path d="M254.088 54.8012V64.3253C253.968 65.6005 253.488 66.8152 252.705 67.8275C254.101 66.6004 254.996 64.9003 255.219 63.0529V54.8012H254.088Z" fill="#6EE8FC"/>
<path d="M150.175 107.36L69.7199 60.7475C64 57.4468 64.6914 51.6517 71.3164 47.8345L148.591 3.12432C155.203 -0.655079 165.198 -1.10861 170.917 2.19206L251.373 48.8046C257.092 52.1179 256.401 57.9003 249.764 61.7175L172.489 106.428C165.902 110.258 155.895 110.636 150.175 107.36Z" fill="url(#paint7_linear_291_1300)"/>
<path d="M151.772 107.36L71.3164 60.7475C65.5965 57.4468 66.2879 51.6517 72.9255 47.8345L150.2 3.12431C153.825 1.13836 157.874 0.0579738 162.004 -0.025189C157.337 -0.191717 152.71 0.895683 148.604 3.12431L71.3289 47.8345C64.7291 51.6139 64.0125 57.4468 69.7324 60.7475L150.188 107.36C153.433 109.03 157.067 109.796 160.71 109.577C157.596 109.57 154.529 108.809 151.772 107.36Z" fill="#D4088C"/>
<path d="M251.385 48.8045L170.93 2.192C167.674 0.512785 164.024 -0.249192 160.37 -0.0126458C163.472 -0.0119806 166.526 0.744651 169.271 2.192L249.726 48.8045C255.446 52.1178 254.754 57.9003 248.117 61.7175L170.829 106.428C167.219 108.404 163.188 109.484 159.075 109.577C163.747 109.744 168.378 108.656 172.489 106.428L249.764 61.7175C256.389 57.9003 257.105 52.1178 251.385 48.8045Z" fill="#6EE8FC"/>
<path d="M152.828 93.9306L92.8885 59.2609C88.6268 56.7413 89.1171 52.4832 94.0827 49.636L151.621 16.3522C156.536 13.505 163.978 13.2027 168.24 15.6593L228.154 50.3289C232.415 52.8485 231.925 57.1067 226.972 59.9538L169.447 93.2377C164.544 96.0848 157.089 96.3872 152.828 93.9306Z" fill="url(#paint8_linear_291_1300)"/>
<path d="M154.952 83.1467L111.531 58.0263C108.451 56.2374 108.841 53.1257 112.399 51.0596L154.085 26.9471C157.642 24.881 163.035 24.6542 166.128 26.4431L209.536 51.5635C212.628 53.3524 212.239 56.4641 208.668 58.5302L167.058 82.6427C163.425 84.7088 158.032 84.9356 154.952 83.1467Z" fill="#6DE0F6"/>
<mask id="mask2_291_1300" style="mask-type:luminance" maskUnits="userSpaceOnUse" x="109" y="25" width="103" height="60">
<path d="M154.952 83.1467L111.531 58.0263C108.451 56.2374 108.841 53.1257 112.399 51.0596L154.085 26.9471C157.642 24.881 163.035 24.6542 166.128 26.4431L209.536 51.5635C212.628 53.3524 212.239 56.4641 208.668 58.5302L167.058 82.6427C163.425 84.7088 158.032 84.9356 154.952 83.1467Z" fill="white"/>
</mask>
<g mask="url(#mask2_291_1300)">
<path d="M112.386 54.461L154.085 30.3359C157.642 28.2698 163.036 28.043 166.128 29.832L209.561 55.0279C210.162 55.359 210.678 55.8246 211.07 56.3885C212.113 54.6878 211.673 52.8485 209.561 51.6265L166.128 26.4305C163.036 24.6416 157.642 24.8683 154.085 26.9344L112.386 51.0596C109.608 52.6595 108.791 54.839 109.998 56.6657C110.599 55.7432 111.42 54.9855 112.386 54.461Z" fill="#267FE5"/>
<path d="M112.386 58.5554L154.085 34.4303C157.642 32.3642 163.035 32.15 166.128 33.9263L209.561 59.0593C210.034 59.3425 210.458 59.6998 210.818 60.1175C212.188 58.316 211.824 56.2752 209.561 54.965L166.128 29.769C163.035 27.9801 157.642 28.2069 154.085 30.2729L112.386 54.3981C109.445 56.0988 108.703 58.505 110.249 60.3065C110.837 59.5853 111.564 58.9898 112.386 58.5554Z" fill="#25BFEC"/>
<path d="M110.664 64.9047C111.172 64.3767 111.752 63.923 112.386 63.5568L154.085 39.4316C157.642 37.3656 163.035 37.1514 166.128 38.9403L209.561 64.0229C209.86 64.202 210.142 64.4086 210.403 64.6402C212.239 62.7253 212.025 60.4577 209.561 59.0215L166.128 33.8885C163.035 32.1122 157.642 32.3264 154.085 34.3924L112.386 58.5176C109.231 60.3947 108.565 63.078 110.664 64.9047Z" fill="#18D0F7"/>
</g>
<path d="M144.279 241.226L78.9093 203.432C77.9397 202.734 77.1469 201.817 76.5946 200.756C76.0423 199.695 75.7457 198.519 75.7288 197.322V116.859C75.7288 114.503 77.1493 113.42 78.9093 114.44L144.279 152.234C145.255 152.924 146.054 153.837 146.609 154.897C147.164 155.957 147.46 157.134 147.472 158.331V238.782C147.472 241.163 146.052 242.247 144.279 241.226Z" fill="url(#paint9_linear_291_1300)"/>
<path d="M134.675 222.594L88.5136 195.886C87.828 195.395 87.2672 194.749 86.8763 194C86.4855 193.252 86.2755 192.422 86.2634 191.578V134.786C86.2634 133.123 87.2691 132.354 88.5136 133.073L134.675 159.768C135.36 160.259 135.921 160.905 136.312 161.653C136.703 162.402 136.913 163.232 136.925 164.076V220.88C136.887 222.556 135.919 223.324 134.675 222.594Z" fill="#6DE0F6"/>
<path d="M91.6941 193.782C91.0085 193.291 90.4477 192.645 90.0568 191.897C89.666 191.148 89.456 190.318 89.4439 189.474V133.614L88.5136 133.072C87.2565 132.354 86.2634 133.073 86.2634 134.786V191.578C86.2755 192.422 86.4855 193.252 86.8763 194C87.2672 194.749 87.828 195.395 88.5136 195.886L134.675 222.594C135.932 223.324 136.925 222.594 136.925 220.893V219.936L91.6941 193.782Z" fill="#267FE5"/>
<path d="M103.989 157.487L94.573 152.045V150.445L103.989 155.887V157.487Z" fill="#267FE5"/>
<path d="M111.456 161.821L106.754 159.1V157.487L111.456 160.221V161.821Z" fill="#18D0F7"/>
<path d="M118.622 165.966L113.92 163.245V161.632L118.622 164.366V165.966Z" fill="#267FE5"/>
<path d="M125.787 170.111L121.085 167.389V165.777L125.787 168.511V170.111Z" fill="#267FE5"/>
<path d="M103.989 161.342L94.573 155.887V154.287L103.989 159.73V161.342Z" fill="#267FE5"/>
<path d="M111.456 165.664L106.754 162.942V161.342L111.456 164.064V165.664Z" fill="#18D0F7"/>
<path d="M118.622 169.808L113.92 167.087V165.487L118.622 168.208V169.808Z" fill="#267FE5"/>
<path d="M125.787 173.953L121.085 171.232V169.632L125.787 172.353V173.953Z" fill="#267FE5"/>
<path d="M103.989 165.185L94.573 159.73V158.13L103.989 163.585V165.185Z" fill="#267FE5"/>
<path d="M115.064 169.985L113.92 169.33L106.754 165.185V166.785L113.92 170.929L115.064 171.585L118.622 173.651V172.051L115.064 169.985Z" fill="#267FE5"/>
<path d="M125.787 177.795L121.085 175.074V173.474L125.787 176.195V177.795Z" fill="#267FE5"/>
<path d="M128.251 169.922V173.777V175.377V177.619V178.073V179.219L132.953 181.94V180.794V180.34V178.098V176.498V172.655L128.251 169.922Z" fill="#267FE5"/>
<path d="M103.989 169.027L94.573 163.585V161.972L103.989 167.427V169.027Z" fill="#18D0F7"/>
<path d="M111.456 173.348L106.754 170.627V169.027L111.456 171.748V173.348Z" fill="#267FE5"/>
<path d="M118.622 175.893L117.364 175.162L113.92 173.172V174.772L117.364 176.762L118.622 177.493L125.787 181.638V180.038L118.622 175.893Z" fill="#267FE5"/>
<path d="M132.953 185.782L128.251 183.061V181.461L132.953 184.182V185.782Z" fill="#267FE5"/>
<path d="M103.989 180.554L94.573 175.112V173.512L103.989 178.954V180.554Z" fill="#267FE5"/>
<path d="M111.456 184.888L106.754 182.154V180.554L111.456 183.288V184.888Z" fill="#267FE5"/>
<path d="M118.622 187.433L117.364 186.702L113.92 184.699V186.299L117.364 188.302L118.622 189.033L125.787 193.177V191.565L118.622 187.433Z" fill="#267FE5"/>
<path d="M132.953 197.322L128.251 194.601V192.989L132.953 195.71V197.322Z" fill="#267FE5"/>
<path d="M103.989 184.409L94.573 178.954V177.354L103.989 182.797V184.409Z" fill="#267FE5"/>
<path d="M111.456 188.73L106.754 186.009V184.409L111.456 187.13V188.73Z" fill="#267FE5"/>
<path d="M132.953 201.165L128.251 198.443V196.844L132.953 199.565V201.165Z" fill="#267FE5"/>
<path d="M103.989 188.252L94.573 182.797V181.197L103.989 186.652V188.252Z" fill="#267FE5"/>
<path d="M111.456 192.573L106.754 189.852V188.252L111.456 190.973V192.573Z" fill="#267FE5"/>
<path d="M118.622 191.275L117.364 190.545L113.92 188.541V189.675V190.154V193.996L117.364 195.987L118.622 196.718L125.787 200.862V197.02V196.541V195.42L118.622 191.275Z" fill="#18D0F7"/>
<path d="M132.953 205.007L128.251 202.286V200.686L132.953 203.407V205.007Z" fill="#267FE5"/>
<path d="M103.989 172.87L94.573 167.427V165.827L103.989 171.27V172.87Z" fill="#267FE5"/>
<path d="M111.456 177.191L106.754 174.469V172.87L111.456 175.591V177.191Z" fill="#18D0F7"/>
<path d="M125.787 185.48L121.085 182.759V181.159L125.787 183.88V185.48Z" fill="#267FE5"/>
<path d="M132.953 189.625L128.251 186.904V185.304L132.953 188.025V189.625Z" fill="#267FE5"/>
<path d="M103.989 176.712L94.573 171.27V169.67L103.989 175.112V176.712Z" fill="#267FE5"/>
<path d="M111.456 181.046L106.754 178.312V176.712L111.456 179.433V181.046Z" fill="#267FE5"/>
<path d="M113.92 177.014V177.821V178.614V182.457L118.622 185.19V181.335V180.542V179.735L113.92 177.014Z" fill="#18D0F7"/>
<path d="M125.787 189.323L121.085 186.601V185.001L125.787 187.723V189.323Z" fill="#267FE5"/>
<path d="M132.953 193.467L128.251 190.746V189.146L132.953 191.867V193.467Z" fill="#267FE5"/>
<path d="M215.419 204.818L243.264 188.806C243.855 188.466 244.32 188.806 244.32 189.612C244.315 190.011 244.215 190.403 244.03 190.755C243.844 191.108 243.577 191.411 243.252 191.641L215.407 207.64C214.828 207.98 214.351 207.64 214.351 206.834C214.358 206.437 214.458 206.048 214.644 205.698C214.83 205.347 215.095 205.046 215.419 204.818Z" fill="#370175"/>
<path d="M243.503 188.743C243.551 188.89 243.576 189.042 243.578 189.196C243.576 189.604 243.476 190.005 243.285 190.364C243.095 190.724 242.82 191.032 242.485 191.263L214.64 207.262C214.566 207.302 214.485 207.328 214.401 207.338C214.422 207.44 214.468 207.536 214.536 207.616C214.605 207.696 214.692 207.757 214.79 207.793C214.888 207.83 214.994 207.841 215.097 207.825C215.201 207.809 215.299 207.767 215.381 207.703L243.226 191.691C243.552 191.462 243.819 191.158 244.004 190.806C244.19 190.453 244.29 190.061 244.295 189.663C244.32 188.945 243.968 188.617 243.503 188.743Z" fill="#480689"/>
<path d="M215.432 199.061L243.277 183.049C243.868 182.709 244.345 183.049 244.345 183.855C244.335 184.253 244.233 184.643 244.048 184.995C243.863 185.346 243.599 185.651 243.277 185.883L215.432 201.895C214.841 202.235 214.363 201.895 214.363 201.089C214.373 200.691 214.475 200.301 214.661 199.95C214.846 199.598 215.11 199.294 215.432 199.061Z" fill="#370175"/>
<path d="M215.457 193.303L243.302 177.291C243.88 176.951 244.358 177.291 244.358 178.098C244.355 178.498 244.256 178.893 244.07 179.248C243.884 179.603 243.617 179.908 243.289 180.139L215.444 196.138C214.854 196.478 214.376 196.138 214.388 195.332C214.394 194.933 214.493 194.541 214.679 194.189C214.865 193.836 215.131 193.533 215.457 193.303Z" fill="#370175"/>
<path d="M215.469 187.546L243.314 171.534C243.905 171.207 244.37 171.534 244.37 172.34C244.367 172.741 244.269 173.135 244.083 173.49C243.897 173.845 243.629 174.151 243.302 174.381L215.457 190.381C214.866 190.721 214.401 190.381 214.401 189.574C214.406 189.176 214.506 188.784 214.691 188.431C214.877 188.079 215.144 187.775 215.469 187.546Z" fill="#370175"/>
<path d="M215.482 181.789L243.327 165.777C243.918 165.449 244.396 165.777 244.383 166.596C244.378 166.994 244.278 167.386 244.092 167.739C243.907 168.091 243.64 168.395 243.315 168.624L215.47 184.623C214.891 184.964 214.414 184.623 214.414 183.817C214.419 183.418 214.518 183.027 214.704 182.674C214.89 182.322 215.157 182.018 215.482 181.789Z" fill="#370175"/>
<path d="M243.516 182.986C243.567 183.127 243.592 183.276 243.591 183.427C243.588 183.827 243.489 184.222 243.303 184.577C243.118 184.932 242.85 185.237 242.523 185.468L214.678 201.467C214.601 201.502 214.521 201.527 214.439 201.543C214.462 201.646 214.51 201.741 214.579 201.821C214.649 201.9 214.737 201.961 214.836 201.997C214.935 202.033 215.041 202.044 215.145 202.029C215.249 202.013 215.348 201.972 215.432 201.908L243.277 185.896C243.597 185.662 243.86 185.357 244.046 185.006C244.231 184.654 244.333 184.265 244.345 183.868C244.345 183.2 243.993 182.86 243.516 182.986Z" fill="#480689"/>
<path d="M243.541 177.241C243.584 177.384 243.605 177.533 243.604 177.682C243.598 178.081 243.499 178.472 243.313 178.825C243.127 179.178 242.861 179.481 242.535 179.71L214.69 195.722C214.615 195.761 214.534 195.786 214.451 195.798C214.473 195.902 214.52 195.998 214.59 196.078C214.66 196.158 214.749 196.219 214.849 196.255C214.948 196.29 215.056 196.299 215.16 196.281C215.264 196.263 215.362 196.218 215.444 196.151L243.289 180.151C243.615 179.922 243.881 179.619 244.067 179.266C244.253 178.913 244.353 178.522 244.358 178.123C244.358 177.405 244.006 177.115 243.541 177.241Z" fill="#480689"/>
<path d="M243.553 171.484C243.6 171.631 243.625 171.783 243.629 171.937C243.617 172.335 243.514 172.724 243.329 173.075C243.144 173.427 242.881 173.731 242.56 173.966L214.715 190.003C214.639 190.034 214.558 190.055 214.476 190.066C214.494 190.171 214.539 190.269 214.606 190.351C214.674 190.433 214.762 190.496 214.861 190.533C214.961 190.57 215.068 190.58 215.173 190.562C215.277 190.544 215.375 190.499 215.457 190.431L243.302 174.432C243.629 174.201 243.897 173.896 244.083 173.541C244.269 173.186 244.367 172.792 244.37 172.391C244.37 171.698 244.018 171.37 243.553 171.484Z" fill="#480689"/>
<path d="M243.566 165.739C243.613 165.886 243.639 166.039 243.641 166.193C243.636 166.591 243.537 166.983 243.351 167.336C243.165 167.688 242.898 167.992 242.573 168.221L214.728 184.22C214.654 184.261 214.573 184.286 214.489 184.296C214.51 184.399 214.556 184.495 214.625 184.574C214.693 184.654 214.78 184.715 214.878 184.752C214.976 184.788 215.082 184.799 215.185 184.783C215.289 184.767 215.387 184.725 215.47 184.661L243.315 168.649C243.64 168.42 243.907 168.117 244.092 167.764C244.278 167.411 244.378 167.02 244.383 166.621C244.383 165.953 244.031 165.626 243.566 165.739Z" fill="#480689"/>
<path d="M179.944 225.202L207.789 209.202C208.379 208.862 208.845 209.202 208.845 210.008C208.839 210.407 208.74 210.799 208.554 211.151C208.368 211.504 208.102 211.807 207.776 212.037L179.931 228.049C179.353 228.376 178.875 228.049 178.875 227.242C178.878 226.842 178.977 226.447 179.163 226.092C179.349 225.737 179.616 225.432 179.944 225.202Z" fill="#370175"/>
<path d="M208.027 209.127C208.074 209.269 208.099 209.418 208.103 209.567C208.1 209.968 208.001 210.363 207.815 210.718C207.629 211.072 207.362 211.378 207.034 211.608L179.189 227.608C179.113 227.643 179.033 227.668 178.95 227.683C178.971 227.786 179.018 227.882 179.086 227.962C179.154 228.041 179.241 228.102 179.339 228.139C179.438 228.176 179.543 228.187 179.647 228.171C179.75 228.155 179.848 228.113 179.931 228.049L207.776 212.037C208.102 211.807 208.368 211.504 208.554 211.151C208.74 210.799 208.839 210.407 208.845 210.008C208.845 209.341 208.543 209.001 208.027 209.127Z" fill="#480689"/>
<path d="M179.956 219.444L207.801 203.445C208.392 203.105 208.87 203.445 208.87 204.251C208.858 204.648 208.755 205.038 208.57 205.389C208.385 205.741 208.122 206.045 207.801 206.279L179.956 222.291C179.365 222.632 178.887 222.291 178.887 221.485C178.898 221.086 178.999 220.694 179.185 220.34C179.37 219.986 179.634 219.68 179.956 219.444Z" fill="#370175"/>
<path d="M179.981 213.7L207.826 197.688C208.404 197.347 208.882 197.688 208.882 198.494C208.877 198.893 208.777 199.284 208.592 199.637C208.406 199.99 208.139 200.293 207.814 200.522L179.969 216.534C179.378 216.874 178.9 216.534 178.913 215.728C178.918 215.329 179.017 214.937 179.203 214.585C179.389 214.232 179.656 213.929 179.981 213.7Z" fill="#370175"/>
<path d="M179.994 207.942L207.839 191.93C208.43 191.59 208.895 191.93 208.895 192.737C208.89 193.135 208.79 193.527 208.604 193.88C208.418 194.232 208.152 194.536 207.826 194.765L179.981 210.777C179.403 211.117 178.925 210.777 178.925 209.971C178.931 209.572 179.03 209.18 179.216 208.828C179.402 208.475 179.668 208.172 179.994 207.942Z" fill="#370175"/>
<path d="M180.006 202.185L207.851 186.223C208.442 185.883 208.92 186.223 208.907 187.03C208.906 187.429 208.809 187.823 208.625 188.178C208.442 188.533 208.176 188.839 207.851 189.071L180.006 205.07C179.415 205.41 178.938 205.07 178.938 204.264C178.935 203.857 179.031 203.455 179.217 203.093C179.403 202.731 179.674 202.419 180.006 202.185Z" fill="#370175"/>
<path d="M208.04 203.382C208.094 203.522 208.119 203.672 208.115 203.823C208.11 204.221 208.01 204.613 207.825 204.966C207.639 205.318 207.372 205.622 207.047 205.851L179.202 221.863C179.125 221.898 179.045 221.923 178.963 221.939C178.984 222.043 179.032 222.139 179.102 222.219C179.171 222.299 179.26 222.36 179.36 222.395C179.46 222.431 179.567 222.44 179.672 222.422C179.776 222.403 179.874 222.359 179.956 222.291L207.801 206.292C208.122 206.058 208.385 205.753 208.57 205.402C208.755 205.05 208.858 204.661 208.87 204.264C208.87 203.583 208.543 203.256 208.04 203.382Z" fill="#480689"/>
<path d="M208.065 197.625C208.107 197.772 208.128 197.925 208.128 198.078C208.123 198.477 208.023 198.869 207.837 199.221C207.652 199.574 207.385 199.877 207.059 200.106L179.214 216.118C179.135 216.131 179.055 216.131 178.976 216.118C178.995 216.223 179.042 216.321 179.111 216.403C179.18 216.485 179.269 216.547 179.369 216.584C179.469 216.62 179.577 216.631 179.682 216.613C179.787 216.596 179.886 216.551 179.969 216.484L207.814 200.484C208.141 200.254 208.409 199.948 208.594 199.593C208.78 199.239 208.879 198.844 208.882 198.443C208.882 197.839 208.543 197.562 208.065 197.625Z" fill="#480689"/>
<path d="M208.078 191.88C208.125 192.026 208.151 192.179 208.153 192.333C208.141 192.731 208.039 193.12 207.853 193.472C207.668 193.823 207.405 194.128 207.085 194.362L179.24 210.361C179.166 210.402 179.084 210.427 179.001 210.437C179.022 210.54 179.068 210.635 179.136 210.715C179.204 210.795 179.292 210.856 179.39 210.892C179.488 210.929 179.594 210.94 179.697 210.924C179.801 210.908 179.898 210.866 179.981 210.802L207.826 194.79C208.152 194.561 208.418 194.257 208.604 193.905C208.79 193.552 208.89 193.16 208.895 192.762C208.895 192.094 208.543 191.766 208.078 191.88Z" fill="#480689"/>
<path d="M208.09 186.135C208.137 186.278 208.162 186.426 208.166 186.576C208.162 186.977 208.064 187.371 207.878 187.726C207.692 188.081 207.424 188.387 207.097 188.617L179.252 204.616C179.176 204.651 179.096 204.677 179.013 204.692C179.034 204.795 179.081 204.891 179.149 204.97C179.217 205.05 179.304 205.111 179.402 205.148C179.5 205.184 179.606 205.195 179.71 205.179C179.813 205.164 179.911 205.122 179.994 205.057L207.839 189.045C208.164 188.816 208.431 188.513 208.617 188.16C208.802 187.808 208.902 187.416 208.907 187.017C208.907 186.349 208.543 186.009 208.09 186.135Z" fill="#480689"/>
<path d="M215.394 171.106L243.239 155.094C243.83 154.754 244.308 155.094 244.308 155.9C244.304 156.301 244.206 156.695 244.02 157.05C243.834 157.405 243.566 157.71 243.239 157.941L215.394 173.94C214.803 174.281 214.325 173.94 214.325 173.134C214.338 172.737 214.44 172.347 214.625 171.996C214.81 171.644 215.073 171.34 215.394 171.106Z" fill="#370175"/>
<path d="M243.49 155.018C243.532 155.166 243.554 155.318 243.553 155.472C243.548 155.87 243.448 156.262 243.263 156.615C243.077 156.967 242.81 157.271 242.485 157.5L214.64 173.512C214.564 173.546 214.483 173.568 214.401 173.575C214.421 173.68 214.467 173.778 214.536 173.86C214.605 173.941 214.694 174.003 214.794 174.04C214.894 174.077 215.002 174.087 215.107 174.07C215.212 174.052 215.311 174.008 215.394 173.94L243.239 157.941C243.566 157.71 243.834 157.405 244.02 157.05C244.206 156.695 244.304 156.301 244.308 155.9C244.308 155.232 243.956 154.905 243.49 155.018Z" fill="#480689"/>
<path d="M215.419 165.349L243.264 149.336C243.842 149.009 244.32 149.336 244.32 150.143C244.317 150.544 244.218 150.938 244.032 151.293C243.847 151.648 243.579 151.953 243.252 152.184L215.407 168.183C214.816 168.523 214.351 168.183 214.351 167.377C214.356 166.978 214.455 166.586 214.641 166.234C214.827 165.881 215.094 165.578 215.419 165.349Z" fill="#370175"/>
<path d="M215.432 159.591L243.277 143.579C243.868 143.252 244.333 143.579 244.333 144.398C244.328 144.797 244.228 145.189 244.042 145.541C243.856 145.894 243.59 146.197 243.264 146.426L215.419 162.426C214.841 162.766 214.363 162.426 214.363 161.62C214.369 161.221 214.468 160.829 214.654 160.476C214.84 160.124 215.106 159.82 215.432 159.591Z" fill="#370175"/>
<path d="M215.444 153.834L243.289 137.834C243.88 137.494 244.358 137.834 244.358 138.641C244.346 139.038 244.243 139.427 244.058 139.779C243.873 140.13 243.61 140.435 243.289 140.669L215.444 156.668C214.853 157.009 214.376 156.668 214.376 155.862C214.388 155.465 214.49 155.076 214.676 154.724C214.861 154.372 215.124 154.068 215.444 153.834Z" fill="#370175"/>
<path d="M215.469 148.077L243.314 132.052C243.893 131.712 244.37 132.052 244.37 132.858C244.365 133.257 244.266 133.649 244.08 134.001C243.894 134.354 243.627 134.657 243.302 134.887L215.457 150.949C214.866 151.277 214.388 150.949 214.401 150.13C214.402 149.727 214.5 149.33 214.686 148.973C214.872 148.616 215.14 148.308 215.469 148.077Z" fill="#370175"/>
<path d="M243.503 149.273C243.551 149.42 243.576 149.573 243.578 149.727C243.566 150.124 243.464 150.514 243.279 150.865C243.093 151.217 242.83 151.521 242.51 151.755L214.665 167.755C214.591 167.795 214.51 167.821 214.426 167.83C214.447 167.933 214.494 168.029 214.562 168.109C214.63 168.188 214.717 168.249 214.815 168.286C214.913 168.323 215.019 168.333 215.122 168.318C215.226 168.302 215.324 168.26 215.407 168.196L243.252 152.209C243.577 151.98 243.844 151.676 244.03 151.324C244.215 150.971 244.315 150.579 244.32 150.181C244.32 149.488 243.968 149.16 243.503 149.273Z" fill="#480689"/>
<path d="M243.516 143.529C243.562 143.671 243.588 143.82 243.591 143.97C243.588 144.371 243.489 144.765 243.303 145.12C243.118 145.475 242.85 145.78 242.523 146.011L214.678 162.01C214.601 162.045 214.521 162.07 214.439 162.086C214.46 162.188 214.506 162.284 214.574 162.364C214.642 162.444 214.73 162.505 214.828 162.541C214.926 162.578 215.032 162.589 215.135 162.573C215.239 162.557 215.336 162.515 215.419 162.451L243.264 146.439C243.59 146.21 243.856 145.906 244.042 145.554C244.228 145.201 244.328 144.809 244.333 144.411C244.333 143.743 243.981 143.39 243.516 143.529Z" fill="#480689"/>
<path d="M243.528 137.784C243.582 137.925 243.608 138.074 243.604 138.225C243.598 138.624 243.499 139.015 243.313 139.368C243.127 139.721 242.861 140.024 242.535 140.253L214.69 156.265C214.614 156.3 214.534 156.326 214.451 156.341C214.474 156.443 214.522 156.537 214.59 156.615C214.659 156.693 214.747 156.753 214.844 156.788C214.942 156.823 215.048 156.833 215.15 156.817C215.253 156.8 215.35 156.758 215.432 156.694L243.277 140.694C243.602 140.465 243.869 140.162 244.055 139.809C244.24 139.456 244.34 139.065 244.345 138.666C244.358 137.986 243.993 137.658 243.528 137.784Z" fill="#480689"/>
<path d="M243.541 132.052C243.594 132.197 243.619 132.351 243.616 132.506C243.611 132.904 243.511 133.296 243.326 133.649C243.14 134.001 242.873 134.305 242.548 134.534L214.703 150.521C214.626 150.552 214.546 150.573 214.464 150.584C214.484 150.689 214.53 150.787 214.599 150.868C214.668 150.95 214.757 151.012 214.857 151.049C214.957 151.086 215.065 151.096 215.17 151.078C215.275 151.061 215.374 151.016 215.457 150.949L243.302 134.95C243.624 134.714 243.888 134.408 244.073 134.054C244.259 133.7 244.36 133.308 244.371 132.909C244.371 132.241 244.019 131.914 243.541 132.052Z" fill="#480689"/>
<path d="M179.918 191.502L207.763 175.49C208.354 175.15 208.832 175.49 208.832 176.296C208.827 176.695 208.727 177.087 208.541 177.439C208.355 177.792 208.089 178.095 207.763 178.324L179.918 194.336C179.327 194.677 178.85 194.336 178.862 193.53C178.866 193.133 178.964 192.742 179.147 192.389C179.331 192.037 179.595 191.733 179.918 191.502Z" fill="#370175"/>
<path d="M208.015 175.414C208.058 175.562 208.079 175.714 208.078 175.868C208.072 176.267 207.973 176.658 207.787 177.011C207.601 177.363 207.335 177.667 207.009 177.896L179.164 193.896C179.092 193.94 179.01 193.965 178.925 193.971C178.948 194.074 178.996 194.17 179.066 194.249C179.135 194.329 179.223 194.389 179.322 194.426C179.421 194.462 179.528 194.473 179.632 194.457C179.736 194.442 179.834 194.4 179.918 194.336L207.763 178.324C208.089 178.095 208.356 177.792 208.541 177.439C208.727 177.087 208.827 176.695 208.832 176.296C208.832 175.628 208.543 175.301 208.015 175.414Z" fill="#480689"/>
<path d="M179.944 185.745L207.789 169.733C208.367 169.392 208.845 169.733 208.845 170.539C208.839 170.938 208.74 171.329 208.554 171.682C208.368 172.035 208.102 172.338 207.776 172.567L179.931 188.579C179.34 188.919 178.875 188.579 178.875 187.773C178.88 187.374 178.98 186.982 179.166 186.63C179.351 186.277 179.618 185.974 179.944 185.745Z" fill="#370175"/>
<path d="M179.956 179.987L207.801 163.975C208.392 163.635 208.857 163.975 208.857 164.782C208.854 165.182 208.755 165.577 208.569 165.932C208.383 166.287 208.116 166.592 207.788 166.823L179.943 182.822C179.365 183.162 178.887 182.822 178.887 182.016C178.893 181.617 178.992 181.225 179.178 180.873C179.364 180.52 179.63 180.217 179.956 179.987Z" fill="#370175"/>
<path d="M179.969 174.23L207.814 158.218C208.405 157.891 208.882 158.218 208.882 159.024C208.872 159.424 208.77 159.816 208.585 160.17C208.4 160.523 208.136 160.83 207.814 161.065L179.969 177.065C179.378 177.405 178.9 177.065 178.9 176.258C178.912 175.861 179.015 175.472 179.2 175.12C179.385 174.769 179.648 174.464 179.969 174.23Z" fill="#370175"/>
<path d="M179.994 168.473L207.839 152.461C208.417 152.133 208.895 152.461 208.895 153.28C208.89 153.678 208.79 154.07 208.604 154.423C208.418 154.775 208.152 155.079 207.826 155.308L179.981 171.307C179.39 171.648 178.913 171.307 178.925 170.501C178.931 170.102 179.03 169.711 179.216 169.358C179.402 169.005 179.668 168.702 179.994 168.473Z" fill="#370175"/>
<path d="M208.027 169.67C208.074 169.812 208.099 169.961 208.103 170.111C208.093 170.51 207.991 170.902 207.806 171.256C207.621 171.61 207.357 171.916 207.034 172.151L179.189 188.151C179.113 188.186 179.033 188.211 178.95 188.226C178.971 188.329 179.018 188.425 179.086 188.505C179.154 188.585 179.241 188.646 179.339 188.682C179.438 188.719 179.543 188.73 179.647 188.714C179.75 188.698 179.848 188.656 179.931 188.592L207.776 172.58C208.102 172.351 208.368 172.047 208.554 171.695C208.74 171.342 208.839 170.95 208.845 170.552C208.845 169.846 208.543 169.544 208.027 169.67Z" fill="#480689"/>
<path d="M208.04 163.925C208.087 164.067 208.113 164.216 208.115 164.366C208.11 164.765 208.01 165.156 207.825 165.509C207.639 165.862 207.372 166.165 207.047 166.394L179.202 182.444C179.125 182.479 179.045 182.504 178.963 182.52C178.985 182.621 179.033 182.716 179.102 182.794C179.171 182.872 179.258 182.932 179.356 182.967C179.454 183.002 179.559 183.012 179.662 182.995C179.765 182.979 179.861 182.937 179.943 182.872L207.788 166.873C208.114 166.644 208.381 166.34 208.566 165.988C208.752 165.635 208.852 165.243 208.857 164.845C208.857 164.127 208.543 163.799 208.04 163.925Z" fill="#480689"/>
<path d="M208.053 158.168C208.105 158.313 208.131 158.467 208.128 158.621C208.123 159.02 208.023 159.412 207.837 159.764C207.652 160.117 207.385 160.42 207.059 160.649L179.214 176.662C179.138 176.693 179.058 176.714 178.976 176.724C178.995 176.83 179.042 176.928 179.111 177.009C179.18 177.091 179.269 177.153 179.369 177.19C179.469 177.227 179.577 177.237 179.682 177.219C179.787 177.202 179.886 177.157 179.969 177.09L207.801 161.09C208.128 160.86 208.396 160.555 208.582 160.2C208.768 159.845 208.866 159.45 208.87 159.05C208.882 158.382 208.543 158.054 208.053 158.168Z" fill="#480689"/>
<path d="M208.065 152.423C208.118 152.568 208.143 152.722 208.14 152.876C208.135 153.275 208.036 153.667 207.85 154.02C207.664 154.372 207.397 154.676 207.072 154.905L179.227 170.904C179.153 170.945 179.072 170.97 178.988 170.98C179.011 171.083 179.059 171.178 179.129 171.258C179.198 171.337 179.286 171.398 179.385 171.434C179.484 171.471 179.59 171.482 179.694 171.466C179.799 171.45 179.897 171.409 179.981 171.345L207.826 155.333C208.147 155.099 208.41 154.795 208.595 154.443C208.78 154.091 208.883 153.702 208.895 153.305C208.895 152.637 208.543 152.31 208.065 152.423Z" fill="#480689"/>
<g style="mix-blend-mode:lighten">
<path d="M125.741 262.635L103.183 275.686L103.623 276.45L126.181 263.398L125.741 262.635Z" fill="#8686F2"/>
</g>
<g style="mix-blend-mode:lighten">
<path d="M192.715 262.635L192.275 263.399L214.833 276.451L215.273 275.687L192.715 262.635Z" fill="#8686F2"/>
</g>
<g style="mix-blend-mode:lighten">
<path d="M58.5944 335.308C56.3779 335.367 54.1833 334.856 52.2209 333.821L3.26893 305.514C2.46115 305.121 1.77282 304.52 1.27544 303.771C0.77806 303.022 0.489754 302.154 0.44043 301.256C0.44043 299.303 1.82325 297.375 4.21177 295.977L51.2026 268.778C55.4894 266.258 62.0138 266.057 65.7474 268.224L114.699 296.544C115.505 296.935 116.192 297.535 116.69 298.281C117.187 299.028 117.476 299.893 117.528 300.789C117.528 302.742 116.145 304.67 113.757 306.068L66.7657 333.267C64.2587 334.631 61.4468 335.333 58.5944 335.308ZM59.4115 267.682C56.727 267.661 54.0807 268.319 51.718 269.597L4.7146 296.796C2.60265 298.056 1.38326 299.643 1.38326 301.256C1.4339 301.987 1.68008 302.691 2.09593 303.294C2.51179 303.897 3.08197 304.376 3.74662 304.682L52.6609 333.002C54.4812 333.957 56.5159 334.425 58.5693 334.363C61.2541 334.386 63.9009 333.728 66.2628 332.448L113.266 305.249C115.378 303.989 116.598 302.402 116.598 300.789C116.547 300.058 116.301 299.354 115.885 298.751C115.469 298.148 114.899 297.669 114.234 297.363L65.2948 269.042C63.4814 268.094 61.4563 267.626 59.4115 267.682Z" fill="#8686F2"/>
</g>
<path d="M107.899 276.639H87.2944L64.3521 263.361C61.3979 261.648 56.2312 261.862 52.8244 263.84L30.7118 276.639H10.1203V290.497C10.1132 291.151 10.2975 291.794 10.6505 292.344C11.0034 292.895 11.5096 293.33 12.1065 293.596L53.6541 317.633C56.6083 319.346 61.775 319.132 65.1818 317.154L105.083 294.075C105.803 293.749 106.434 293.254 106.922 292.631C107.41 292.008 107.741 291.276 107.886 290.497L107.899 276.639Z" fill="url(#paint10_linear_291_1300)"/>
<path d="M105.082 293.117L65.2319 316.197C61.8252 318.175 56.6584 318.389 53.7042 316.675L12.1441 292.639C11.5495 292.371 11.0459 291.935 10.6953 291.384C10.3446 290.834 10.1622 290.193 10.1704 289.539V290.497C10.1622 291.15 10.3446 291.791 10.6953 292.342C11.0459 292.893 11.5495 293.328 12.1441 293.596L53.7042 317.633C56.6584 319.346 61.8252 319.132 65.2319 317.154L105.133 294.075C105.853 293.749 106.484 293.253 106.972 292.631C107.461 292.008 107.791 291.276 107.936 290.497V289.527C107.791 290.314 107.455 291.053 106.957 291.68C106.46 292.306 105.816 292.8 105.082 293.117Z" fill="url(#paint11_linear_291_1300)"/>
<path d="M11.415 291.454V277.597H32.0065L54.1191 264.81C57.5384 262.832 62.6925 262.618 65.6468 264.331L88.5891 277.597H107.898V276.652H87.2942L64.3519 263.361C61.3977 261.648 56.231 261.862 52.8242 263.84L30.7116 276.639H10.1201V290.497C10.1119 291.15 10.2943 291.791 10.645 292.342C10.9956 292.893 11.4992 293.328 12.0938 293.596L12.3327 293.735C12.0263 293.442 11.7859 293.087 11.6276 292.694C11.4693 292.301 11.3968 291.878 11.415 291.454Z" fill="#D4088C"/>
<path d="M106.717 277.748V291.606C106.627 292.399 106.283 293.141 105.736 293.722C106.304 293.386 106.792 292.928 107.163 292.381C107.535 291.835 107.781 291.213 107.886 290.56V276.778C107.457 277.051 107.065 277.377 106.717 277.748Z" fill="#6EE8FC"/>
<path d="M53.6541 303.775L12.094 279.726C9.13979 278.025 9.51693 275.039 12.9237 273.061L52.8244 249.982C56.2312 248.004 61.3979 247.79 64.3521 249.503L105.9 273.54C108.854 275.253 108.489 278.239 105.083 280.204L65.2321 303.296C61.7751 305.262 56.6083 305.476 53.6541 303.775Z" fill="url(#paint12_linear_291_1300)"/>
<path d="M105.899 273.54L64.3519 249.503C62.558 248.58 60.5397 248.187 58.5315 248.369C59.9987 248.424 61.4344 248.811 62.7303 249.503L104.278 273.54C107.232 275.253 106.867 278.239 103.448 280.204L63.56 303.296C61.7992 304.258 59.8432 304.805 57.8401 304.896C60.3888 305.066 62.9336 304.512 65.1816 303.296L105.082 280.204C108.489 278.189 108.854 275.253 105.899 273.54Z" fill="#6EE8FC"/>
<path d="M55.0243 296.834L24.0868 278.945C21.8868 277.685 22.1634 275.442 24.7028 273.905L54.4084 256.772C55.7107 256.046 57.1645 255.637 58.6533 255.575C60.1421 255.514 61.6245 255.803 62.9818 256.419L93.9194 274.321C96.1193 275.581 95.8428 277.811 93.3034 279.285L63.5979 296.481C62.2965 297.209 60.8424 297.621 59.3531 297.682C57.8637 297.743 56.3809 297.453 55.0243 296.834Z" fill="url(#paint13_linear_291_1300)"/>
<path d="M56.118 291.278L33.7037 278.302C32.1072 277.382 32.3083 275.782 34.1563 274.712L55.6655 262.252C56.6117 261.728 57.6669 261.433 58.7471 261.389C59.8273 261.345 60.9028 261.554 61.8882 262L84.3025 274.964C85.899 275.883 85.6979 277.483 83.8499 278.567L62.3407 291.013C61.3965 291.542 60.3416 291.842 59.2608 291.888C58.1801 291.934 57.1036 291.725 56.118 291.278Z" fill="#6DE0F6"/>
<path d="M55.5146 303.775L14.0298 279.726C11.0756 278.025 11.4402 275.039 14.8595 273.061L54.7477 249.982C56.4756 249.029 58.3971 248.481 60.367 248.382C57.7721 248.184 55.1752 248.739 52.8872 249.982L12.9865 273.061C9.57969 275.039 9.21512 278.025 12.1568 279.726L53.7169 303.775C55.5409 304.701 57.5897 305.09 59.6253 304.896C58.1885 304.836 56.7836 304.453 55.5146 303.775Z" fill="#D4088C"/>
<mask id="mask3_291_1300" style="mask-type:luminance" maskUnits="userSpaceOnUse" x="32" y="261" width="54" height="31">
<path d="M56.1178 291.278L33.7035 278.302C32.107 277.382 32.3081 275.782 34.156 274.712L55.6652 262.252C56.6115 261.728 57.6666 261.433 58.7468 261.389C59.8271 261.345 60.9026 261.554 61.8879 262L84.3023 274.964C85.8988 275.883 85.6976 277.483 83.8497 278.567L62.3405 291.013C61.3962 291.542 60.3413 291.842 59.2606 291.888C58.1798 291.934 57.1034 291.725 56.1178 291.278Z" fill="white"/>
</mask>
<g mask="url(#mask3_291_1300)">
<path d="M34.1433 276.463L55.6651 264.003C56.6103 263.476 57.6657 263.179 58.7465 263.135C59.8272 263.092 60.9031 263.302 61.8877 263.751L84.3146 276.714C84.6211 276.892 84.8867 277.132 85.094 277.42C85.2288 277.213 85.316 276.979 85.3493 276.735C85.3825 276.49 85.3611 276.241 85.2865 276.006C85.2119 275.771 85.0859 275.555 84.9179 275.375C84.7498 275.195 84.5437 275.054 84.3146 274.963L61.8877 261.987C60.9022 261.541 59.8257 261.332 58.745 261.378C57.6642 261.424 56.6093 261.723 55.6651 262.252L34.1433 274.711C32.7102 275.53 32.2827 276.689 32.8862 277.596C33.2034 277.119 33.6358 276.729 34.1433 276.463Z" fill="#267FE5"/>
<path d="M34.1434 278.579L55.6652 266.12C56.6104 265.593 57.6659 265.296 58.7466 265.252C59.8274 265.208 60.9033 265.419 61.8879 265.868L84.3147 278.831C84.5616 278.979 84.7824 279.166 84.9685 279.385C85.1437 279.182 85.2679 278.939 85.3305 278.677C85.3931 278.415 85.3924 278.143 85.3284 277.881C85.2645 277.62 85.1391 277.378 84.9628 277.175C84.7864 276.972 84.5642 276.814 84.3147 276.715L61.8879 263.751C60.9033 263.303 59.8274 263.092 58.7466 263.135C57.6659 263.179 56.6104 263.476 55.6652 264.003L34.1434 276.463C32.6223 277.345 32.2452 278.579 33.0372 279.511C33.3365 279.126 33.7134 278.809 34.1434 278.579Z" fill="#25BFEC"/>
<path d="M33.2509 281.855C33.5174 281.586 33.8173 281.353 34.1434 281.162L55.6652 268.702C56.6105 268.176 57.6659 267.878 58.7466 267.835C59.8274 267.791 60.9033 268.002 61.8879 268.45L84.3147 281.414C84.4687 281.513 84.6157 281.622 84.7547 281.741C84.9835 281.553 85.1595 281.308 85.2655 281.031C85.3715 280.754 85.4039 280.454 85.3596 280.161C85.3152 279.868 85.1956 279.591 85.0125 279.358C84.8293 279.125 84.5889 278.943 84.3147 278.831L61.8879 265.868C60.9033 265.419 59.8274 265.208 58.7466 265.252C57.6659 265.296 56.6105 265.593 55.6652 266.12L34.1434 278.579C32.5469 279.524 32.1697 280.91 33.2509 281.855Z" fill="#18D0F7"/>
</g>
<g style="mix-blend-mode:lighten">
<path d="M258.588 335.308C256.372 335.367 254.177 334.856 252.215 333.821L203.263 305.514C202.455 305.121 201.767 304.52 201.269 303.771C200.772 303.022 200.484 302.154 200.434 301.256C200.434 299.303 201.817 297.375 204.206 295.977L251.285 268.778C255.571 266.258 262.096 266.057 265.829 268.224L314.781 296.544C315.587 296.935 316.274 297.535 316.772 298.281C317.269 299.028 317.558 299.893 317.61 300.789C317.61 302.742 316.227 304.67 313.838 306.068L266.848 333.267C264.314 334.645 261.47 335.348 258.588 335.308ZM259.405 267.682C256.717 267.661 254.067 268.319 251.699 269.597L204.771 296.796C202.647 298.056 201.44 299.643 201.44 301.256C201.488 301.986 201.732 302.689 202.146 303.293C202.559 303.896 203.128 304.376 203.791 304.682L252.743 333.002C254.563 333.957 256.598 334.425 258.651 334.363C261.336 334.386 263.983 333.728 266.345 332.448L313.348 305.249C315.46 303.989 316.679 302.402 316.679 300.789C316.629 300.058 316.383 299.354 315.967 298.751C315.551 298.148 314.981 297.669 314.316 297.363L265.364 269.042C263.53 268.078 261.476 267.609 259.405 267.682Z" fill="#8686F2"/>
</g>
<path d="M307.854 276.639H287.288L264.346 263.361C261.392 261.648 256.225 261.862 252.818 263.84L230.706 276.639H210.101V290.497C210.092 291.15 210.273 291.792 210.624 292.343C210.975 292.894 211.48 293.33 212.075 293.596L253.635 317.633C256.589 319.346 261.744 319.132 265.163 317.154L305.051 294.075C305.773 293.749 306.405 293.254 306.896 292.631C307.386 292.008 307.719 291.276 307.867 290.497L307.854 276.639Z" fill="url(#paint14_linear_291_1300)"/>
<path d="M305.064 293.117L265.176 316.197C261.756 318.175 256.602 318.389 253.648 316.675L212.088 292.639C211.492 292.372 210.988 291.937 210.637 291.386C210.286 290.835 210.104 290.193 210.114 289.539V290.497C210.104 291.15 210.286 291.792 210.637 292.343C210.988 292.894 211.492 293.33 212.088 293.596L253.648 317.633C256.602 319.346 261.756 319.132 265.176 317.154L305.064 294.075C305.785 293.749 306.418 293.254 306.908 292.631C307.398 292.008 307.732 291.276 307.88 290.497V289.527C307.738 290.31 307.407 291.046 306.916 291.672C306.425 292.298 305.789 292.794 305.064 293.117Z" fill="url(#paint15_linear_291_1300)"/>
<path d="M211.409 291.454V277.597H232L254.113 264.81C257.532 262.832 262.686 262.618 265.641 264.331L288.583 277.597H307.854V276.652H287.288L264.346 263.373C261.392 261.66 256.225 261.874 252.818 263.852L230.706 276.652H210.101V290.509C210.092 291.163 210.273 291.805 210.624 292.356C210.975 292.907 211.48 293.342 212.075 293.609L212.314 293.747C212.008 293.452 211.769 293.095 211.613 292.699C211.457 292.304 211.387 291.879 211.409 291.454Z" fill="#D4088C"/>
<path d="M306.723 277.748V291.606C306.633 292.401 306.284 293.145 305.73 293.722C306.299 293.386 306.788 292.928 307.162 292.382C307.536 291.835 307.785 291.213 307.892 290.56V276.778C307.464 277.051 307.071 277.377 306.723 277.748Z" fill="#6EE8FC"/>
<path d="M253.648 303.775L212.088 279.726C209.134 278.025 209.511 275.039 212.918 273.061L252.818 249.982C256.225 248.004 261.392 247.79 264.346 249.503L305.894 273.54C308.848 275.253 308.483 278.239 305.064 280.204L265.176 303.296C261.756 305.262 256.602 305.476 253.648 303.775Z" fill="url(#paint16_linear_291_1300)"/>
<path d="M305.893 273.54L264.346 249.503C262.552 248.58 260.534 248.187 258.525 248.369C259.989 248.422 261.421 248.81 262.712 249.503L304.272 273.54C307.226 275.253 306.849 278.239 303.442 280.204L263.541 303.296C261.785 304.258 259.833 304.805 257.834 304.896C260.383 305.065 262.927 304.511 265.176 303.296L305.064 280.204C308.483 278.189 308.848 275.253 305.893 273.54Z" fill="#6EE8FC"/>
<path d="M255.056 296.834L224.118 278.945C221.918 277.685 222.195 275.442 224.734 273.905L254.39 256.772C255.694 256.047 257.15 255.638 258.641 255.577C260.132 255.515 261.616 255.804 262.976 256.419L293.913 274.321C296.113 275.581 295.837 277.811 293.297 279.285L263.592 296.468C262.296 297.193 260.849 297.603 259.367 297.666C257.885 297.73 256.408 297.445 255.056 296.834Z" fill="url(#paint17_linear_291_1300)"/>
<path d="M256.112 291.278L233.685 278.302C232.089 277.382 232.29 275.782 234.125 274.712L255.647 262.252C256.593 261.728 257.648 261.433 258.728 261.389C259.809 261.345 260.884 261.554 261.87 262L284.284 274.964C285.88 275.883 285.679 277.483 283.831 278.567L262.31 291.013C261.369 291.54 260.319 291.838 259.242 291.884C258.166 291.93 257.094 291.723 256.112 291.278Z" fill="#6DE0F6"/>
<path d="M255.509 303.775L213.961 279.726C211.007 278.025 211.371 275.039 214.778 273.061L254.679 249.982C256.407 249.029 258.328 248.481 260.298 248.382C257.703 248.184 255.106 248.739 252.818 249.982L212.918 273.061C209.511 275.039 209.146 278.025 212.088 279.726L253.648 303.775C255.472 304.701 257.521 305.09 259.556 304.896C258.141 304.827 256.759 304.444 255.509 303.775Z" fill="#D4088C"/>
<mask id="mask4_291_1300" style="mask-type:luminance" maskUnits="userSpaceOnUse" x="232" y="261" width="54" height="31">
<path d="M256.112 291.278L233.685 278.302C232.089 277.382 232.29 275.782 234.125 274.712L255.647 262.252C256.593 261.728 257.648 261.433 258.728 261.389C259.809 261.345 260.884 261.554 261.87 262L284.284 274.964C285.88 275.883 285.679 277.483 283.831 278.567L262.31 291.013C261.369 291.54 260.319 291.838 259.242 291.884C258.166 291.93 257.094 291.723 256.112 291.278Z" fill="white"/>
</mask>
<g mask="url(#mask4_291_1300)">
<path d="M234.138 276.463L255.66 264.003C256.605 263.476 257.66 263.179 258.741 263.135C259.822 263.092 260.898 263.302 261.882 263.751L284.309 276.714C284.616 276.892 284.881 277.132 285.089 277.42C285.223 277.213 285.311 276.979 285.344 276.735C285.377 276.49 285.356 276.241 285.281 276.006C285.206 275.771 285.081 275.555 284.912 275.375C284.744 275.195 284.538 275.054 284.309 274.963L261.882 261.987C260.897 261.541 259.82 261.332 258.74 261.378C257.659 261.424 256.604 261.723 255.66 262.252L234.138 274.711C232.705 275.53 232.277 276.689 232.881 277.596C233.198 277.119 233.63 276.729 234.138 276.463Z" fill="#267FE5"/>
<path d="M234.138 278.579L255.66 266.12C256.605 265.593 257.66 265.296 258.741 265.252C259.822 265.208 260.898 265.419 261.882 265.868L284.309 278.831C284.556 278.979 284.777 279.166 284.963 279.385C285.138 279.182 285.262 278.939 285.325 278.677C285.388 278.415 285.387 278.143 285.323 277.881C285.259 277.62 285.133 277.378 284.957 277.175C284.781 276.972 284.559 276.814 284.309 276.715L261.882 263.751C260.898 263.303 259.822 263.092 258.741 263.135C257.66 263.179 256.605 263.476 255.66 264.003L234.138 276.463C232.617 277.345 232.24 278.579 233.032 279.511C233.331 279.126 233.708 278.809 234.138 278.579Z" fill="#25BFEC"/>
<path d="M233.245 281.855C233.509 281.583 233.809 281.35 234.138 281.162L255.659 268.702C256.605 268.176 257.66 267.878 258.741 267.835C259.822 267.791 260.898 268.002 261.882 268.45L284.309 281.414C284.461 281.51 284.604 281.619 284.736 281.741C284.969 281.556 285.149 281.312 285.258 281.035C285.367 280.758 285.402 280.458 285.359 280.163C285.315 279.868 285.196 279.59 285.011 279.356C284.827 279.123 284.585 278.942 284.309 278.831L261.882 265.868C260.898 265.419 259.822 265.208 258.741 265.252C257.66 265.296 256.605 265.593 255.659 266.12L234.138 278.579C232.491 279.524 232.164 280.91 233.245 281.855Z" fill="#18D0F7"/>
</g>
<g style="mix-blend-mode:lighten">
<path d="M159 360C157.418 360.009 155.862 359.601 154.487 358.816C123.235 340.65 89.4818 321.097 88.5012 320.669L88.7903 319.838C89.3812 320.014 125.083 340.713 154.927 358.047C156.153 358.76 157.545 359.135 158.962 359.135C160.38 359.135 161.772 358.76 162.998 358.047L228.82 319.875L229.26 320.644L163.475 358.816C162.112 359.594 160.569 360.002 159 360Z" fill="#8686F2"/>
</g>
</g>
<defs>
<linearGradient id="paint0_linear_291_1300" x1="47.9215" y1="161.683" x2="278.69" y2="161.683" gradientUnits="userSpaceOnUse">
<stop stop-color="#A31FA9"/>
<stop offset="0.07" stop-color="#8B17A0"/>
<stop offset="0.15" stop-color="#740F98"/>
<stop offset="0.24" stop-color="#640A92"/>
<stop offset="0.34" stop-color="#5B078F"/>
<stop offset="0.48" stop-color="#58068E"/>
<stop offset="0.63" stop-color="#4D22A3"/>
<stop offset="0.94" stop-color="#3168DA"/>
<stop offset="1" stop-color="#2C75E4"/>
</linearGradient>
<linearGradient id="paint1_linear_291_1300" x1="71.8277" y1="90.0597" x2="250.199" y2="133.399" gradientUnits="userSpaceOnUse">
<stop stop-color="#8D139B"/>
<stop offset="0.17" stop-color="#851BA1"/>
<stop offset="0.43" stop-color="#6E33B2"/>
<stop offset="0.76" stop-color="#4958CD"/>
<stop offset="1" stop-color="#2979E4"/>
</linearGradient>
<linearGradient id="paint2_linear_291_1300" x1="96.4809" y1="90.0315" x2="229.29" y2="122.275" gradientUnits="userSpaceOnUse">
<stop stop-color="#630692"/>
<stop offset="0.23" stop-color="#5B0E94"/>
<stop offset="0.59" stop-color="#432399"/>
<stop offset="1" stop-color="#2142A1"/>
</linearGradient>
<linearGradient id="paint3_linear_291_1300" x1="47.9215" y1="88.7276" x2="278.69" y2="88.7276" gradientUnits="userSpaceOnUse">
<stop stop-color="#A31FA9"/>
<stop offset="0.07" stop-color="#8B17A0"/>
<stop offset="0.15" stop-color="#740F98"/>
<stop offset="0.24" stop-color="#640A92"/>
<stop offset="0.34" stop-color="#5B078F"/>
<stop offset="0.48" stop-color="#58068E"/>
<stop offset="0.63" stop-color="#4D22A3"/>
<stop offset="0.94" stop-color="#3168DA"/>
<stop offset="1" stop-color="#2C75E4"/>
</linearGradient>
<linearGradient id="paint4_linear_291_1300" x1="71.7428" y1="70.8087" x2="250.133" y2="114.133" gradientUnits="userSpaceOnUse">
<stop stop-color="#8D139B"/>
<stop offset="0.17" stop-color="#851BA1"/>
<stop offset="0.43" stop-color="#6E33B2"/>
<stop offset="0.76" stop-color="#4958CD"/>
<stop offset="1" stop-color="#2979E4"/>
</linearGradient>
<linearGradient id="paint5_linear_291_1300" x1="96.3977" y1="70.7669" x2="229.191" y2="103.044" gradientUnits="userSpaceOnUse">
<stop stop-color="#630692"/>
<stop offset="0.23" stop-color="#5B0E94"/>
<stop offset="0.59" stop-color="#432399"/>
<stop offset="1" stop-color="#2142A1"/>
</linearGradient>
<linearGradient id="paint6_linear_291_1300" x1="47.9215" y1="72.3502" x2="278.69" y2="72.3502" gradientUnits="userSpaceOnUse">
<stop stop-color="#A31FA9"/>
<stop offset="0.07" stop-color="#8B17A0"/>
<stop offset="0.15" stop-color="#740F98"/>
<stop offset="0.24" stop-color="#640A92"/>
<stop offset="0.34" stop-color="#5B078F"/>
<stop offset="0.48" stop-color="#58068E"/>
<stop offset="0.63" stop-color="#4D22A3"/>
<stop offset="0.94" stop-color="#3168DA"/>
<stop offset="1" stop-color="#2C75E4"/>
</linearGradient>
<linearGradient id="paint7_linear_291_1300" x1="71.6909" y1="54.3989" x2="250.058" y2="97.7202" gradientUnits="userSpaceOnUse">
<stop stop-color="#8D139B"/>
<stop offset="0.17" stop-color="#851BA1"/>
<stop offset="0.43" stop-color="#6E33B2"/>
<stop offset="0.76" stop-color="#4958CD"/>
<stop offset="1" stop-color="#2979E4"/>
</linearGradient>
<linearGradient id="paint8_linear_291_1300" x1="96.3332" y1="54.3643" x2="229.146" y2="86.6262" gradientUnits="userSpaceOnUse">
<stop stop-color="#630692"/>
<stop offset="0.23" stop-color="#5B0E94"/>
<stop offset="0.59" stop-color="#432399"/>
<stop offset="1" stop-color="#2142A1"/>
</linearGradient>
<linearGradient id="paint9_linear_291_1300" x1="18.8444" y1="144.083" x2="236.86" y2="223.076" gradientUnits="userSpaceOnUse">
<stop stop-color="#630692"/>
<stop offset="0.23" stop-color="#5B0E94"/>
<stop offset="0.59" stop-color="#432399"/>
<stop offset="1" stop-color="#2142A1"/>
</linearGradient>
<linearGradient id="paint10_linear_291_1300" x1="0.8554" y1="290.497" x2="119.992" y2="290.497" gradientUnits="userSpaceOnUse">
<stop stop-color="#A31FA9"/>
<stop offset="0.07" stop-color="#8B17A0"/>
<stop offset="0.15" stop-color="#740F98"/>
<stop offset="0.24" stop-color="#640A92"/>
<stop offset="0.34" stop-color="#5B078F"/>
<stop offset="0.48" stop-color="#58068E"/>
<stop offset="0.63" stop-color="#4D22A3"/>
<stop offset="0.94" stop-color="#3168DA"/>
<stop offset="1" stop-color="#2C75E4"/>
</linearGradient>
<linearGradient id="paint11_linear_291_1300" x1="0.85523" y1="304.166" x2="119.992" y2="304.166" gradientUnits="userSpaceOnUse">
<stop stop-color="#D4088C"/>
<stop offset="0.23" stop-color="#D4088C"/>
<stop offset="0.51" stop-color="#6EE1F8"/>
<stop offset="0.78" stop-color="#6EE8FC"/>
<stop offset="1" stop-color="#6EE8FC"/>
</linearGradient>
<linearGradient id="paint12_linear_291_1300" x1="18.8927" y1="276.008" x2="110.998" y2="298.361" gradientUnits="userSpaceOnUse">
<stop stop-color="#8D139B"/>
<stop offset="0.17" stop-color="#851BA1"/>
<stop offset="0.43" stop-color="#6E33B2"/>
<stop offset="0.76" stop-color="#4958CD"/>
<stop offset="1" stop-color="#2979E4"/>
</linearGradient>
<linearGradient id="paint13_linear_291_1300" x1="31.6173" y1="275.991" x2="100.196" y2="292.629" gradientUnits="userSpaceOnUse">
<stop stop-color="#630692"/>
<stop offset="0.23" stop-color="#5B0E94"/>
<stop offset="0.59" stop-color="#432399"/>
<stop offset="1" stop-color="#2142A1"/>
</linearGradient>
<linearGradient id="paint14_linear_291_1300" x1="200.849" y1="290.497" x2="319.986" y2="290.497" gradientUnits="userSpaceOnUse">
<stop stop-color="#A31FA9"/>
<stop offset="0.07" stop-color="#8B17A0"/>
<stop offset="0.15" stop-color="#740F98"/>
<stop offset="0.24" stop-color="#640A92"/>
<stop offset="0.34" stop-color="#5B078F"/>
<stop offset="0.48" stop-color="#58068E"/>
<stop offset="0.63" stop-color="#4D22A3"/>
<stop offset="0.94" stop-color="#3168DA"/>
<stop offset="1" stop-color="#2C75E4"/>
</linearGradient>
<linearGradient id="paint15_linear_291_1300" x1="200.849" y1="304.166" x2="319.986" y2="304.166" gradientUnits="userSpaceOnUse">
<stop stop-color="#D4088C"/>
<stop offset="0.23" stop-color="#D4088C"/>
<stop offset="0.51" stop-color="#6EE1F8"/>
<stop offset="0.78" stop-color="#6EE8FC"/>
<stop offset="1" stop-color="#6EE8FC"/>
</linearGradient>
<linearGradient id="paint16_linear_291_1300" x1="219.339" y1="275.746" x2="311.448" y2="298.117" gradientUnits="userSpaceOnUse">
<stop stop-color="#8D139B"/>
<stop offset="0.17" stop-color="#851BA1"/>
<stop offset="0.43" stop-color="#6E33B2"/>
<stop offset="0.76" stop-color="#4958CD"/>
<stop offset="1" stop-color="#2979E4"/>
</linearGradient>
<linearGradient id="paint17_linear_291_1300" x1="232.063" y1="275.728" x2="300.646" y2="292.385" gradientUnits="userSpaceOnUse">
<stop stop-color="#630692"/>
<stop offset="0.23" stop-color="#5B0E94"/>
<stop offset="0.59" stop-color="#432399"/>
<stop offset="1" stop-color="#2142A1"/>
</linearGradient>
<clipPath id="clip0_291_1300">
<rect width="317.119" height="360" fill="white" transform="translate(0.44043)"/>
</clipPath>
</defs>
</svg>
