<svg width="1920" height="1971" viewBox="0 0 1920 1971" fill="none" xmlns="http://www.w3.org/2000/svg">
<g clip-path="url(#clip0_215_12)">
<path d="M1890.59 1697.95C1587.23 1697.95 1283.88 1697.95 980.521 1697.95C840.233 1697.9 699.922 1697.28 559.639 1697.89C521.411 1698.05 490.974 1695.01 456.82 1712.63C405.901 1738.91 379.617 1807.58 349.825 1854.3C322.991 1896.4 280.418 1985.04 214.523 1964.32C153.055 1945.04 99.4988 1811.39 70.465 1765.07C41.7837 1574.46 3.92985 1387.72 0.726418 1194.92C-1.4092 1066.53 -21.9966 956.272 -56.065 833.221C-67.4425 792.131 -72.9471 740.926 -90.0961 702.506C-119.028 637.688 -149.199 607.247 -161.586 530.466C-190.951 348.402 -221.084 166.899 -255.585 -14.2683C-30.2187 -14.2683 195.265 -16.2924 420.626 -14.2683C474.284 -13.7877 515.757 -13.2002 562.346 14.7682C609.709 43.1851 652.421 94.7533 706.452 111.774C814.925 145.953 882.561 7.3929 980.655 -13.072C1073.24 -32.3941 1173.7 -23.0855 1265.79 -43.5878C1361.45 -64.9019 1439.48 -135.669 1540.43 -93.8796C1589.6 -73.5162 1632.45 -34.4822 1684.51 -20.5862C1746.79 -3.96641 1802.22 -30.0015 1860.7 -47.0859C1997.69 -87.1399 2081.58 -33.3767 2216.64 -14.2897C2183.28 159.502 2139.92 331.435 2115.36 506.823C2095.95 645.389 2095.13 781.685 2053.62 916.838C2018.32 1031.78 1952.55 1162.31 1951.11 1282.95C1949.47 1421.74 1917.02 1559.13 1890.59 1697.95Z" stroke="white" stroke-opacity="0.05" stroke-width="4.34" stroke-miterlimit="10"/>
<path d="M2195.9 94.481C1973.61 80.4247 1760.87 40.5202 1542.71 1.88147C1418.38 -20.1322 1357.48 63.3777 1244.61 86.0162C1159.5 103.106 1065.75 79.1109 980.521 94.6091C887.403 111.533 817.184 219.626 719.933 206.931C670.221 200.448 622.88 157.019 582.223 132.26C533.638 102.684 496.478 95.9016 442.036 94.6091C216.691 89.2686 -9.45518 94.6091 -234.864 94.6091" stroke="white" stroke-opacity="0.05" stroke-width="4.34" stroke-miterlimit="10"/>
<path d="M2173.94 200.213C2054.63 208.485 1957.82 219.279 1842.97 178.14C1746.49 143.582 1646.7 137.937 1544.6 133.686C1431.67 128.981 1374.86 180.65 1270.55 208.309C1178.32 232.769 1077.04 201.697 983.442 213.911C888.941 226.253 817.349 319.44 719.362 306.762C613.569 293.074 551.273 209.265 437.113 216.704C388.95 219.829 342.308 234.371 293.963 235.749C239.067 237.319 186.354 223.236 131.122 229.313C82.5366 234.654 37.5605 251.429 -11.9965 250.371C-81.938 248.876 -147.485 218.761 -214.693 201.147" stroke="white" stroke-opacity="0.05" stroke-width="4.34" stroke-miterlimit="10"/>
<path d="M2147.98 313.902C2088.18 339.788 2034.26 370.592 1968.2 375.895C1917.48 379.964 1863.68 375.895 1812.86 375.425C1714.62 374.501 1618.92 383.97 1521.17 388.723C1435 392.937 1346.95 392.205 1260.62 390.619C1175.03 389.049 1082.66 367.788 997.521 375.356C903.26 383.735 834.408 451.063 736.564 438.764C636.874 426.208 521.022 353.422 423.237 401.588C379.27 423.26 349.387 467.063 305.517 488.537C235.281 522.968 167.16 449.156 100.78 499.304C70.9615 521.83 74.7362 587.572 28.8205 592.624C-53.4009 601.703 -151.597 401.471 -190.492 349.588" stroke="white" stroke-opacity="0.05" stroke-width="4.34" stroke-miterlimit="10"/>
<path d="M2125.41 440.345C2017.11 486.375 1914.26 482.326 1798.54 483.966C1702.32 485.333 1609.11 495.929 1513.49 501.301C1428.54 506.07 1342.33 496.655 1257.42 492.757C1170.84 488.794 1079.69 462.369 993.303 466.876C901.658 471.635 823.628 529.563 730.029 519.005C632.442 507.998 523.478 429.583 426.115 470.914C379.195 490.829 343.392 535.817 301.454 563.268C232.719 608.262 174.101 552.352 110.641 589.97C77.7956 609.431 73.4603 661.651 35.1046 675.029C-47.5332 703.868 -137.154 517.238 -170.71 469.509" stroke="white" stroke-opacity="0.05" stroke-width="4.34" stroke-miterlimit="10"/>
<path d="M2107.31 569.318C1996.52 593.41 1875.56 581.19 1763.19 581.19C1679.53 581.19 1599.08 593.281 1515.92 598.28C1427.71 603.551 1336.63 592.058 1248.53 585.666C1159.65 579.22 1073.94 544.966 985.022 544.544C895.892 544.138 809.037 589.025 719.896 582.093C623.35 574.573 539.057 493.291 441.021 511.245C381.283 522.183 336.568 569.847 284.977 598.349C242.35 621.901 197.449 618.35 153.818 637.65C115.366 654.66 86.9573 700.023 46.3485 711.729C-52.1729 740.071 -101.5 642.676 -154.752 574.905" stroke="white" stroke-opacity="0.05" stroke-width="4.34" stroke-miterlimit="10"/>
<path d="M2101.19 677.902C1906.57 643.776 1700.22 663.13 1503.96 671.643C1417.83 675.381 1327.38 694.308 1241.52 689.219C1149.61 683.771 1074.01 608.812 982.609 610.825C887.542 612.924 825.855 722.736 729.421 716.819C613.377 709.694 536.355 567.914 419.756 568.48C367.748 568.731 328.667 609.816 286.28 632.668C250.199 652.129 221.026 649.822 182.585 660.567C140.882 672.241 114.918 704.359 75.4837 720.253C-1.83099 751.383 -56.9246 702.041 -119.199 659.232" stroke="white" stroke-opacity="0.05" stroke-width="4.34" stroke-miterlimit="10"/>
<path d="M2088.31 774.347C1910.95 721.561 1697.39 734.069 1512.5 743.794C1419.23 748.702 1317.52 797.06 1225.15 788.617C1134.19 780.307 1072.27 675.397 980.66 681.464C879.752 688.151 848.3 837.76 748.241 843.282C620.867 850.279 538.363 670.543 424.043 638.345C375.816 624.759 352.19 635.835 309.718 656.663C294.036 671.713 275.162 683.031 254.502 689.774C236.178 700.359 216.506 701.328 195.484 692.679C152.649 701.694 136.386 725.518 97.1015 741.316C38.372 764.931 -25.6272 741.07 -83.2568 726.688" stroke="white" stroke-opacity="0.05" stroke-width="4.34" stroke-miterlimit="10"/>
<path d="M2069.96 850.278C1897.16 798.561 1687.07 830.657 1507.07 837.349C1417.09 840.698 1323.68 878.925 1234.25 870.247C1140.92 861.168 1074.54 765.54 980.532 765.289C894.21 765.06 842.656 861.606 761.855 877.12C631.583 902.124 543.088 735.772 420.397 731.996C330.113 729.214 308.047 859.523 218.768 851.859C180.983 848.612 152.12 815.421 118.335 802.422C60.812 780.291 -9.8022 787.319 -69.7543 783.196" stroke="white" stroke-opacity="0.05" stroke-width="4.34" stroke-miterlimit="10"/>
<path d="M2052.1 923.956C1946.64 895.321 1843.47 915.476 1735.71 919.615C1660.21 922.509 1584.62 923.033 1509.1 926.119C1419.7 929.772 1324.49 961.693 1235.55 951.353C1142.49 940.533 1074.74 853.622 980.495 849.675C900.526 846.342 837.2 916.432 760.2 924.784C639.655 937.89 543.606 811.848 427.951 824.27C336.344 834.107 326.942 992.871 235.212 990.51C180.348 989.095 163.743 911.892 135.099 880.842C84.9125 826.438 12.8354 837.146 -54.3885 839.72" stroke="white" stroke-opacity="0.05" stroke-width="4.34" stroke-miterlimit="10"/>
<path d="M2036.48 963.653C1965.8 957.025 1926.9 962.553 1861.79 992.946C1816.35 1014.16 1773.87 1042.82 1722.24 1044.87C1635.39 1048.32 1574.35 976.507 1486.07 975.658C1400.85 974.841 1316.34 1008.99 1230.92 1003.32C1140.84 997.33 1068.84 925.051 978.386 925.601C899.747 926.077 840.473 987.952 764.333 998.291C653.414 1013.35 569.5 914.146 462.96 908.57C342.297 902.242 354.967 1085.34 260.759 1100.79C205.543 1109.83 155.292 992.15 132.894 962.836C87.913 903.951 37.3843 906.375 -33.4702 910.765" stroke="white" stroke-opacity="0.05" stroke-width="4.34" stroke-miterlimit="10"/>
<path d="M2021.31 1011.38C1938.79 1012.2 1909.76 1033.27 1846.19 1087.4C1816.33 1112.84 1775.89 1158.29 1734.61 1165.23C1635.02 1181.96 1586.02 1037.26 1487.54 1027.45C1401.94 1018.9 1314.02 1056.55 1227.67 1054.04C1140.7 1051.5 1063.13 994.174 976.202 996.657C898.668 998.873 842.774 1063.95 768.049 1073.47C671.108 1085.84 588.15 1010.84 497.012 992.86C356.83 965.169 350.477 1207.95 255.458 1191.41C201.501 1182.02 156.835 1082.24 130.262 1043.95C88.511 983.861 62.2429 975.06 -13.5662 979.268" stroke="white" stroke-opacity="0.05" stroke-width="4.34" stroke-miterlimit="10"/>
<path d="M1992.52 1119.25C1931 1123.88 1901.4 1136 1849.49 1164.93C1810.28 1186.79 1765.14 1228.54 1716.3 1225.81C1658.1 1222.58 1634.26 1165.95 1585.76 1144.92C1543.19 1126.46 1523.58 1149.94 1484.07 1158.33C1399.61 1176.25 1313.7 1123.72 1230.05 1114.45C1148.92 1105.46 1059.51 1076.18 978.14 1081.51C898.786 1086.71 840.441 1151.39 762.843 1158.64C663.046 1167.96 605.464 1072.25 513.157 1058.9C384.86 1040.33 378.806 1219.05 272.425 1232.83C214.859 1240.31 176.536 1159.48 141.618 1117.17C95.4144 1061.18 68.8633 1038.75 -7.55981 1037.84" stroke="white" stroke-opacity="0.05" stroke-width="4.34" stroke-miterlimit="10"/>
<path d="M1958.62 1236.88C1878.8 1241.52 1782.97 1287.97 1704.7 1275.56C1659.73 1268.43 1625.23 1223.34 1578.07 1227.24C1528.62 1231.33 1505.21 1300.1 1466.01 1307.5C1378.66 1323.99 1312.92 1182.44 1226.75 1165.85C1156.5 1152.32 1051.43 1156.18 980.377 1164.36C901.055 1173.47 840.403 1237.77 762.64 1245.6C662.912 1255.64 630.931 1149.61 546.74 1121.31C431.416 1082.54 384.967 1239.6 277.39 1240.3C220.102 1240.68 187.871 1198.37 147.465 1162C97.1976 1116.74 62.7341 1093.09 -7.29285 1088.19" stroke="white" stroke-opacity="0.05" stroke-width="4.34" stroke-miterlimit="10"/>
<path d="M1950.53 1297.41C1864.71 1302.48 1777.04 1327.45 1691.08 1319.89C1651.39 1316.39 1619.97 1303.98 1579.32 1313.45C1535.61 1323.63 1492.82 1385.31 1448.51 1385.24C1403.66 1385.18 1359 1321.04 1328.32 1296.26C1284.46 1260.83 1263.22 1246.01 1206.59 1237.25C1142.29 1227.3 1046.84 1227.18 981.53 1235.57C901.018 1245.9 842.491 1319.07 764.007 1326.41C679.613 1334.31 635.747 1254.67 568.064 1220.4C447.807 1159.48 397.706 1318.1 295.858 1350.55C234.582 1370.08 202.633 1341.59 160.599 1298.22C107.838 1243.83 76.8719 1198.83 0.555542 1175.86" stroke="white" stroke-opacity="0.05" stroke-width="4.34" stroke-miterlimit="10"/>
<path d="M1957.89 1323.16C1872.54 1324.34 1768.61 1314.62 1685.68 1334.63C1608.37 1353.27 1519.37 1466.7 1438.64 1446.24C1345.18 1422.6 1306.99 1322.31 1203.64 1308.21C1140.61 1299.61 1047.77 1292.93 984.152 1302.34C902.79 1314.37 854.899 1393.02 776.954 1408.11C700.878 1422.84 644.589 1363.25 578.491 1338.32C445.474 1288.12 401.464 1451.25 306.953 1511.88C245.607 1551.25 215.212 1546.38 167.967 1489.3C110.268 1419.58 76.9733 1348.31 0.699707 1294.08" stroke="white" stroke-opacity="0.05" stroke-width="4.34" stroke-miterlimit="10"/>
<path d="M1951.57 1377.7C1871.25 1377.7 1758.88 1358.95 1683.28 1388.12C1602.5 1419.29 1538.94 1537.57 1441.2 1505.02C1356.17 1476.72 1309.97 1391.87 1216.91 1377.63C1148.77 1367.2 1053.14 1362.33 984.99 1371.85C905.438 1382.98 861.584 1455.43 786.912 1476.15C706.458 1498.49 647.755 1438.66 574.348 1417.77C440.023 1379.54 399.062 1539.76 308.88 1606.2C253.947 1646.67 224.523 1663.92 174.048 1605.69C112.441 1534.66 77.6835 1449.91 9.45581 1382.26" stroke="white" stroke-opacity="0.05" stroke-width="4.34" stroke-miterlimit="10"/>
<path d="M1938.73 1445.14C1854.12 1445.14 1756.67 1432.78 1673.99 1451.84C1591.81 1470.77 1523.08 1523.47 1435.1 1507.3C1357.8 1493.08 1293.85 1450.52 1213.76 1445.11C1140.67 1440.17 1055.34 1433.62 982.7 1442.66C903.89 1452.46 853.842 1517.39 779.111 1535.82C695.171 1556.52 652.175 1492.45 581.492 1462.12C453.809 1407.33 396.286 1586.12 320.332 1656.6C272.041 1701.4 242.916 1738.5 184.721 1685.89C118.41 1625.93 80.465 1526.28 22.3121 1457.51" stroke="white" stroke-opacity="0.05" stroke-width="4.34" stroke-miterlimit="10"/>
<path d="M1926.22 1510.82C1756.88 1510.82 1587.19 1517.76 1417.99 1514.91C1275.48 1512.49 1122.47 1494.48 980.639 1510.64C903.324 1519.43 850.5 1578.86 777.307 1594.3C686.276 1613.53 665.133 1554.82 596.569 1512.93C463.355 1431.51 398.411 1632.38 324.07 1712.85C283.125 1757.18 253.85 1808.03 191.41 1758.71C125.457 1706.6 84.6882 1600.28 34.8162 1533.96" stroke="white" stroke-opacity="0.05" stroke-width="4.34" stroke-miterlimit="10"/>
<path d="M1914.04 1574.8H1401.71C1263.19 1574.8 1118.42 1562.75 980.521 1575.7C909.592 1582.36 851.909 1621.84 783.922 1638.81C693.729 1661.33 660.36 1608.85 585.918 1573.29C465.875 1515.92 413.034 1653.25 352.602 1738.77C318.015 1787.72 267.561 1875.64 198.1 1829.09C132.964 1785.43 89.8831 1673.05 47.0052 1611.02" stroke="white" stroke-opacity="0.05" stroke-width="4.34" stroke-miterlimit="10"/>
<path d="M1902.16 1637.16C1595.35 1637.16 1287.21 1628.84 980.521 1637.22C914.733 1639.02 851.669 1654.64 786.426 1661.01C710.51 1668.43 647.845 1649.7 574.375 1636.66C449.692 1614.54 417.359 1696.98 353.119 1793.07C324.684 1835.61 276.029 1932 208.063 1899.43C143.199 1868.34 94.6669 1743.18 58.8739 1688.2" stroke="white" stroke-opacity="0.05" stroke-width="4.34" stroke-miterlimit="10"/>
<path d="M157.123 1902.77C125.916 1674.96 95.3183 1452.03 90.6573 1221.85C88.1853 1099.55 101.869 951.348 68.607 832.34C63.8019 815.197 42.6806 738.597 32.0773 729.545C-2.81338 699.782 -29.6367 759.228 -42.931 682.207C-82.6748 451.95 -98.0886 216.646 -137.87 -14.279" stroke="white" stroke-opacity="0.05" stroke-width="4.34" stroke-miterlimit="10"/>
<path d="M243.792 1970.82C211.32 1761.68 185.511 1555.19 176.765 1343.46C173.509 1264.77 165.5 1191.35 155.356 1114.18C145.98 1042.87 156.504 973.186 153.466 901.446C152.078 868.783 144.736 731.195 116.114 712.306C79.8084 688.327 77.2616 756.146 55.3715 679.531C31.2764 595.193 42.072 489.146 33.3693 402.24C19.3704 262.435 1.23362 124.42 -20.1439 -14.279" stroke="white" stroke-opacity="0.05" stroke-width="4.34" stroke-miterlimit="10"/>
<path d="M330.477 1885.34C304.646 1703.06 279.222 1523.6 267.145 1339.13C259.083 1215.72 227.924 1098.66 213.381 974.793C206.643 917.42 201.475 859.742 195.271 802.294C191.576 768.157 196.274 709.369 181.56 677.811C167.299 647.269 163.759 676.209 157.267 665.566C151.069 655.419 135.799 629.629 128.196 612.096C85.0673 512.661 109.109 436.393 113.087 323.12C117.171 206.739 113.241 100.687 97.6034 -14.295" stroke="white" stroke-opacity="0.05" stroke-width="4.34" stroke-miterlimit="10"/>
<path d="M417.172 1748.97C419.841 1679.27 434.492 1616.11 415.1 1548.55C392.917 1471.25 386.739 1396.63 380.546 1315.84C377.343 1274.19 380.082 1226.25 359.361 1189.42C350.407 1173.51 336.558 1171.16 327.503 1152.25C301.779 1098.53 306.056 999.461 298.88 941.831C284.716 828.078 251.95 710.613 242.286 600.71C235.783 526.728 250.514 439.533 247.508 362.367C242.574 235.93 230.102 111.277 215.303 -14.279" stroke="white" stroke-opacity="0.05" stroke-width="4.34" stroke-miterlimit="10"/>
<path d="M503.841 1697.9C510.936 1614.1 537.023 1534.45 517.904 1451.39C499.431 1371.11 492.362 1291.08 484.866 1208.36C481.748 1173.93 481.913 1136.99 466.585 1105.05C453.723 1078.26 427.935 1060.19 415.49 1032.25C391.464 978.27 379.98 904.458 371.091 846.294C327.876 563.679 361.811 274.286 333.029 -14.279" stroke="white" stroke-opacity="0.05" stroke-width="4.34" stroke-miterlimit="10"/>
<path d="M590.488 1697.93C594.348 1622.34 607.92 1550.61 600.413 1474.57C592.896 1398.27 585.814 1321.94 579.169 1245.59C566.318 1096.77 491.006 970.627 467.156 822.129C457.685 763.164 449.724 696.551 451.635 636.849C453.355 582.985 469.745 534.69 467.54 479.971C460.893 314.751 464.241 150.829 450.765 -14.279" stroke="white" stroke-opacity="0.05" stroke-width="4.34" stroke-miterlimit="10"/>
<path d="M677.135 1698.04C665.389 1568.04 680.173 1441.09 664.914 1310.5C647.947 1165.24 617.605 1022.41 599.356 878.023C584.263 758.608 576.051 629.731 585.533 510.135C598.315 348.893 580.103 183.139 571.721 20.9899" stroke="white" stroke-opacity="0.05" stroke-width="4.34" stroke-miterlimit="10"/>
<path d="M763.836 1698.01C758.246 1577.75 772.971 1463.16 754.995 1343.11C743.863 1268.81 746.778 1195.67 746.036 1120.82C745.374 1053.3 726.735 988.187 725.464 921.201C724.754 883.87 728.913 848.623 726.367 811.031C720.755 728.253 689.33 633.458 705.544 551.374C734.076 406.923 695.811 257.554 697.392 107.747" stroke="white" stroke-opacity="0.05" stroke-width="4.34" stroke-miterlimit="10"/>
<path d="M850.5 1697.97C846.335 1566.59 860.254 1437.13 845.929 1306.43C831.268 1172.62 830.024 1030.44 827.664 895.694C825.684 782.475 802.838 655.461 816.912 544.923C825.454 477.68 831.519 429.396 822.736 358.581C811.482 267.792 811.316 184.64 813.804 93.5464" stroke="white" stroke-opacity="0.05" stroke-width="4.34" stroke-miterlimit="10"/>
<path d="M937.184 1697.9C934.552 1415.24 928.973 1132.66 929.277 849.937C929.395 739.793 920.201 625.127 930.996 515.529C947.697 345.956 923.719 176.111 923.426 4.97363" stroke="white" stroke-opacity="0.05" stroke-width="4.34" stroke-miterlimit="10"/>
<path d="M1023.85 1697.95C1026.41 1416.25 1026.72 1134.49 1032.93 853.024C1035.56 733.604 1033.14 615.231 1045.18 496.196C1062.36 326.367 1037.85 153.302 1039.34 -17.8358" stroke="white" stroke-opacity="0.05" stroke-width="4.34" stroke-miterlimit="10"/>
<path d="M1110.51 1697.95C1117.65 1435.52 1128.2 1173.56 1142.15 912.068C1158.59 596.79 1149.4 281.859 1156.81 -34.1084" stroke="white" stroke-opacity="0.05" stroke-width="4.34" stroke-miterlimit="10"/>
<path d="M1197.2 1697.95C1204.5 1536.91 1211.8 1375.86 1219.09 1214.81C1223.39 1123.38 1240.55 1035.52 1248.42 945.703C1253.94 882.722 1241.34 819.197 1246.22 755.879C1251.88 682.527 1264.54 610.579 1268.4 536.955C1278.54 342.837 1266.87 148.698 1274.48 -45.6973" stroke="white" stroke-opacity="0.05" stroke-width="4.34" stroke-miterlimit="10"/>
<path d="M1283.88 1697.95C1300.14 1441.67 1334.35 1187.02 1358.67 933.19C1364.73 869.98 1352.34 805.552 1355.52 741.898C1359.01 672.06 1366.44 602.312 1370.24 532.442C1381.57 324.46 1379.73 116.377 1392.46 -91.6152" stroke="white" stroke-opacity="0.05" stroke-width="4.34" stroke-miterlimit="10"/>
<path d="M1370.55 1697.95C1391.82 1437.3 1447.93 1179.11 1471.71 918.541C1483.08 793.957 1464.34 663.921 1473.37 537.489C1488.68 323.333 1491.74 108.879 1510.28 -105.068" stroke="white" stroke-opacity="0.05" stroke-width="4.34" stroke-miterlimit="10"/>
<path d="M1457.22 1697.95C1463.51 1634.94 1464.7 1568.71 1478.82 1506.9C1502.55 1534.87 1503.01 1410.37 1503.45 1407.32C1515.6 1323.72 1526.94 1240.4 1537.29 1156.56C1550.94 1045.72 1568.02 937.447 1562.71 826.048C1548.96 538.082 1594.05 238.937 1628.01 -45.895" stroke="white" stroke-opacity="0.05" stroke-width="4.34" stroke-miterlimit="10"/>
<path d="M1543.89 1697.95C1574.95 1434.52 1634.57 1180.5 1641.67 913.297C1643.46 845.851 1631.53 779.004 1639.64 711.793C1646.88 651.573 1660.4 592.021 1668.04 531.689C1691.15 349.075 1723.78 166.023 1745.73 -15.7156" stroke="white" stroke-opacity="0.05" stroke-width="4.34" stroke-miterlimit="10"/>
<path d="M1630.57 1697.95C1666.54 1433.53 1716.2 1177.45 1733.08 911.321C1737.26 845.29 1730.6 777.348 1744.21 712.317C1757.13 650.559 1779.9 593.661 1788.89 530.61C1816.33 338.095 1837.9 144.575 1863.46 -48.2234" stroke="white" stroke-opacity="0.05" stroke-width="4.34" stroke-miterlimit="10"/>
<path d="M1717.24 1697.95C1758.08 1433.01 1805.51 1170.46 1842.23 905.419C1850.53 845.541 1855.49 780.926 1872.6 722.629C1894.05 649.512 1927.79 596.699 1930.48 517.942C1937.19 321.074 1957.11 125.184 1981.2 -70.5255" stroke="white" stroke-opacity="0.05" stroke-width="4.34" stroke-miterlimit="10"/>
<path d="M1803.91 1697.95C1827.3 1562.2 1851.43 1426.62 1861.85 1291.16C1871.92 1160.34 1921.33 1027.34 1951.17 898.936C1979.13 778.641 2041.65 649.223 2041.26 526.829C2040.66 336.209 2068.94 147.117 2098.92 -40.9817" stroke="white" stroke-opacity="0.05" stroke-width="4.34" stroke-miterlimit="10"/>
<path d="M903 1650C903 1650 905.545 1645 910 1645C914.454 1645 917 1650 917 1650C917 1650 914.454 1655 910 1655C905.545 1655 903 1650 903 1650Z" stroke="black" stroke-width="2" stroke-linecap="round" stroke-linejoin="round"/>
<path d="M919 1655V1657C919 1657.53 918.789 1658.04 918.414 1658.41C918.039 1658.79 917.53 1659 917 1659H903C902.47 1659 901.961 1658.79 901.586 1658.41C901.211 1658.04 901 1657.53 901 1657V1655M919 1645V1643C919 1642.47 918.789 1641.96 918.414 1641.59C918.039 1641.21 917.53 1641 917 1641H903C902.47 1641 901.961 1641.21 901.586 1641.59C901.211 1641.96 901 1642.47 901 1643V1645M910 1651C910.265 1651 910.52 1650.89 910.707 1650.71C910.895 1650.52 911 1650.27 911 1650C911 1649.73 910.895 1649.48 910.707 1649.29C910.52 1649.11 910.265 1649 910 1649C909.735 1649 909.48 1649.11 909.293 1649.29C909.105 1649.48 909 1649.73 909 1650C909 1650.27 909.105 1650.52 909.293 1650.71C909.48 1650.89 909.735 1651 910 1651Z" stroke="black" stroke-width="2" stroke-linecap="round" stroke-linejoin="round"/>
</g>
<defs>
<clipPath id="clip0_215_12">
<rect width="2475" height="2079" fill="white" transform="translate(-257 -108)"/>
</clipPath>
</defs>
</svg>
