<svg width="310" height="360" viewBox="0 0 310 360" fill="none" xmlns="http://www.w3.org/2000/svg">
<g clip-path="url(#clip0_291_1462)">
<path opacity="0.8" d="M151.135 356.647L29.4412 286.024C20.798 280.994 21.8724 272.225 31.8786 266.421L148.714 198.619C158.704 192.816 173.81 192.171 182.389 197.217L304.067 267.84C312.726 272.853 311.636 281.623 301.645 287.426L184.89 355.196C174.9 360.983 159.778 361.628 151.135 356.647Z" fill="#0C0F38"/>
<path d="M309.984 83.1005H249.642L182.469 44.1053C173.81 39.0919 158.704 39.7206 148.794 45.5239L84.0265 83.1005H23.6365V253.041C23.396 256.443 25.24 259.715 29.4253 262.133L151.119 332.757C159.763 337.786 174.884 337.157 184.874 331.354L301.71 263.536C306.905 260.521 309.727 256.717 309.936 253.041L309.984 83.1005Z" fill="url(#paint0_linear_291_1462)"/>
<path d="M38.9184 83.1005H23.6365V253.041C23.5696 254.309 23.7838 255.575 24.2636 256.749C24.7434 257.922 25.4768 258.974 26.4107 259.828C25.168 258.241 24.5462 256.251 24.6628 254.234V84.2934H40.105L38.9184 83.1005Z" fill="#D4088C"/>
<path d="M290.677 83.1005C290.565 83.439 290.453 83.7775 290.324 84.1322H308.909V254.057C308.616 256.642 307.423 259.04 305.542 260.827C307.987 258.921 309.588 256.124 310 253.041V83.1005H290.677Z" fill="#6DE0F6"/>
<g style="mix-blend-mode:lighten" opacity="0.5">
<path d="M66.2591 283.493V86.389H44.3545V270.774L66.2591 283.493Z" fill="#D4088C"/>
</g>
<g style="mix-blend-mode:lighten" opacity="0.3">
<path d="M79.713 291.311V99.6239H73.7317V287.829L79.713 291.311Z" fill="#D4088C"/>
</g>
<g style="mix-blend-mode:lighten" opacity="0.15">
<path d="M90.4407 297.534V101.945H84.4434V294.052L90.4407 297.534Z" fill="#D4088C"/>
</g>
<path d="M151.135 162.816L29.4412 92.273C20.798 87.2596 21.8724 78.474 31.8786 72.6868L148.714 4.86839C158.704 -0.934937 173.81 -1.57974 182.389 3.46593L304.067 74.0892C312.726 79.1188 311.636 87.8883 301.645 93.6755L184.81 161.494C174.9 167.217 159.778 167.845 151.135 162.816Z" fill="url(#paint1_linear_291_1462)"/>
<path d="M152.466 162.816L30.7882 92.273C22.129 87.2596 23.2194 78.474 33.2096 72.6868L150.045 4.86842C155.335 1.96286 161.227 0.339928 167.251 0.129028C160.776 0.137412 154.406 1.7662 148.714 4.86842L31.8786 72.6062C21.8724 78.3934 20.798 87.1145 29.4412 92.1924L151.135 162.816C156.237 165.45 161.967 166.606 167.684 166.153C162.409 166.396 157.162 165.245 152.466 162.816Z" fill="#D4088C"/>
<path d="M304.147 74.0086L182.469 3.3853C177.356 0.752087 171.616 -0.403073 165.888 0.048385C171.094 -0.162569 176.266 0.987152 180.897 3.3853L302.592 74.0086C311.235 79.0382 310.16 87.8077 300.17 93.5949L183.335 161.413C178.051 164.32 172.164 165.943 166.145 166.153C172.69 166.178 179.136 164.548 184.89 161.413L301.726 93.5949C311.716 87.8077 312.806 79.0382 304.147 74.0086Z" fill="#6DE0F6"/>
<path d="M165.984 145.47C162.117 145.576 158.287 144.688 154.856 142.891L64.2707 90.3224C62.9809 89.7209 61.8769 88.7802 61.0752 87.5997C60.2736 86.4193 59.8041 85.043 59.7166 83.6164C59.7166 80.489 62.0257 77.3456 66.1308 75.0081L153.156 24.4385C160.693 20.0538 172.158 19.6024 178.701 23.3907L269.302 75.9753C270.589 76.5756 271.692 77.5138 272.493 78.6912C273.295 79.8686 273.765 81.2415 273.856 82.6653C273.856 85.7926 271.531 88.9361 267.442 91.2897L180.416 141.779C175.995 144.22 171.029 145.49 165.984 145.47ZM167.476 21.7303C162.589 21.6914 157.772 22.9006 153.477 25.2445L66.5638 75.6529C62.7954 77.8453 60.6306 80.7147 60.6306 83.5358C60.7223 84.8123 61.155 86.0402 61.8832 87.09C62.6114 88.1398 63.608 88.9726 64.7678 89.5003L155.369 142.085C161.671 145.744 172.767 145.309 180.08 141.037L267.009 90.5481C270.793 88.3558 272.958 85.4863 272.958 82.6653C272.859 81.3907 272.424 80.1657 271.697 79.117C270.969 78.0683 269.976 77.2341 268.821 76.7007L178.22 24.1161C174.941 22.4017 171.282 21.553 167.588 21.6497L167.476 21.7303Z" fill="#480689"/>
<path d="M188.434 174.89L291.383 115.035C291.892 114.664 292.31 114.18 292.605 113.621C292.899 113.062 293.063 112.443 293.083 111.811V110.005C293.083 108.748 292.313 108.168 291.383 108.716L188.434 168.619C187.925 168.99 187.507 169.474 187.212 170.033C186.918 170.592 186.754 171.211 186.734 171.843V173.536C186.654 174.842 187.424 175.422 188.434 174.89Z" fill="#6DE0F6"/>
<path d="M289.041 113.729C289.553 113.361 289.973 112.877 290.268 112.318C290.563 111.759 290.725 111.138 290.741 110.505V109.119L291.302 108.813C292.232 108.264 293.002 108.813 293.002 110.102V111.795C292.982 112.427 292.819 113.046 292.524 113.605C292.23 114.164 291.812 114.648 291.302 115.019L188.434 174.874C187.504 175.422 186.734 174.874 186.734 173.584V173.262L289.041 113.729Z" fill="#267FE5"/>
<path d="M188.434 193.09L291.383 133.235C291.892 132.864 292.31 132.38 292.605 131.821C292.899 131.262 293.063 130.643 293.083 130.011V128.399C293.083 127.141 292.313 126.561 291.383 127.093L188.434 186.819C187.925 187.19 187.507 187.674 187.212 188.233C186.918 188.792 186.754 189.411 186.734 190.043V191.736C186.654 193.058 187.424 193.638 188.434 193.09Z" fill="#6DE0F6"/>
<path d="M289.041 131.945C289.553 131.576 289.973 131.093 290.268 130.534C290.563 129.975 290.725 129.354 290.741 128.721V127.335L291.302 127.012C292.232 126.48 293.002 127.012 293.002 128.318V129.93C292.982 130.562 292.819 131.182 292.524 131.74C292.23 132.299 291.812 132.783 291.302 133.154L188.434 193.09C187.504 193.638 186.734 193.09 186.734 191.8V191.478L289.041 131.945Z" fill="#267FE5"/>
<path d="M188.434 211.306L291.383 151.451C291.892 151.08 292.31 150.596 292.605 150.037C292.899 149.478 293.063 148.859 293.083 148.227V146.534C293.083 145.261 292.313 144.68 291.383 145.228L188.434 205.115C187.925 205.487 187.507 205.97 187.212 206.529C186.918 207.088 186.754 207.707 186.734 208.34V209.952C186.654 211.273 187.424 211.854 188.434 211.306Z" fill="#6DE0F6"/>
<path d="M289.041 150.161C289.553 149.792 289.973 149.309 290.268 148.75C290.563 148.191 290.725 147.57 290.741 146.937V145.47L291.302 145.148C292.232 144.6 293.002 145.148 293.002 146.453V148.146C292.982 148.778 292.819 149.398 292.524 149.956C292.23 150.515 291.812 150.999 291.302 151.37L188.434 211.306C187.504 211.854 186.734 211.306 186.734 210.016V209.694L289.041 150.161Z" fill="#267FE5"/>
<path d="M188.434 229.522L291.303 169.651C291.812 169.279 292.23 168.796 292.525 168.237C292.819 167.678 292.983 167.059 293.002 166.427V164.718C293.002 163.461 292.233 162.88 291.303 163.428L188.434 223.251C187.925 223.622 187.507 224.106 187.212 224.665C186.918 225.224 186.754 225.843 186.734 226.475V228.168C186.654 229.49 187.424 230.07 188.434 229.522Z" fill="#6DE0F6"/>
<path d="M289.041 168.361C289.556 167.995 289.978 167.513 290.273 166.953C290.569 166.393 290.729 165.771 290.741 165.137V163.767L291.302 163.444C292.232 162.896 293.002 163.444 293.002 164.734V166.427C292.982 167.059 292.819 167.678 292.524 168.237C292.23 168.796 291.812 169.279 291.302 169.651L188.434 229.522C187.504 230.07 186.734 229.522 186.734 228.216V227.91L289.041 168.361Z" fill="#267FE5"/>
<path d="M188.434 247.722L291.383 187.867C291.895 187.498 292.315 187.015 292.61 186.456C292.905 185.896 293.066 185.276 293.083 184.643V182.95C293.083 181.693 292.313 181.112 291.383 181.661L188.434 241.467C187.922 241.836 187.502 242.319 187.207 242.878C186.912 243.438 186.751 244.058 186.734 244.691V246.384C186.654 247.69 187.424 248.27 188.434 247.722Z" fill="#6DE0F6"/>
<path d="M289.041 186.577C289.553 186.208 289.973 185.725 290.268 185.166C290.563 184.607 290.725 183.986 290.741 183.353V181.967L291.302 181.66C292.232 181.112 293.002 181.66 293.002 182.95V184.643C292.986 185.276 292.824 185.896 292.529 186.456C292.234 187.015 291.814 187.498 291.302 187.867L188.434 247.722C187.504 248.27 186.734 247.722 186.734 246.432V246.11L289.041 186.577Z" fill="#267FE5"/>
<path d="M188.434 265.938L291.383 206.083C291.892 205.712 292.31 205.228 292.605 204.669C292.899 204.11 293.063 203.491 293.083 202.859V201.247C293.083 199.973 292.313 199.393 291.383 199.941L188.434 259.667C187.925 260.038 187.507 260.522 187.212 261.081C186.918 261.64 186.754 262.259 186.734 262.891V264.6C186.654 265.906 187.424 266.486 188.434 265.938Z" fill="#6DE0F6"/>
<path d="M289.041 204.793C289.553 204.424 289.973 203.941 290.268 203.382C290.563 202.823 290.725 202.202 290.741 201.569V200.183L291.302 199.86C292.232 199.312 293.002 199.86 293.002 201.166V202.778C292.982 203.41 292.819 204.03 292.524 204.588C292.23 205.147 291.812 205.631 291.302 206.002L188.434 265.938C187.504 266.486 186.734 265.938 186.734 264.648V264.326L289.041 204.793Z" fill="#267FE5"/>
<path d="M188.434 284.105L291.383 224.25C291.892 223.879 292.31 223.395 292.605 222.837C292.899 222.278 293.063 221.659 293.083 221.026V219.318C293.083 218.06 292.313 217.48 291.383 218.028L188.434 277.883C187.925 278.254 187.507 278.738 187.212 279.297C186.918 279.856 186.754 280.475 186.734 281.107V282.8C186.654 284.105 187.424 284.702 188.434 284.105Z" fill="#6DE0F6"/>
<path d="M289.041 223.009C289.553 222.641 289.973 222.158 290.268 221.598C290.563 221.039 290.725 220.418 290.741 219.785V218.415L291.302 218.093C292.232 217.544 293.002 218.093 293.002 219.382V221.091C292.982 221.723 292.819 222.342 292.524 222.901C292.23 223.46 291.812 223.944 291.302 224.315L188.434 284.105C187.504 284.654 186.734 284.105 186.734 282.8V282.493L289.041 223.009Z" fill="#267FE5"/>
<path d="M188.434 302.37L291.383 242.515C291.892 242.143 292.31 241.66 292.605 241.101C292.899 240.542 293.063 239.923 293.083 239.291V237.679C293.083 236.421 292.313 235.841 291.383 236.389L188.434 296.099C187.925 296.47 187.507 296.954 187.212 297.513C186.918 298.071 186.754 298.691 186.734 299.323V300.935C186.654 302.321 187.424 302.902 188.434 302.37Z" fill="#6DE0F6"/>
<path d="M289.041 241.209C289.553 240.84 289.973 240.357 290.268 239.798C290.563 239.238 290.725 238.618 290.741 237.985V236.615L291.302 236.292C292.232 235.744 293.002 236.292 293.002 237.582V239.194C292.982 239.826 292.819 240.445 292.524 241.004C292.23 241.563 291.812 242.047 291.302 242.418L188.434 302.37C187.504 302.902 186.734 302.37 186.734 301.064V300.741L289.041 241.209Z" fill="#267FE5"/>
<path d="M188.434 320.569L291.383 260.715C291.892 260.343 292.31 259.86 292.605 259.301C292.899 258.742 293.063 258.123 293.083 257.491V255.878C293.083 254.621 292.313 254.041 291.383 254.573L188.434 314.299C187.925 314.67 187.507 315.154 187.212 315.712C186.918 316.271 186.754 316.891 186.734 317.523V319.215C186.654 320.537 187.424 321.182 188.434 320.569Z" fill="#6DE0F6"/>
<path d="M289.041 259.425C289.553 259.056 289.973 258.573 290.268 258.014C290.563 257.455 290.725 256.834 290.741 256.201V254.815L291.302 254.492C292.232 253.96 293.002 254.492 293.002 255.798V257.41C292.982 258.042 292.819 258.662 292.524 259.22C292.23 259.779 291.812 260.263 291.302 260.634L188.434 320.57C187.504 321.118 186.734 320.57 186.734 319.28V318.958L289.041 259.425Z" fill="#267FE5"/>
<path d="M169.56 177.84C169.563 178.393 169.403 178.934 169.099 179.395C168.796 179.856 168.363 180.216 167.855 180.429C167.348 180.642 166.788 180.699 166.249 180.592C165.709 180.485 165.213 180.219 164.824 179.828C164.436 179.437 164.171 178.939 164.064 178.396C163.958 177.854 164.014 177.292 164.226 176.781C164.438 176.271 164.796 175.836 165.255 175.53C165.713 175.225 166.252 175.064 166.802 175.067C167.532 175.071 168.231 175.365 168.748 175.884C169.264 176.403 169.556 177.106 169.56 177.84Z" fill="#6DE0F6"/>
<path d="M166.802 179.581C166.16 179.581 165.537 179.355 165.043 178.943C164.548 178.531 164.212 177.959 164.092 177.324C164.075 177.496 164.075 177.668 164.092 177.84C164.063 178.223 164.113 178.608 164.239 178.97C164.365 179.333 164.564 179.666 164.823 179.947C165.083 180.229 165.398 180.454 165.748 180.608C166.098 180.761 166.476 180.841 166.858 180.841C167.24 180.841 167.618 180.761 167.968 180.608C168.318 180.454 168.633 180.229 168.893 179.947C169.153 179.666 169.352 179.333 169.478 178.97C169.603 178.608 169.653 178.223 169.624 177.84C169.641 177.668 169.641 177.496 169.624 177.324C169.502 177.978 169.149 178.566 168.631 178.98C168.113 179.395 167.464 179.608 166.802 179.581Z" fill="#267FE5"/>
<path d="M169.56 196.056C169.563 196.609 169.403 197.15 169.099 197.611C168.796 198.072 168.363 198.432 167.855 198.645C167.348 198.859 166.788 198.915 166.249 198.808C165.709 198.701 165.213 198.435 164.824 198.044C164.436 197.653 164.171 197.155 164.064 196.612C163.958 196.07 164.014 195.508 164.226 194.997C164.438 194.487 164.796 194.052 165.255 193.747C165.713 193.441 166.252 193.28 166.802 193.283C167.164 193.283 167.523 193.355 167.858 193.494C168.192 193.634 168.496 193.838 168.752 194.095C169.009 194.353 169.212 194.658 169.35 194.995C169.489 195.331 169.56 195.692 169.56 196.056Z" fill="#6DE0F6"/>
<path d="M166.802 197.797C166.16 197.794 165.54 197.567 165.046 197.156C164.551 196.744 164.214 196.173 164.092 195.54C164.075 195.712 164.075 195.884 164.092 196.056C164.145 196.757 164.46 197.412 164.973 197.89C165.485 198.367 166.159 198.633 166.858 198.633C167.557 198.633 168.231 198.367 168.744 197.89C169.257 197.412 169.571 196.757 169.624 196.056C169.641 195.884 169.641 195.712 169.624 195.54C169.499 196.193 169.145 196.779 168.628 197.192C168.11 197.606 167.463 197.821 166.802 197.797Z" fill="#267FE5"/>
<path d="M169.56 214.272C169.56 214.824 169.397 215.364 169.092 215.823C168.786 216.282 168.352 216.639 167.844 216.85C167.336 217.06 166.778 217.115 166.239 217.006C165.7 216.897 165.206 216.63 164.819 216.238C164.431 215.846 164.169 215.348 164.063 214.806C163.958 214.264 164.015 213.703 164.228 213.193C164.44 212.684 164.798 212.25 165.257 211.945C165.715 211.641 166.253 211.48 166.802 211.483C167.166 211.483 167.526 211.555 167.861 211.696C168.197 211.836 168.502 212.042 168.758 212.301C169.014 212.56 169.217 212.867 169.355 213.206C169.493 213.544 169.562 213.906 169.56 214.272Z" fill="#6DE0F6"/>
<path d="M166.802 215.997C166.16 215.997 165.537 215.771 165.043 215.359C164.548 214.947 164.212 214.375 164.092 213.74C164.076 213.917 164.076 214.095 164.092 214.272C164.145 214.973 164.46 215.628 164.973 216.106C165.485 216.583 166.159 216.849 166.858 216.849C167.557 216.849 168.231 216.583 168.744 216.106C169.257 215.628 169.571 214.973 169.624 214.272C169.64 214.095 169.64 213.917 169.624 213.74C169.502 214.394 169.149 214.982 168.631 215.396C168.113 215.811 167.464 216.024 166.802 215.997Z" fill="#267FE5"/>
<path d="M169.56 232.52C169.563 233.073 169.403 233.614 169.099 234.075C168.796 234.537 168.363 234.897 167.855 235.11C167.348 235.323 166.788 235.379 166.249 235.272C165.709 235.165 165.213 234.899 164.824 234.508C164.436 234.117 164.171 233.619 164.064 233.076C163.958 232.534 164.014 231.972 164.226 231.461C164.438 230.951 164.796 230.516 165.255 230.211C165.713 229.905 166.252 229.744 166.802 229.747C167.164 229.747 167.523 229.819 167.858 229.958C168.192 230.098 168.496 230.302 168.752 230.559C169.009 230.817 169.212 231.123 169.35 231.459C169.489 231.795 169.56 232.156 169.56 232.52Z" fill="#6DE0F6"/>
<path d="M166.802 234.213C166.16 234.213 165.537 233.987 165.043 233.575C164.548 233.163 164.212 232.591 164.092 231.956C164.076 232.128 164.076 232.3 164.092 232.472C164.081 232.866 164.154 233.258 164.305 233.622C164.457 233.987 164.683 234.314 164.97 234.584C165.256 234.853 165.596 235.059 165.968 235.186C166.339 235.314 166.733 235.361 167.124 235.324C167.514 235.288 167.893 235.168 168.234 234.973C168.576 234.778 168.872 234.513 169.104 234.195C169.335 233.877 169.498 233.512 169.579 233.126C169.66 232.741 169.659 232.342 169.576 231.956C169.455 232.602 169.109 233.183 168.601 233.596C168.093 234.01 167.456 234.228 166.802 234.213Z" fill="#267FE5"/>
<path d="M169.56 250.688C169.563 251.241 169.403 251.782 169.099 252.243C168.796 252.704 168.363 253.064 167.855 253.277C167.348 253.49 166.788 253.547 166.249 253.44C165.709 253.333 165.213 253.067 164.824 252.676C164.436 252.285 164.171 251.786 164.064 251.244C163.958 250.702 164.014 250.139 164.226 249.629C164.438 249.119 164.796 248.684 165.255 248.378C165.713 248.073 166.252 247.912 166.802 247.915C167.164 247.915 167.523 247.987 167.858 248.126C168.192 248.266 168.496 248.47 168.752 248.727C169.009 248.985 169.212 249.29 169.35 249.627C169.489 249.963 169.56 250.324 169.56 250.688Z" fill="#6DE0F6"/>
<path d="M166.802 252.429C166.16 252.426 165.54 252.199 165.046 251.788C164.551 251.376 164.214 250.805 164.092 250.172C164.075 250.343 164.075 250.516 164.092 250.688C164.145 251.389 164.46 252.044 164.973 252.521C165.485 252.999 166.159 253.265 166.858 253.265C167.557 253.265 168.231 252.999 168.744 252.521C169.257 252.044 169.571 251.389 169.624 250.688C169.641 250.516 169.641 250.343 169.624 250.172C169.499 250.824 169.145 251.41 168.628 251.824C168.11 252.238 167.463 252.452 166.802 252.429Z" fill="#267FE5"/>
<path d="M169.56 268.904C169.563 269.457 169.403 269.998 169.099 270.459C168.796 270.92 168.363 271.28 167.855 271.493C167.348 271.706 166.788 271.763 166.249 271.656C165.709 271.549 165.213 271.283 164.824 270.892C164.436 270.501 164.171 270.003 164.064 269.46C163.958 268.918 164.014 268.356 164.226 267.845C164.438 267.335 164.796 266.9 165.255 266.594C165.713 266.289 166.252 266.128 166.802 266.131C167.164 266.131 167.523 266.203 167.858 266.342C168.192 266.482 168.496 266.686 168.752 266.943C169.009 267.201 169.212 267.506 169.35 267.843C169.489 268.179 169.56 268.54 169.56 268.904Z" fill="#6DE0F6"/>
<path d="M166.802 270.645C166.16 270.642 165.54 270.415 165.046 270.004C164.551 269.592 164.214 269.021 164.092 268.388C164.075 268.559 164.075 268.732 164.092 268.904C164.145 269.605 164.46 270.26 164.973 270.737C165.485 271.215 166.159 271.481 166.858 271.481C167.557 271.481 168.231 271.215 168.744 270.737C169.257 270.26 169.571 269.605 169.624 268.904C169.641 268.732 169.641 268.559 169.624 268.388C169.499 269.041 169.145 269.626 168.628 270.04C168.11 270.454 167.463 270.668 166.802 270.645Z" fill="#267FE5"/>
<path d="M169.56 287.12C169.56 287.672 169.397 288.212 169.092 288.671C168.786 289.13 168.352 289.487 167.844 289.698C167.336 289.909 166.778 289.963 166.239 289.854C165.7 289.745 165.206 289.478 164.819 289.086C164.431 288.694 164.169 288.196 164.063 287.654C163.958 287.112 164.015 286.551 164.228 286.041C164.44 285.532 164.798 285.098 165.257 284.793C165.715 284.489 166.253 284.328 166.802 284.331C167.166 284.331 167.526 284.403 167.861 284.544C168.197 284.684 168.502 284.89 168.758 285.149C169.014 285.408 169.217 285.716 169.355 286.054C169.493 286.392 169.562 286.754 169.56 287.12Z" fill="#6DE0F6"/>
<path d="M166.802 288.845C166.16 288.845 165.537 288.619 165.043 288.207C164.548 287.795 164.212 287.222 164.092 286.588C164.075 286.765 164.075 286.943 164.092 287.12C164.145 287.821 164.46 288.476 164.973 288.954C165.485 289.431 166.159 289.697 166.858 289.697C167.558 289.697 168.231 289.431 168.744 288.954C169.257 288.476 169.571 287.821 169.624 287.12C169.641 286.943 169.641 286.765 169.624 286.588C169.502 287.242 169.149 287.83 168.631 288.244C168.113 288.659 167.464 288.872 166.802 288.845Z" fill="#267FE5"/>
<path d="M169.56 305.32C169.563 305.873 169.403 306.414 169.099 306.875C168.796 307.336 168.363 307.696 167.855 307.909C167.348 308.122 166.788 308.179 166.249 308.072C165.709 307.965 165.213 307.699 164.824 307.308C164.436 306.917 164.171 306.418 164.064 305.876C163.958 305.333 164.014 304.771 164.226 304.261C164.438 303.751 164.796 303.315 165.255 303.01C165.713 302.705 166.252 302.544 166.802 302.547C167.532 302.551 168.231 302.845 168.748 303.364C169.264 303.883 169.556 304.586 169.56 305.32Z" fill="#6DE0F6"/>
<path d="M166.802 307.061C166.16 307.061 165.537 306.835 165.043 306.423C164.548 306.011 164.212 305.439 164.092 304.804C164.075 304.975 164.075 305.148 164.092 305.32C164.063 305.703 164.113 306.088 164.239 306.45C164.365 306.813 164.564 307.146 164.823 307.427C165.083 307.709 165.398 307.934 165.748 308.087C166.098 308.241 166.476 308.32 166.858 308.32C167.24 308.32 167.618 308.241 167.968 308.087C168.318 307.934 168.633 307.709 168.893 307.427C169.153 307.146 169.352 306.813 169.478 306.45C169.603 306.088 169.653 305.703 169.624 305.32C169.641 305.148 169.641 304.976 169.624 304.804C169.502 305.458 169.149 306.046 168.631 306.46C168.113 306.875 167.464 307.088 166.802 307.061Z" fill="#267FE5"/>
<path d="M169.56 323.536C169.563 324.089 169.403 324.63 169.099 325.091C168.796 325.552 168.363 325.912 167.855 326.125C167.348 326.338 166.788 326.395 166.249 326.288C165.709 326.181 165.213 325.915 164.824 325.524C164.436 325.133 164.171 324.634 164.064 324.092C163.958 323.549 164.014 322.987 164.226 322.477C164.438 321.967 164.796 321.531 165.255 321.226C165.713 320.921 166.252 320.76 166.802 320.763C167.164 320.763 167.523 320.835 167.858 320.974C168.192 321.113 168.496 321.318 168.752 321.575C169.009 321.833 169.212 322.138 169.35 322.475C169.489 322.811 169.56 323.172 169.56 323.536Z" fill="#6DE0F6"/>
<path d="M166.802 325.277C166.16 325.274 165.54 325.047 165.046 324.636C164.551 324.224 164.214 323.653 164.092 323.02C164.075 323.192 164.075 323.364 164.092 323.536C164.145 324.237 164.46 324.892 164.973 325.369C165.485 325.847 166.159 326.113 166.858 326.113C167.557 326.113 168.231 325.847 168.744 325.369C169.257 324.892 169.571 324.237 169.624 323.536C169.641 323.364 169.641 323.192 169.624 323.02C169.499 323.673 169.145 324.259 168.628 324.672C168.11 325.086 167.463 325.301 166.802 325.277Z" fill="#267FE5"/>
<path d="M225.268 115.519L111.335 49.409L111.736 48.7158L225.653 114.842L225.268 115.519Z" fill="#480689"/>
<path d="M53.0617 254.428L57.1828 256.814C59.3156 258.055 61.0474 256.733 61.0474 253.88V142.117C61.0258 140.666 60.6648 139.239 59.9934 137.954C59.3221 136.669 58.3592 135.56 57.1828 134.718L53.0617 132.316C50.945 131.091 49.2131 132.316 49.2131 135.25V247.028C49.2367 248.478 49.5969 249.902 50.2651 251.187C50.9333 252.471 51.891 253.581 53.0617 254.428Z" fill="#38025B"/>
<mask id="mask0_291_1462" style="mask-type:luminance" maskUnits="userSpaceOnUse" x="-20" y="131" width="82" height="174">
<path d="M-15.3942 304.353L57.1829 256.814C59.3156 258.055 61.0475 256.733 61.0475 253.88V142.117C61.0259 140.666 60.6648 139.239 59.9935 137.954C59.3221 136.669 58.3593 135.56 57.1829 134.718L53.0617 132.316C50.945 131.091 49.2132 132.316 49.2132 135.25L-19.355 166.717C-19.355 169.651 -17.5269 303.111 -15.3942 304.353Z" fill="white"/>
</mask>
<g mask="url(#mask0_291_1462)">
<path opacity="0.5" d="M2.87036 275.062L72.7053 234.535V124.53L2.87036 165.056V275.062Z" fill="#6EE8FC"/>
<path opacity="0.5" d="M8.94775 278.544L78.7827 238.001V127.996L8.94775 168.522V278.544Z" fill="#25BFEC"/>
<path opacity="0.5" d="M72.7053 124.53L78.7828 127.996L8.94785 168.522L2.87036 165.056L72.7053 124.53Z" fill="#6EE8FC"/>
<path opacity="0.5" d="M72.7053 234.535L78.7828 238.001L8.94785 278.544L2.87036 275.062L72.7053 234.535Z" fill="#6EE8FC"/>
<path d="M1.31494 158.963L5.17952 156.706C5.57186 156.507 6.01098 156.42 6.44916 156.454C6.88735 156.488 7.30787 156.642 7.66505 156.899L11.7862 159.285C12.9608 160.129 13.9222 161.238 14.5933 162.523C15.2645 163.808 15.6266 165.233 15.6508 166.685V278.463C15.7173 279.051 15.6294 279.646 15.3959 280.189C15.1624 280.732 14.7913 281.204 14.3198 281.558L10.6156 283.751L11.3532 281.123L7.64899 278.979C6.47738 278.133 5.51905 277.024 4.85074 275.739C4.18244 274.454 3.82274 273.029 3.80046 271.58V159.817L1.31494 158.963Z" fill="url(#paint2_linear_291_1462)"/>
<path d="M11.7702 159.318L7.649 156.932C7.3441 156.726 6.99902 156.588 6.63677 156.527C6.27451 156.465 5.90343 156.483 5.54834 156.577C5.95091 156.643 6.33733 156.785 6.68688 156.996L10.8882 159.43C12.0858 160.29 13.0654 161.421 13.7479 162.731C14.4303 164.042 14.7966 165.496 14.8169 166.975V280.978C14.8242 281.042 14.8242 281.107 14.8169 281.171C15.4098 280.411 15.7063 279.46 15.6508 278.495V166.717C15.6248 165.264 15.2602 163.838 14.5862 162.553C13.9122 161.268 12.9477 160.16 11.7702 159.318Z" fill="#6DE0F6"/>
<path d="M3.84853 281.268L7.96969 283.67C10.1024 284.895 11.8182 283.589 11.8182 280.736V168.958C11.7972 167.508 11.4381 166.083 10.7697 164.798C10.1012 163.513 9.14222 162.403 7.96969 161.558L3.84853 159.173C1.7158 157.931 0 159.173 0 162.09V273.869C0.0184798 275.319 0.376522 276.745 1.04514 278.031C1.71376 279.316 2.67415 280.425 3.84853 281.268Z" fill="url(#paint3_linear_291_1462)"/>
<path d="M65.5696 203.294L58.1611 198.99V188.076L65.5696 192.38V203.294Z" fill="#50DEFF"/>
<path d="M65.5696 208.775V220.365L58.1611 216.061V204.471L65.5696 208.775Z" fill="#50DEFF"/>
<path d="M34.3483 170.247V179.226L31.7666 180.725V171.73L34.3483 170.247Z" fill="#50DEFF"/>
<path d="M40.2493 175.793L37.6836 177.292V168.297L40.2493 166.813V175.793Z" fill="#50DEFF"/>
<path d="M26.7153 218.737V244.111L57.6961 226.12L65.4413 230.618L19.3069 257.394V214.433L26.7153 218.737Z" fill="#50DEFF"/>
<path d="M58.1611 178.807V165.411L43.6008 173.858V164.863L65.5696 152.112V183.127L58.1611 178.807Z" fill="#50DEFF"/>
<path d="M19.3069 203.842L26.7153 208.146V213.256L19.3069 208.952V203.842Z" fill="#50DEFF"/>
<path d="M28.4311 182.66L26.7153 183.643V197.829L19.3069 193.525V178.968L28.4311 173.665V182.66Z" fill="#50DEFF"/>
<path d="M49.2612 181.402L54.4407 178.404V172.391L49.2612 175.406V181.402Z" fill="#50DEFF"/>
<path d="M40.2493 186.642L45.4288 183.627V177.63L40.2493 180.629V186.642Z" fill="#50DEFF"/>
<path d="M40.2493 195.975L45.4288 192.977V186.964L40.2493 189.962V195.975Z" fill="#50DEFF"/>
<path d="M31.2373 236.196L36.4168 233.197V227.184L31.2373 230.199V236.196Z" fill="#50DEFF"/>
<path d="M49.2612 190.752L54.4407 187.738V181.741L49.2612 184.739V190.752Z" fill="#50DEFF"/>
<path d="M31.2373 191.865L36.4168 188.866V182.853L31.2373 185.868V191.865Z" fill="#50DEFF"/>
<path opacity="0.4" d="M51.0574 137.088L57.199 140.521V250.543L61.0475 248.302L65.4573 210.983V135.685C65.4573 135.685 57.3594 133.799 57.4395 133.96C57.5197 134.121 56.1727 134.121 56.1727 134.121L51.0574 137.088Z" fill="#0C0F38"/>
</g>
<path d="M87.41 274.03L91.5311 276.416C93.6478 277.657 95.3797 276.335 95.3797 273.482V161.72C95.3561 160.268 94.996 158.842 94.3279 157.554C93.6598 156.267 92.7022 155.154 91.5311 154.304L87.41 151.918C85.2773 150.677 83.5454 151.999 83.5454 154.852V266.615C83.5683 268.068 83.9298 269.496 84.601 270.784C85.2721 272.072 86.2342 273.184 87.41 274.03Z" fill="#38025B"/>
<mask id="mask1_291_1462" style="mask-type:luminance" maskUnits="userSpaceOnUse" x="14" y="151" width="82" height="173">
<path d="M18.89 323.939L91.4831 276.416C93.5998 277.657 95.3316 276.335 95.3316 273.482V161.72C95.3081 160.268 94.9479 158.842 94.2798 157.554C93.6117 156.267 92.6541 155.154 91.4831 154.304L87.41 151.918C85.2773 150.677 83.5455 151.999 83.5455 154.852L14.9292 186.319C14.9292 189.172 16.8535 322.794 18.89 323.939Z" fill="white"/>
</mask>
<g mask="url(#mask1_291_1462)">
<path opacity="0.5" d="M37.1545 294.664L106.99 254.137V144.132L37.1545 184.659V294.664Z" fill="#6EE8FC"/>
<path opacity="0.5" d="M43.248 298.13L113.067 257.603V147.598L43.248 188.124V298.13Z" fill="#25BFEC"/>
<path opacity="0.5" d="M106.99 144.132L113.067 147.598L43.2481 188.125L37.1545 184.659L106.99 144.132Z" fill="#6EE8FC"/>
<path opacity="0.5" d="M106.99 254.137L113.067 257.603L43.2481 298.13L37.1545 294.664L106.99 254.137Z" fill="#6EE8FC"/>
<path d="M35.5991 178.565L39.4637 176.292C39.8607 176.1 40.3011 176.017 40.7403 176.051C41.1796 176.085 41.6022 176.235 41.9653 176.486L46.0864 178.888C47.258 179.733 48.2164 180.843 48.8847 182.128C49.553 183.413 49.9127 184.837 49.9349 186.287V298.065C50 298.652 49.9132 299.245 49.6827 299.787C49.4523 300.329 49.0862 300.803 48.62 301.161L44.8998 303.45L45.6374 300.822L41.9492 298.678C40.7746 297.834 39.8132 296.725 39.142 295.44C38.4709 294.155 38.1088 292.73 38.0846 291.279V179.42L35.5991 178.565Z" fill="url(#paint4_linear_291_1462)"/>
<path d="M46.0704 178.92L41.9492 176.518C41.6402 176.314 41.2918 176.179 40.927 176.121C40.5621 176.062 40.1891 176.082 39.8325 176.179C40.2332 176.243 40.6189 176.38 40.971 176.582L45.1724 179.033C46.372 179.892 47.354 181.022 48.0392 182.332C48.7244 183.643 49.0937 185.097 49.1171 186.577V300.564C49.1171 300.645 49.1171 300.693 49.1171 300.758C49.7005 299.999 49.9911 299.055 49.9349 298.098V186.319C49.9108 184.868 49.5487 183.443 48.8775 182.158C48.2064 180.873 47.2449 179.764 46.0704 178.92Z" fill="#6DE0F6"/>
<path d="M38.1327 300.87L42.2539 303.256C44.3866 304.497 46.1185 303.256 46.1185 300.338V188.56C46.0969 187.108 45.7358 185.682 45.0645 184.397C44.3931 183.111 43.4303 182.003 42.2539 181.161L38.1327 178.759C36.016 177.533 34.2842 178.759 34.2842 181.693V293.471C34.3077 294.921 34.6679 296.345 35.3361 297.629C36.0044 298.914 36.962 300.024 38.1327 300.87Z" fill="url(#paint5_linear_291_1462)"/>
<path d="M99.8538 222.896L92.4453 218.592V207.678L99.8538 211.983V222.896Z" fill="#50DEFF"/>
<path d="M99.8538 228.377V239.968L92.4453 235.664V224.073L99.8538 228.377Z" fill="#50DEFF"/>
<path d="M68.6323 189.833V198.828L66.0667 200.311V191.332L68.6323 189.833Z" fill="#50DEFF"/>
<path d="M74.5335 195.395L71.9678 196.894V187.899L74.5335 186.416V195.395Z" fill="#50DEFF"/>
<path d="M61.0155 238.34V263.697L91.9803 245.723L99.7255 250.22L53.5911 276.996V234.035L61.0155 238.34Z" fill="#50DEFF"/>
<path d="M92.4453 198.409V185.013L77.885 193.46V184.465L99.8538 171.714V202.714L92.4453 198.409Z" fill="#50DEFF"/>
<path d="M53.5911 223.444L61.0155 227.748V232.859L53.5911 228.554V223.444Z" fill="#50DEFF"/>
<path d="M62.7153 202.262L61.0155 203.245V217.415L53.5911 213.111V198.57L62.7153 193.267V202.262Z" fill="#50DEFF"/>
<path d="M83.5454 201.005L88.7249 198.006V191.993L83.5454 195.008V201.005Z" fill="#50DEFF"/>
<path d="M74.5334 206.244L79.7129 203.229V197.233L74.5334 200.231V206.244Z" fill="#50DEFF"/>
<path d="M74.5334 215.577L79.7129 212.579V206.566L74.5334 209.565V215.577Z" fill="#50DEFF"/>
<path d="M65.5376 255.798L70.7011 252.8V246.787L65.5376 249.785V255.798Z" fill="#50DEFF"/>
<path d="M83.5454 210.338L88.7249 207.34V201.327L83.5454 204.342V210.338Z" fill="#50DEFF"/>
<path d="M65.5376 211.467L70.7011 208.468V202.456L65.5376 205.454V211.467Z" fill="#50DEFF"/>
<path opacity="0.4" d="M85.3416 156.754L91.4832 160.188V270.226L95.3317 267.969L99.7415 230.666V155.287C99.7415 155.287 91.6435 153.401 91.7237 153.563C91.8039 153.724 90.4569 153.708 90.4569 153.708L85.3416 156.754Z" fill="#0C0F38"/>
</g>
<path d="M127.29 296.905C126.676 296.887 126.078 296.703 125.559 296.373L121.437 293.987C120.202 293.102 119.191 291.938 118.483 290.588C117.776 289.239 117.393 287.742 117.364 286.217V174.487C117.305 173.814 117.421 173.137 117.702 172.523C117.984 171.909 118.42 171.38 118.968 170.989C119.433 170.755 119.953 170.651 120.472 170.687C120.991 170.724 121.491 170.901 121.919 171.198L126.04 173.584C127.277 174.466 128.29 175.63 128.995 176.98C129.7 178.33 130.078 179.829 130.097 181.354V293.133C130.16 293.806 130.045 294.485 129.763 295.099C129.482 295.713 129.043 296.242 128.493 296.631C128.123 296.826 127.708 296.92 127.29 296.905ZM121.854 293.262L125.976 295.648C126.275 295.867 126.628 296.003 126.998 296.039C127.367 296.076 127.739 296.013 128.076 295.857C128.48 295.527 128.795 295.1 128.991 294.615C129.187 294.131 129.259 293.604 129.199 293.085V181.306C129.18 179.93 128.84 178.578 128.208 177.357C127.576 176.137 126.669 175.082 125.559 174.277L121.437 171.875C121.137 171.657 120.783 171.523 120.414 171.489C120.044 171.455 119.672 171.522 119.337 171.682C118.928 172.004 118.61 172.428 118.413 172.911C118.216 173.394 118.148 173.921 118.214 174.439V286.217C118.236 287.595 118.576 288.948 119.208 290.171C119.84 291.394 120.746 292.452 121.854 293.262Z" fill="#161242"/>
</g>
<defs>
<linearGradient id="paint0_linear_291_1462" x1="-3.46365" y1="188.431" x2="345.423" y2="188.431" gradientUnits="userSpaceOnUse">
<stop stop-color="#A31FA9"/>
<stop offset="0.07" stop-color="#8B17A0"/>
<stop offset="0.15" stop-color="#740F98"/>
<stop offset="0.24" stop-color="#640A92"/>
<stop offset="0.34" stop-color="#5B078F"/>
<stop offset="0.48" stop-color="#58068E"/>
<stop offset="0.63" stop-color="#4D22A3"/>
<stop offset="0.94" stop-color="#3168DA"/>
<stop offset="1" stop-color="#2C75E4"/>
</linearGradient>
<linearGradient id="paint1_linear_291_1462" x1="24.4306" y1="86.2321" x2="294.227" y2="151.553" gradientUnits="userSpaceOnUse">
<stop stop-color="#8D139B"/>
<stop offset="0.17" stop-color="#851BA1"/>
<stop offset="0.43" stop-color="#6E33B2"/>
<stop offset="0.76" stop-color="#4958CD"/>
<stop offset="1" stop-color="#2979E4"/>
</linearGradient>
<linearGradient id="paint2_linear_291_1462" x1="52.3242" y1="200.36" x2="-57.9033" y2="249.176" gradientUnits="userSpaceOnUse">
<stop stop-color="#A31FA9"/>
<stop offset="0.07" stop-color="#8B17A0"/>
<stop offset="0.15" stop-color="#740F98"/>
<stop offset="0.24" stop-color="#640A92"/>
<stop offset="0.34" stop-color="#5B078F"/>
<stop offset="0.48" stop-color="#58068E"/>
<stop offset="0.63" stop-color="#4D22A3"/>
<stop offset="0.94" stop-color="#3168DA"/>
<stop offset="1" stop-color="#2C75E4"/>
</linearGradient>
<linearGradient id="paint3_linear_291_1462" x1="7.23205" y1="221.413" x2="153.108" y2="221.413" gradientUnits="userSpaceOnUse">
<stop stop-color="#A31FA9"/>
<stop offset="0.07" stop-color="#8B17A0"/>
<stop offset="0.15" stop-color="#740F98"/>
<stop offset="0.24" stop-color="#640A92"/>
<stop offset="0.34" stop-color="#5B078F"/>
<stop offset="0.48" stop-color="#58068E"/>
<stop offset="0.63" stop-color="#4D22A3"/>
<stop offset="0.94" stop-color="#3168DA"/>
<stop offset="1" stop-color="#2C75E4"/>
</linearGradient>
<linearGradient id="paint4_linear_291_1462" x1="86.6083" y1="219.962" x2="-23.6191" y2="268.762" gradientUnits="userSpaceOnUse">
<stop stop-color="#A31FA9"/>
<stop offset="0.07" stop-color="#8B17A0"/>
<stop offset="0.15" stop-color="#740F98"/>
<stop offset="0.24" stop-color="#640A92"/>
<stop offset="0.34" stop-color="#5B078F"/>
<stop offset="0.48" stop-color="#58068E"/>
<stop offset="0.63" stop-color="#4D22A3"/>
<stop offset="0.94" stop-color="#3168DA"/>
<stop offset="1" stop-color="#2C75E4"/>
</linearGradient>
<linearGradient id="paint5_linear_291_1462" x1="41.5162" y1="241.015" x2="187.392" y2="241.015" gradientUnits="userSpaceOnUse">
<stop stop-color="#A31FA9"/>
<stop offset="0.07" stop-color="#8B17A0"/>
<stop offset="0.15" stop-color="#740F98"/>
<stop offset="0.24" stop-color="#640A92"/>
<stop offset="0.34" stop-color="#5B078F"/>
<stop offset="0.48" stop-color="#58068E"/>
<stop offset="0.63" stop-color="#4D22A3"/>
<stop offset="0.94" stop-color="#3168DA"/>
<stop offset="1" stop-color="#2C75E4"/>
</linearGradient>
<clipPath id="clip0_291_1462">
<rect width="310" height="360" fill="white"/>
</clipPath>
</defs>
</svg>
