<svg width="386" height="360" viewBox="0 0 386 360" fill="none" xmlns="http://www.w3.org/2000/svg">
<g clip-path="url(#clip0_291_1259)">
<path opacity="0.6" d="M103.959 323.868C117.851 308.286 107.208 276.164 80.1865 252.122C53.1651 228.08 19.9978 221.222 6.10539 236.804C-7.78704 252.386 2.85613 284.508 29.8776 308.55C56.899 332.592 90.0662 339.45 103.959 323.868Z" fill="#0C0F38"/>
<path d="M247.926 226.065L270.184 201.06L256.557 189.014C255.855 184.231 254.735 179.519 253.209 174.931C238.693 131.087 190.201 87.9489 144.953 78.5949C140.208 77.6088 135.385 77.0405 130.541 76.8965L116.993 64.8251L94.7606 89.9086C84.6908 101.196 82.0753 119.146 89.3465 141.068C103.863 184.912 152.355 228.051 197.629 237.405C220.28 242.055 237.856 237.378 247.926 226.065Z" fill="url(#paint0_linear_291_1259)"/>
<path d="M96.0423 89.9085L117.777 65.5044L117.071 64.8773L94.7607 89.9085C85.7371 100.02 82.7815 115.488 87.4372 134.327C83.5139 115.541 86.8879 100.125 96.0423 89.9085Z" fill="#D4088C"/>
<path d="M268.981 199.988L247.429 224.184C237.359 235.523 219.783 240.174 197.133 235.497C151.858 226.143 103.392 183.005 88.8495 139.161C88.1172 136.94 87.5418 134.771 87.0187 132.629C87.6464 135.372 88.4049 138.168 89.3465 141.042C103.863 184.886 152.355 228.024 197.629 237.379C220.28 242.056 237.856 237.378 247.926 226.065L270.184 201.06L268.981 199.988Z" fill="#6EE8FC"/>
<path d="M270.191 201.07C291.933 176.684 275.279 126.416 232.994 88.7928C190.709 51.1699 138.805 40.4393 117.063 64.8253C95.3215 89.2114 111.975 139.48 154.26 177.103C196.545 214.725 248.449 225.456 270.191 201.07Z" fill="url(#paint1_linear_291_1259)"/>
<path d="M168.989 55.9413C192.006 60.6967 215.781 73.9178 235.79 91.5024C215.65 72.7943 191.064 58.5542 167.342 53.642C132.058 46.3521 108.728 61.768 107.708 89.6472C110.898 62.9699 134.072 48.6515 168.989 55.9413Z" fill="#D4088C"/>
<path d="M275.598 150.004C271.357 137.76 265.253 126.241 257.499 115.854C264.26 125.433 269.632 135.918 273.454 147C287.996 190.843 262.992 218.801 217.795 209.447C184.552 202.575 149.635 177.492 127.638 147.287C149.451 178.746 185.598 205.24 219.94 212.347C265.215 221.701 290.141 193.744 275.598 150.004Z" fill="#6EE8FC"/>
<path d="M210.079 183.371C181.152 177.387 150.158 149.821 140.872 121.785C131.587 93.7495 147.542 75.9036 176.47 81.8871C205.398 87.8705 236.365 115.436 245.651 143.446C254.936 171.456 239.007 189.328 210.079 183.371Z" fill="#6DE0F6"/>
<path d="M162.974 97.0156C191.901 102.999 222.895 130.565 232.181 158.575C235.007 166.092 235.517 174.281 233.645 182.09C246.723 176.682 251.954 162.389 245.651 143.446C236.365 115.436 205.398 87.8705 176.47 81.8871C156.906 77.8371 143.305 84.6829 139.408 98.2697C146.96 95.5043 155.17 95.0674 162.974 97.0156Z" fill="#18D0F7"/>
<path d="M167.629 91.6591C196.662 97.7471 227.787 125.208 236.941 153.244C240.524 164.062 240.315 173.363 237.072 180.366C247.534 173.964 251.352 160.639 245.651 143.446C236.365 115.436 205.398 87.8705 176.47 81.887C158.71 78.229 145.894 83.5593 140.742 94.664C147.333 90.6402 156.566 89.3598 167.629 91.6591Z" fill="#25BFEC"/>
<path d="M171.971 86.9038C200.925 92.8872 231.893 120.453 241.178 148.463C245.284 160.848 244.448 171.247 239.74 178.485C248.135 171.56 250.829 159.097 245.651 143.446C236.366 115.436 205.398 87.8705 176.47 81.8871C160.306 78.5426 148.248 82.6448 142.311 91.7898C148.954 86.3028 159.207 84.2648 171.971 86.9038Z" fill="#267FE5"/>
<path d="M263.645 134.092C263.145 133.158 262.423 132.36 261.543 131.768C260.663 131.176 259.652 130.808 258.597 130.695C256.845 130.695 256.296 132.341 257.342 134.249C257.84 135.191 258.564 135.994 259.45 136.587C260.336 137.18 261.355 137.544 262.416 137.646C264.142 137.619 264.718 136.026 263.645 134.092Z" fill="#6EE8FC"/>
<path opacity="0.8" d="M269.792 148.959C269.384 147.977 268.75 147.106 267.941 146.416C267.132 145.725 266.171 145.236 265.136 144.988C263.253 144.674 262.285 145.902 262.965 147.783C263.375 148.761 264.01 149.629 264.819 150.315C265.628 151 266.588 151.485 267.621 151.729C269.635 152.069 270.472 150.814 269.792 148.959Z" fill="#6EE8FC"/>
<path opacity="0.6" d="M273.009 163.069C272.729 162.051 272.207 161.115 271.488 160.342C270.768 159.569 269.872 158.98 268.877 158.627C266.915 157.948 265.529 158.836 265.842 160.587C266.125 161.604 266.647 162.538 267.366 163.311C268.086 164.084 268.98 164.673 269.975 165.028C271.963 165.812 273.323 164.924 273.009 163.069Z" fill="#6EE8FC"/>
<path opacity="0.4" d="M273.14 176.133C273.02 175.114 272.64 174.144 272.035 173.316C271.43 172.487 270.622 171.828 269.687 171.404C267.673 170.385 265.999 170.855 265.895 172.449C266.019 173.466 266.401 174.434 267.006 175.262C267.61 176.089 268.416 176.749 269.347 177.178C271.361 178.275 273.061 177.805 273.14 176.133Z" fill="#6EE8FC"/>
<path opacity="0.2" d="M270.184 187.551C270.655 186.192 269.478 184.024 267.569 182.717C265.659 181.411 263.672 181.463 263.175 182.717C262.678 183.972 263.907 186.245 265.79 187.551C267.673 188.858 269.635 188.936 270.184 187.551Z" fill="#6EE8FC"/>
<path opacity="0.1" d="M263.122 197.402C264.718 197.166 265.058 195.468 263.855 193.587C263.333 192.699 262.593 191.96 261.705 191.439C260.817 190.917 259.81 190.631 258.781 190.608C257.159 190.843 256.845 192.542 258.022 194.423C258.55 195.311 259.295 196.05 260.187 196.571C261.079 197.092 262.089 197.378 263.122 197.402Z" fill="#6EE8FC"/>
<path d="M276.906 127.691C311.642 118.878 332.649 83.6037 323.827 48.9033C315.006 14.203 279.695 -6.78297 244.96 2.02979C210.224 10.8425 189.216 46.1168 198.038 80.8172C206.86 115.517 242.17 136.504 276.906 127.691Z" fill="url(#paint2_linear_291_1259)"/>
<path d="M263.07 2.03807C274.686 2.66235 285.921 6.39714 295.595 12.8509C305.269 19.3047 313.027 28.2397 318.056 38.7191C323.084 49.1986 325.198 60.8365 324.175 72.4127C323.152 83.9889 319.03 95.077 312.242 104.514C317.724 97.7256 321.777 89.9012 324.159 81.51C326.541 73.1188 327.202 64.3336 326.104 55.6808C325.006 47.0281 322.17 38.6859 317.767 31.1541C313.364 23.6223 307.484 17.056 300.48 11.8488C293.476 6.64147 285.492 2.90036 277.005 0.84959C268.519 -1.20118 259.706 -1.51939 251.094 -0.0859579C242.482 1.34747 234.248 4.50303 226.885 9.19162C219.523 13.8802 213.184 20.0053 208.249 27.1999C214.658 18.878 222.998 12.2388 232.549 7.85517C242.099 3.47153 252.574 1.47508 263.07 2.03807Z" fill="#D4088C"/>
<path d="M312.87 103.704C302.109 116.872 286.597 125.287 269.682 127.132C252.766 128.977 235.802 124.106 222.45 113.569C209.098 103.031 200.427 87.6728 198.308 70.8064C196.19 53.9399 200.793 36.9175 211.126 23.4113C205.515 30.0489 201.298 37.7458 198.725 46.0443C196.152 54.3428 195.276 63.0733 196.148 71.7169C197.021 80.3605 199.624 88.7406 203.804 96.3589C207.983 103.977 213.653 110.678 220.477 116.063C227.301 121.449 235.139 125.408 243.526 127.706C251.912 130.005 260.676 130.595 269.295 129.442C277.914 128.289 286.214 125.416 293.699 120.995C301.185 116.573 307.704 110.693 312.87 103.704Z" fill="#6EE8FC"/>
<path d="M271.518 54.9223C259.827 44.8106 256.714 29.2902 264.587 20.2236C272.46 11.1569 288.258 11.993 299.949 22.0787C311.64 32.1643 314.753 47.7109 306.906 56.7775C299.06 65.8441 283.21 65.008 271.518 54.9223Z" fill="#6DE0F6"/>
<path d="M293.855 31.7724C302.695 39.402 306.592 50.0624 304.631 58.7894C305.45 58.1901 306.211 57.5166 306.906 56.7775C314.753 47.7109 311.64 32.1643 299.949 22.0787C288.258 11.993 272.434 11.1569 264.587 20.2236C262.691 22.4146 261.377 25.0475 260.768 27.8792C269.112 21.1642 283.183 22.549 293.855 31.7724Z" fill="#25BFEC"/>
<path d="M297.098 26.4944C307.142 35.1691 310.804 47.8154 306.671 56.9604L306.906 56.7775C314.753 47.7109 311.64 32.1643 299.949 22.0787C288.258 11.993 272.434 11.1569 264.587 20.2236C263.508 21.4862 262.626 22.9045 261.972 24.4303C269.87 15.5988 285.511 16.4872 297.098 26.4944Z" fill="#267FE5"/>
<path d="M271.231 207.749C268.975 207.749 266.77 207.08 264.895 205.829C263.02 204.577 261.558 202.798 260.695 200.716C259.832 198.634 259.606 196.344 260.046 194.134C260.486 191.924 261.572 189.894 263.167 188.301C264.762 186.708 266.794 185.623 269.006 185.183C271.218 184.744 273.511 184.969 275.595 185.832C277.678 186.694 279.459 188.154 280.712 190.027C281.965 191.901 282.634 194.103 282.634 196.357C282.634 199.378 281.433 202.276 279.294 204.412C277.156 206.548 274.255 207.749 271.231 207.749Z" fill="#6EE8FC"/>
<path d="M316.087 245.844C319.25 245.844 321.815 243.282 321.815 240.122C321.815 236.962 319.25 234.4 316.087 234.4C312.923 234.4 310.359 236.962 310.359 240.122C310.359 243.282 312.923 245.844 316.087 245.844Z" fill="#6EE8FC"/>
<path d="M374.256 182.299C371.913 182.299 369.622 181.605 367.674 180.304C365.725 179.004 364.207 177.155 363.31 174.993C362.413 172.83 362.178 170.45 362.636 168.154C363.093 165.858 364.221 163.749 365.878 162.093C367.535 160.438 369.646 159.311 371.945 158.854C374.243 158.397 376.625 158.632 378.79 159.528C380.955 160.424 382.806 161.941 384.108 163.887C385.41 165.834 386.105 168.122 386.105 170.463C386.105 173.602 384.856 176.613 382.634 178.832C380.412 181.052 377.399 182.299 374.256 182.299Z" fill="#6EE8FC"/>
<path d="M347.709 160.717C346.709 160.717 345.732 160.421 344.901 159.865C344.071 159.31 343.424 158.521 343.042 157.598C342.661 156.675 342.563 155.66 342.76 154.681C342.956 153.702 343.44 152.803 344.148 152.099C344.857 151.395 345.759 150.917 346.74 150.725C347.721 150.534 348.737 150.637 349.659 151.023C350.58 151.409 351.367 152.059 351.919 152.892C352.47 153.724 352.762 154.702 352.757 155.7C352.75 157.033 352.215 158.309 351.269 159.249C350.323 160.189 349.043 160.717 347.709 160.717Z" fill="#6EE8FC"/>
<path d="M346.166 191.209C344.402 191.209 342.677 190.687 341.21 189.708C339.744 188.729 338.601 187.337 337.925 185.709C337.25 184.081 337.074 182.289 337.418 180.561C337.762 178.833 338.612 177.245 339.859 175.999C341.106 174.753 342.695 173.904 344.426 173.561C346.156 173.217 347.949 173.393 349.579 174.068C351.208 174.742 352.601 175.884 353.581 177.349C354.561 178.814 355.084 180.537 355.084 182.299C355.078 184.66 354.136 186.922 352.465 188.592C350.793 190.261 348.529 191.202 346.166 191.209Z" fill="#6EE8FC"/>
<path d="M212.773 360C252.902 360 285.433 327.502 285.433 287.415C285.433 247.327 252.902 214.829 212.773 214.829C172.645 214.829 140.114 247.327 140.114 287.415C140.114 327.502 172.645 360 212.773 360Z" fill="#6EE8FC"/>
<path d="M209.635 288.068C191.535 269.961 188.318 243.884 202.442 229.749C216.566 215.613 242.695 218.879 260.794 236.96C278.894 255.041 282.137 281.144 268.013 295.253C253.89 309.363 227.787 306.149 209.635 288.068Z" fill="#3BE1FA"/>
<path d="M220.986 276.728C210.916 266.669 209.112 252.141 216.984 244.276C224.857 236.412 239.373 238.241 249.443 248.3C259.513 258.36 261.318 272.887 253.471 280.726C245.624 288.564 231.056 286.788 220.986 276.728Z" fill="#18D0F7"/>
<path d="M249.443 248.3C239.373 238.241 224.831 236.438 216.984 244.276C216.827 244.433 216.697 244.616 216.566 244.773C224.413 237.431 238.667 239.312 248.554 249.189C258.441 259.065 260.324 273.201 252.974 281.144L253.471 280.726C261.318 272.809 259.513 258.36 249.443 248.3Z" fill="#267FE5"/>
<path d="M230.036 267.583C226.374 263.925 225.694 258.621 228.571 255.773C231.448 252.925 236.732 253.552 240.393 257.236C244.055 260.92 244.735 266.198 241.858 269.046C238.981 271.894 233.698 271.372 230.036 267.583Z" fill="#267FE5"/>
<path d="M99.3901 319.03C116.869 319.03 131.038 304.876 131.038 287.415C131.038 269.954 116.869 255.799 99.3901 255.799C81.9114 255.799 67.7422 269.954 67.7422 287.415C67.7422 304.876 81.9114 319.03 99.3901 319.03Z" fill="#6EE8FC"/>
<path d="M138.022 221.727C136.278 223.473 134.055 224.662 131.634 225.144C129.213 225.627 126.704 225.381 124.423 224.439C122.142 223.496 120.192 221.899 118.82 219.849C117.448 217.799 116.716 215.388 116.716 212.922C116.716 210.456 117.448 208.046 118.82 205.996C120.192 203.946 122.142 202.348 124.423 201.405C126.704 200.463 129.213 200.217 131.634 200.7C134.055 201.182 136.278 202.372 138.022 204.117C140.357 206.453 141.668 209.62 141.668 212.922C141.668 216.224 140.357 219.391 138.022 221.727Z" fill="#6EE8FC"/>
<path d="M104.7 282.111C99.6256 277.042 98.7101 269.699 102.686 265.728C106.661 261.756 113.985 262.671 119.085 267.766C124.185 272.861 125.075 280.177 121.099 284.122C117.123 288.068 109.8 287.18 104.7 282.111Z" fill="#3BE1FA"/>
<path d="M140.192 31.2236C141.182 31.7597 141.991 32.575 142.519 33.5677C143.048 34.5605 143.272 35.6868 143.163 36.8058C143.054 37.9249 142.618 38.9873 141.909 39.8602C141.199 40.7331 140.248 41.3779 139.174 41.7141C138.1 42.0502 136.951 42.0629 135.87 41.7504C134.789 41.438 133.824 40.8143 133.095 39.9572C132.367 39.1001 131.907 38.0476 131.774 36.9312C131.641 35.8148 131.84 34.6839 132.346 33.6797C132.691 32.9955 133.17 32.3875 133.754 31.8917C134.339 31.3958 135.017 31.0223 135.749 30.7933C136.481 30.5642 137.251 30.4843 138.014 30.5582C138.778 30.6321 139.518 30.8584 140.192 31.2236Z" fill="#6EE8FC"/>
<path d="M59.3987 61.167C61.4816 62.2415 63.1987 63.909 64.3326 65.9587C65.4666 68.0083 65.9664 70.3479 65.7688 72.6814C65.5713 75.0149 64.6853 77.2374 63.2229 79.0677C61.7605 80.898 59.7875 82.2538 57.5536 82.9635C55.3196 83.6733 52.9251 83.7051 50.673 83.0549C48.421 82.4047 46.4126 81.1018 44.902 79.3109C43.3915 77.5201 42.4467 75.3219 42.1871 72.9945C41.9276 70.6671 42.365 68.315 43.444 66.236C44.1568 64.8551 45.1353 63.6283 46.3235 62.6258C47.5118 61.6234 48.8863 60.865 50.3684 60.3941C51.8505 59.9232 53.4111 59.7491 54.9606 59.8817C56.5102 60.0144 58.0184 60.4512 59.3987 61.167Z" fill="#6EE8FC"/>
<path d="M72.9995 92.3647C73.6346 92.6395 74.2063 93.0419 74.6791 93.5469C75.1519 94.0518 75.5158 94.6484 75.748 95.2997C75.9803 95.9511 76.076 96.6432 76.0291 97.333C75.9823 98.0228 75.794 98.6957 75.4759 99.3097C75.1577 99.9238 74.7166 100.466 74.1799 100.902C73.6432 101.339 73.0223 101.661 72.3559 101.847C71.6895 102.034 70.9918 102.082 70.3061 101.988C69.6204 101.894 68.9614 101.66 68.37 101.301C67.735 101.026 67.1632 100.623 66.6904 100.118C66.2176 99.6135 65.8538 99.0169 65.6215 98.3656C65.3893 97.7142 65.2936 97.0221 65.3404 96.3323C65.3872 95.6425 65.5756 94.9696 65.8937 94.3556C66.2118 93.7415 66.6529 93.1994 67.1897 92.7628C67.7264 92.3263 68.3472 92.0047 69.0136 91.818C69.68 91.6313 70.3778 91.5834 71.0635 91.6775C71.7491 91.7715 72.4081 92.0054 72.9995 92.3647Z" fill="#6EE8FC"/>
<path d="M88.3788 66.0009C89.9439 66.8126 91.2331 68.0695 92.0833 69.6128C92.9336 71.1561 93.3067 72.9166 93.1557 74.6718C93.0047 76.4269 92.3363 78.098 91.2348 79.4737C90.1334 80.8495 88.6485 81.8682 86.9677 82.4011C85.2869 82.9341 83.4857 82.9573 81.7917 82.4679C80.0977 81.9785 78.5869 80.9984 77.4503 79.6515C76.3137 78.3046 75.6023 76.6513 75.406 74.9006C75.2097 73.15 75.5373 71.3804 76.3474 69.8157C76.886 68.7754 77.6246 67.8514 78.521 67.0965C79.4174 66.3416 80.4539 65.7707 81.5714 65.4164C82.6888 65.0621 83.8653 64.9313 85.0334 65.0316C86.2015 65.1319 87.3383 65.4613 88.3788 66.0009Z" fill="#6EE8FC"/>
</g>
<defs>
<linearGradient id="paint0_linear_291_1259" x1="75.5998" y1="80.2535" x2="229.234" y2="217.64" gradientUnits="userSpaceOnUse">
<stop stop-color="#A31FA9"/>
<stop offset="0.07" stop-color="#8B17A0"/>
<stop offset="0.15" stop-color="#740F98"/>
<stop offset="0.24" stop-color="#640A92"/>
<stop offset="0.34" stop-color="#5B078F"/>
<stop offset="0.48" stop-color="#58068E"/>
<stop offset="0.63" stop-color="#4D22A3"/>
<stop offset="0.94" stop-color="#3168DA"/>
<stop offset="1" stop-color="#2C75E4"/>
</linearGradient>
<linearGradient id="paint1_linear_291_1259" x1="150.596" y1="38.9054" x2="120.962" y2="180.859" gradientUnits="userSpaceOnUse">
<stop stop-color="#8D139B"/>
<stop offset="0.17" stop-color="#851BA1"/>
<stop offset="0.43" stop-color="#6E33B2"/>
<stop offset="0.76" stop-color="#4958CD"/>
<stop offset="1" stop-color="#2979E4"/>
</linearGradient>
<linearGradient id="paint2_linear_291_1259" x1="339.292" y1="-3.20749" x2="242.636" y2="83.3868" gradientUnits="userSpaceOnUse">
<stop stop-color="#A31FA9"/>
<stop offset="0.07" stop-color="#8B17A0"/>
<stop offset="0.15" stop-color="#740F98"/>
<stop offset="0.24" stop-color="#640A92"/>
<stop offset="0.34" stop-color="#5B078F"/>
<stop offset="0.48" stop-color="#58068E"/>
<stop offset="0.56" stop-color="#54229C"/>
<stop offset="0.73" stop-color="#4B69BF"/>
<stop offset="0.98" stop-color="#3CD9F6"/>
<stop offset="1" stop-color="#3BE1FA"/>
</linearGradient>
<clipPath id="clip0_291_1259">
<rect width="386" height="360" fill="white"/>
</clipPath>
</defs>
</svg>
