<svg width="314" height="320" viewBox="0 0 314 320" fill="none" xmlns="http://www.w3.org/2000/svg">
<g clip-path="url(#clip0_291_1568)">
<path opacity="0.6" d="M218.804 227.676L187.004 209.353C184.759 208.043 185.133 205.778 187.64 204.262L218.093 186.689C219.425 185.938 220.916 185.513 222.444 185.448C223.972 185.382 225.493 185.679 226.885 186.314L258.684 204.637C260.929 205.947 260.555 208.212 258.048 209.709L227.595 227.301C226.261 228.048 224.771 228.471 223.244 228.536C221.717 228.601 220.196 228.306 218.804 227.676Z" fill="#0C0F38"/>
<path d="M222.564 232.748C220.939 232.799 219.329 232.432 217.887 231.681L180.607 210.102C180.041 209.838 179.557 209.425 179.208 208.908C178.859 208.39 178.657 207.787 178.624 207.163C178.711 206.357 179.008 205.588 179.483 204.932C179.959 204.275 180.598 203.754 181.336 203.42L217.214 182.702C218.845 181.795 220.666 181.284 222.531 181.209C224.396 181.135 226.252 181.498 227.951 182.272L265.362 203.851C265.925 204.113 266.407 204.523 266.756 205.037C267.105 205.551 267.309 206.15 267.345 206.77C267.258 207.577 266.961 208.346 266.486 209.002C266.01 209.659 265.371 210.18 264.633 210.514L228.624 231.25C226.763 232.255 224.678 232.77 222.564 232.748ZM223.2 181.972C221.24 181.969 219.31 182.458 217.588 183.395L181.635 204.113C181.019 204.381 180.481 204.802 180.072 205.336C179.663 205.87 179.397 206.498 179.297 207.163C179.335 207.654 179.505 208.125 179.788 208.526C180.071 208.928 180.457 209.246 180.906 209.447L218.317 231.026C219.9 231.743 221.628 232.078 223.363 232.003C225.098 231.928 226.792 231.446 228.306 230.595L264.184 209.877C264.803 209.607 265.342 209.183 265.751 208.646C266.16 208.109 266.426 207.476 266.522 206.808C266.483 206.32 266.313 205.853 266.029 205.454C265.746 205.055 265.361 204.741 264.914 204.543L227.502 182.964C226.178 182.267 224.695 181.925 223.2 181.972Z" fill="url(#paint0_linear_291_1568)"/>
<path d="M260.2 125.414H244.468L226.96 115.288C225.566 114.662 224.046 114.37 222.519 114.435C220.993 114.5 219.503 114.92 218.168 115.663L201.333 125.414H185.601V170.949C185.6 171.446 185.742 171.933 186.011 172.351C186.28 172.77 186.664 173.101 187.116 173.307L218.916 191.629C220.309 192.26 221.829 192.554 223.356 192.489C224.883 192.424 226.374 192.002 227.708 191.255L258.161 173.662C258.711 173.417 259.194 173.042 259.569 172.569C259.943 172.097 260.198 171.541 260.312 170.949L260.2 125.414Z" fill="url(#paint1_linear_291_1568)"/>
<path d="M258.049 172.933L227.596 190.525C226.262 191.272 224.771 191.694 223.244 191.759C221.717 191.824 220.196 191.53 218.804 190.9L187.004 172.577C186.55 172.373 186.165 172.042 185.896 171.623C185.627 171.205 185.485 170.717 185.489 170.219V170.949C185.488 171.446 185.63 171.933 185.899 172.351C186.168 172.77 186.551 173.101 187.004 173.307L218.804 191.629C220.196 192.26 221.717 192.554 223.244 192.489C224.771 192.424 226.262 192.002 227.596 191.255L258.049 173.662C258.599 173.417 259.082 173.042 259.457 172.569C259.831 172.097 260.086 171.541 260.2 170.949V170.219C260.086 170.811 259.831 171.367 259.457 171.84C259.082 172.312 258.599 172.687 258.049 172.933Z" fill="url(#paint2_linear_291_1568)"/>
<path d="M186.574 171.679V126.143H202.305L219.14 116.393C220.474 115.646 221.965 115.223 223.492 115.158C225.019 115.093 226.54 115.388 227.932 116.018L245.441 126.143H260.181V125.414H244.449L226.941 115.288C225.547 114.662 224.027 114.37 222.501 114.435C220.974 114.5 219.484 114.92 218.149 115.663L201.314 125.414H185.582V170.949C185.581 171.446 185.723 171.933 185.992 172.351C186.261 172.77 186.645 173.101 187.097 173.307H187.285C187.056 173.102 186.874 172.851 186.752 172.57C186.629 172.289 186.568 171.985 186.574 171.679Z" fill="#D4088C"/>
<path d="M259.302 126.256V171.735C259.236 172.339 258.973 172.904 258.553 173.344C258.987 173.09 259.359 172.744 259.643 172.33C259.928 171.916 260.118 171.444 260.2 170.949V125.526C259.875 125.737 259.574 125.981 259.302 126.256Z" fill="#6EE8FC"/>
<path d="M218.804 146.094L187.004 127.772C184.759 126.462 185.133 124.197 187.64 122.681L218.093 105.088C219.428 104.345 220.919 103.925 222.446 103.864C223.973 103.802 225.493 104.1 226.885 104.733L258.684 123.055C260.929 124.347 260.555 126.63 258.048 128.127L227.595 145.72C226.261 146.466 224.771 146.889 223.244 146.954C221.717 147.019 220.196 146.725 218.804 146.094Z" fill="url(#paint3_linear_291_1568)"/>
<path d="M258.684 123.055L226.885 104.733C225.517 104.035 223.981 103.737 222.451 103.872C223.568 103.916 224.662 104.21 225.65 104.733L257.356 123.055C259.62 124.347 259.339 126.63 256.739 128.127L226.361 145.72C225.021 146.458 223.53 146.88 222.002 146.955C223.953 147.089 225.9 146.661 227.614 145.72L258.067 128.127C260.649 126.63 260.929 124.347 258.684 123.055Z" fill="#6EE8FC"/>
<path d="M219.889 140.798L196.263 127.173C194.58 126.2 194.804 124.496 196.731 123.43L219.402 110.329C220.399 109.771 221.511 109.455 222.652 109.407C223.792 109.358 224.928 109.578 225.968 110.048L249.575 123.692C251.258 124.665 251.034 126.349 249.107 127.435L226.436 140.536C225.441 141.09 224.331 141.402 223.193 141.448C222.056 141.493 220.924 141.271 219.889 140.798Z" fill="url(#paint4_linear_291_1568)"/>
<path d="M220.674 136.568L203.577 126.686C202.361 125.975 202.511 124.815 203.914 123.935L220.338 114.446C221.06 114.045 221.866 113.819 222.691 113.787C223.516 113.754 224.338 113.916 225.089 114.259L242.186 124.141C243.402 124.833 243.252 126.012 241.849 126.873L225.5 136.362C224.771 136.779 223.952 137.014 223.112 137.05C222.273 137.086 221.437 136.921 220.674 136.568Z" fill="#6DE0F6"/>
<path d="M220.225 146.094L188.426 127.772C186.181 126.462 186.555 124.197 189.062 122.681L219.515 105.088C220.833 104.365 222.297 103.95 223.798 103.872C221.851 103.746 219.907 104.168 218.187 105.088L187.734 122.681C185.133 124.197 184.853 126.424 187.098 127.772L218.897 146.094C220.29 146.796 221.853 147.088 223.405 146.936C222.295 146.906 221.206 146.618 220.225 146.094Z" fill="#D4088C"/>
<mask id="mask0_291_1568" style="mask-type:luminance" maskUnits="userSpaceOnUse" x="202" y="113" width="42" height="25">
<path d="M220.674 136.568L203.577 126.686C202.361 125.975 202.511 124.815 203.914 123.935L220.338 114.446C221.06 114.045 221.866 113.819 222.691 113.787C223.516 113.754 224.338 113.916 225.089 114.259L242.186 124.141C243.402 124.833 243.252 126.012 241.849 126.873L225.5 136.362C224.771 136.779 223.952 137.014 223.112 137.05C222.273 137.086 221.437 136.921 220.674 136.568Z" fill="white"/>
</mask>
<g mask="url(#mask0_291_1568)">
<path d="M203.914 125.282L220.337 115.794C221.058 115.39 221.863 115.16 222.689 115.125C223.514 115.089 224.336 115.247 225.089 115.588L242.204 125.47C242.433 125.616 242.635 125.8 242.803 126.012C242.905 125.854 242.97 125.676 242.995 125.49C243.019 125.304 243.002 125.114 242.945 124.935C242.888 124.756 242.792 124.592 242.664 124.455C242.536 124.318 242.379 124.21 242.204 124.141L225.089 114.259C224.337 113.916 223.516 113.754 222.691 113.787C221.866 113.819 221.059 114.045 220.337 114.446L203.914 123.935C202.81 124.571 202.492 125.451 202.96 126.143C203.209 125.789 203.535 125.494 203.914 125.282Z" fill="#267FE5"/>
<path d="M203.914 126.892L220.338 117.403C221.058 116.999 221.864 116.77 222.689 116.734C223.514 116.698 224.336 116.857 225.089 117.197L242.205 127.079C242.387 127.198 242.551 127.343 242.691 127.51C242.825 127.355 242.92 127.17 242.969 126.971C243.018 126.772 243.018 126.564 242.971 126.365C242.923 126.166 242.829 125.98 242.696 125.825C242.563 125.669 242.394 125.547 242.205 125.47L225.089 115.588C224.336 115.247 223.514 115.089 222.689 115.125C221.864 115.16 221.058 115.39 220.338 115.794L203.914 125.282C202.754 125.956 202.455 126.892 203.072 127.603C203.296 127.306 203.584 127.063 203.914 126.892Z" fill="#25BFEC"/>
<path d="M203.222 129.381C203.43 129.179 203.663 129.003 203.914 128.857L220.338 119.368C221.06 118.97 221.865 118.744 222.689 118.708C223.513 118.672 224.335 118.828 225.089 119.163L242.205 129.063C242.324 129.133 242.437 129.215 242.541 129.306C242.717 129.162 242.852 128.975 242.934 128.763C243.015 128.551 243.04 128.322 243.006 128.097C242.972 127.872 242.881 127.66 242.74 127.482C242.6 127.304 242.415 127.165 242.205 127.079L225.089 117.197C224.336 116.857 223.514 116.698 222.689 116.734C221.864 116.77 221.058 116.999 220.338 117.403L203.914 126.892C202.642 127.622 202.399 128.67 203.222 129.381Z" fill="#18D0F7"/>
</g>
<path d="M233.825 179.633L232.066 180.662C231.599 180.924 231.243 180.662 231.243 180.026V155.452C231.243 155.146 231.317 154.844 231.461 154.573C231.605 154.302 231.812 154.07 232.066 153.899L233.825 152.869C234.273 152.607 234.629 152.869 234.629 153.506V178.079C234.631 178.384 234.559 178.685 234.419 178.956C234.279 179.227 234.075 179.459 233.825 179.633Z" fill="#6DE0F6"/>
<path d="M233.825 152.869L233.394 153.113V177.256C233.395 177.562 233.32 177.864 233.176 178.135C233.033 178.406 232.825 178.638 232.571 178.809L231.243 179.595V180.026C231.243 180.643 231.599 180.924 232.066 180.662L233.825 179.633C234.075 179.459 234.279 179.227 234.419 178.956C234.559 178.685 234.631 178.384 234.629 178.079V153.506C234.629 152.888 234.273 152.607 233.825 152.869Z" fill="#267FE5"/>
<path d="M240.297 175.89L238.538 176.919C238.089 177.162 237.715 176.919 237.715 176.283V151.709C237.715 151.402 237.79 151.1 237.933 150.83C238.077 150.559 238.285 150.327 238.538 150.156L240.297 149.126C240.746 148.864 241.12 149.126 241.12 149.744V174.336C241.12 174.643 241.045 174.945 240.902 175.216C240.758 175.486 240.551 175.718 240.297 175.89Z" fill="#6DE0F6"/>
<path d="M246.788 172.146L245.029 173.157C244.562 173.419 244.206 173.157 244.206 172.539V147.966C244.206 147.659 244.281 147.357 244.424 147.086C244.568 146.816 244.776 146.584 245.029 146.412L246.788 145.383C247.237 145.121 247.592 145.383 247.592 146.001V170.593C247.595 170.898 247.523 171.199 247.382 171.47C247.242 171.74 247.038 171.973 246.788 172.146Z" fill="#6DE0F6"/>
<path d="M253.26 168.403L251.501 169.414C251.053 169.676 250.678 169.414 250.678 168.796V144.223C250.678 143.916 250.753 143.614 250.896 143.343C251.04 143.072 251.248 142.841 251.501 142.669L253.26 141.64C253.709 141.378 254.083 141.64 254.083 142.258V166.831C254.079 167.14 254.002 167.442 253.859 167.716C253.716 167.989 253.511 168.224 253.26 168.403Z" fill="#6DE0F6"/>
<path d="M240.297 149.126L239.885 149.37V173.513C239.886 173.819 239.811 174.121 239.667 174.392C239.524 174.663 239.316 174.894 239.062 175.066L237.715 175.852V176.283C237.715 176.9 238.089 177.162 238.538 176.919L240.297 175.89C240.551 175.718 240.758 175.486 240.902 175.216C241.045 174.945 241.12 174.643 241.12 174.336V149.744C241.12 149.145 240.746 148.864 240.297 149.126Z" fill="#267FE5"/>
<path d="M246.788 145.383L246.357 145.626V169.77C246.358 170.076 246.283 170.378 246.14 170.649C245.996 170.92 245.788 171.151 245.534 171.323L244.206 172.109V172.539C244.206 173.157 244.562 173.419 245.029 173.157L246.788 172.146C247.038 171.973 247.242 171.74 247.382 171.47C247.523 171.199 247.595 170.898 247.592 170.593V146.001C247.592 145.402 247.237 145.121 246.788 145.383Z" fill="#267FE5"/>
<path d="M253.26 141.64L252.83 141.883V166.027C252.832 166.331 252.76 166.632 252.62 166.903C252.48 167.174 252.276 167.406 252.025 167.58L250.678 168.366V168.796C250.678 169.414 251.053 169.676 251.501 169.414L253.26 168.403C253.511 168.224 253.716 167.989 253.859 167.716C254.002 167.442 254.079 167.14 254.083 166.831V142.258C254.083 141.659 253.709 141.378 253.26 141.64Z" fill="#267FE5"/>
<path d="M216.148 182.646C215.916 182.643 215.69 182.579 215.493 182.459L192.597 169.227C192.162 168.928 191.806 168.529 191.558 168.063C191.311 167.597 191.179 167.078 191.175 166.55V140.536C191.152 140.294 191.193 140.05 191.295 139.83C191.397 139.61 191.556 139.42 191.755 139.282C191.922 139.181 192.113 139.128 192.307 139.128C192.502 139.128 192.692 139.181 192.859 139.282L215.773 152.514C216.204 152.821 216.557 153.224 216.804 153.692C217.051 154.16 217.185 154.68 217.195 155.209V181.28C217.216 181.524 217.174 181.769 217.072 181.992C216.971 182.215 216.813 182.408 216.615 182.552C216.469 182.62 216.309 182.653 216.148 182.646ZM192.223 139.694H192.017C191.908 139.795 191.824 139.921 191.772 140.06C191.72 140.2 191.701 140.35 191.718 140.498V166.513C191.726 166.944 191.833 167.368 192.031 167.751C192.229 168.134 192.512 168.466 192.859 168.721L215.773 181.953C215.858 182.005 215.955 182.032 216.054 182.032C216.153 182.032 216.25 182.005 216.335 181.953C216.452 181.858 216.544 181.734 216.599 181.593C216.655 181.452 216.673 181.299 216.653 181.149V155.265C216.645 154.829 216.537 154.401 216.335 154.014C216.134 153.628 215.846 153.293 215.493 153.038L192.597 139.806C192.494 139.746 192.379 139.708 192.26 139.694H192.223Z" fill="#480689"/>
<path d="M195.702 145.72C195.702 146.431 195.197 146.712 194.58 146.356C194.262 146.151 193.996 145.876 193.801 145.551C193.606 145.227 193.489 144.862 193.458 144.485C193.458 143.774 193.963 143.474 194.58 143.83C194.899 144.038 195.166 144.316 195.361 144.644C195.556 144.972 195.672 145.34 195.702 145.72Z" fill="#6DE0F6"/>
<path d="M195.702 149.257C195.702 149.968 195.197 150.249 194.58 149.894C194.262 149.688 193.996 149.413 193.801 149.089C193.606 148.764 193.489 148.399 193.458 148.022C193.458 147.311 193.963 147.03 194.58 147.386C194.898 147.591 195.164 147.866 195.359 148.191C195.553 148.515 195.671 148.88 195.702 149.257Z" fill="#6DE0F6"/>
<path d="M195.702 152.869C195.702 153.58 195.197 153.88 194.58 153.524C194.262 153.319 193.996 153.044 193.801 152.719C193.606 152.395 193.489 152.03 193.458 151.653C193.458 150.942 193.963 150.642 194.58 150.998C194.898 151.203 195.164 151.478 195.359 151.803C195.553 152.127 195.671 152.492 195.702 152.869Z" fill="#6DE0F6"/>
<path d="M195.141 153.075C194.823 152.87 194.557 152.595 194.362 152.27C194.167 151.946 194.05 151.581 194.019 151.204C194.008 151.085 194.008 150.966 194.019 150.848C193.663 150.848 193.401 151.147 193.401 151.653C193.433 152.03 193.55 152.395 193.745 152.719C193.939 153.044 194.206 153.319 194.524 153.524C195.029 153.805 195.44 153.674 195.59 153.225C195.43 153.213 195.276 153.162 195.141 153.075Z" fill="#267FE5"/>
<path d="M195.141 149.463C194.823 149.258 194.557 148.983 194.362 148.658C194.167 148.334 194.05 147.969 194.019 147.592C194.005 147.473 194.005 147.354 194.019 147.236C193.663 147.236 193.401 147.517 193.401 148.022C193.433 148.399 193.55 148.764 193.745 149.089C193.939 149.413 194.206 149.688 194.524 149.894C195.029 150.193 195.44 150.043 195.59 149.613C195.432 149.594 195.279 149.543 195.141 149.463Z" fill="#267FE5"/>
<path d="M195.141 145.832C194.823 145.627 194.557 145.352 194.362 145.027C194.167 144.703 194.05 144.338 194.019 143.961C194.008 143.842 194.008 143.723 194.019 143.605C193.663 143.605 193.401 143.905 193.401 144.41C193.433 144.787 193.55 145.152 193.745 145.476C193.939 145.801 194.206 146.076 194.524 146.281C195.029 146.562 195.44 146.431 195.59 145.982C195.43 145.971 195.276 145.919 195.141 145.832Z" fill="#267FE5"/>
<path d="M214.127 169.676L213.379 169.246C213.254 169.156 213.152 169.038 213.081 168.901C213.009 168.765 212.97 168.614 212.968 168.46V164.904C212.968 164.604 213.155 164.454 213.379 164.585L214.127 165.016C214.254 165.109 214.357 165.23 214.428 165.37C214.499 165.509 214.537 165.664 214.539 165.821V169.358C214.539 169.657 214.277 169.807 214.127 169.676Z" fill="#480689"/>
<path style="mix-blend-mode:lighten" opacity="0.2" d="M243.009 39.6959H202.773V125.507C202.787 125.758 202.87 126.001 203.012 126.208C203.153 126.416 203.349 126.581 203.577 126.686L220.674 136.568C221.437 136.921 222.273 137.086 223.112 137.05C223.952 137.015 224.771 136.779 225.5 136.362L241.905 126.892C242.203 126.757 242.464 126.552 242.666 126.294C242.867 126.037 243.004 125.735 243.065 125.414L243.009 39.6959Z" fill="url(#paint5_linear_291_1568)"/>
<path style="mix-blend-mode:lighten" opacity="0.25" d="M241.101 47.8746H204.7V125.545C204.715 125.771 204.791 125.99 204.919 126.177C205.047 126.365 205.223 126.515 205.429 126.611L220.899 135.539C221.58 135.847 222.323 135.993 223.07 135.963C223.817 135.934 224.547 135.731 225.201 135.37L240.054 126.78C240.318 126.658 240.55 126.476 240.732 126.249C240.914 126.021 241.04 125.755 241.101 125.47V47.8746Z" fill="url(#paint6_linear_291_1568)"/>
<path d="M214.857 118.32C214.857 118.717 214.699 119.098 214.419 119.379C214.138 119.66 213.757 119.818 213.36 119.818C212.964 119.818 212.583 119.66 212.302 119.379C212.022 119.098 211.864 118.717 211.864 118.32C211.864 117.923 212.022 117.542 212.302 117.262C212.583 116.981 212.964 116.823 213.36 116.823C213.757 116.823 214.138 116.981 214.419 117.262C214.699 117.542 214.857 117.923 214.857 118.32Z" fill="#6DE0F6"/>
<path d="M227.203 108.289C227.203 108.796 227.052 109.292 226.771 109.713C226.489 110.135 226.089 110.464 225.621 110.658C225.152 110.852 224.637 110.902 224.14 110.803C223.643 110.705 223.186 110.46 222.828 110.102C222.469 109.743 222.225 109.286 222.126 108.789C222.028 108.292 222.078 107.776 222.272 107.307C222.466 106.839 222.795 106.439 223.216 106.157C223.638 105.875 224.133 105.725 224.64 105.725C224.977 105.722 225.311 105.787 225.623 105.915C225.936 106.043 226.219 106.232 226.457 106.47C226.696 106.709 226.885 106.992 227.013 107.305C227.14 107.617 227.205 107.951 227.203 108.289Z" fill="#6DE0F6"/>
<path d="M221.497 107.297C221.859 107.297 222.152 107.004 222.152 106.642C222.152 106.28 221.859 105.987 221.497 105.987C221.136 105.987 220.843 106.28 220.843 106.642C220.843 107.004 221.136 107.297 221.497 107.297Z" fill="#6DE0F6"/>
<path d="M233.937 93.7841C233.933 94.0349 233.855 94.2791 233.713 94.486C233.571 94.6928 233.371 94.853 233.139 94.9464C232.906 95.0399 232.651 95.0624 232.405 95.0112C232.16 94.96 231.935 94.8374 231.759 94.6587C231.583 94.48 231.464 94.2532 231.416 94.0068C231.368 93.7605 231.395 93.5056 231.491 93.2741C231.588 93.0426 231.751 92.845 231.96 92.7059C232.169 92.5669 232.414 92.4927 232.665 92.4927C232.833 92.4927 233 92.5262 233.156 92.5913C233.311 92.6564 233.452 92.7519 233.571 92.872C233.689 92.9922 233.782 93.1347 233.845 93.2913C233.908 93.4479 233.939 93.6154 233.937 93.7841Z" fill="#6DE0F6"/>
<path d="M226.829 82.9102C226.832 83.0932 226.781 83.273 226.682 83.4267C226.583 83.5803 226.44 83.7007 226.271 83.7724C226.103 83.8442 225.917 83.8639 225.738 83.8291C225.558 83.7943 225.393 83.7066 225.264 83.5772C225.135 83.4479 225.047 83.2827 225.012 83.1031C224.978 82.9235 224.997 82.7376 225.069 82.5693C225.141 82.401 225.261 82.258 225.415 82.1586C225.568 82.0593 225.748 82.0082 225.931 82.0119C226.167 82.0167 226.393 82.1129 226.56 82.2803C226.728 82.4478 226.824 82.6735 226.829 82.9102Z" fill="#6DE0F6"/>
<path d="M216.484 75.9855C216.484 76.312 216.387 76.6311 216.206 76.9024C216.024 77.1736 215.766 77.3847 215.464 77.5088C215.162 77.6329 214.83 77.6644 214.51 77.5993C214.19 77.5342 213.897 77.3755 213.668 77.1433C213.438 76.9111 213.283 76.6159 213.222 76.2952C213.16 75.9744 213.195 75.6427 213.323 75.3421C213.45 75.0415 213.664 74.7856 213.937 74.6069C214.211 74.4282 214.531 74.3348 214.857 74.3385C215.29 74.3434 215.704 74.5191 216.009 74.8275C216.314 75.1358 216.484 75.5519 216.484 75.9855Z" fill="#6DE0F6"/>
<path d="M227.203 64.3818C227.199 65.0362 227.002 65.6748 226.636 66.2171C226.269 66.7594 225.751 67.1811 225.146 67.4289C224.541 67.6768 223.875 67.7397 223.234 67.6098C222.593 67.4799 222.005 67.1629 221.544 66.6989C221.083 66.2349 220.769 65.6446 220.643 65.0025C220.517 64.3604 220.583 63.6953 220.835 63.0911C221.086 62.4869 221.51 61.9706 222.054 61.6074C222.598 61.2442 223.238 61.0504 223.892 61.0504C224.328 61.0504 224.76 61.1367 225.163 61.3044C225.566 61.472 225.932 61.7177 226.239 62.0273C226.547 62.3369 226.791 62.7043 226.956 63.1083C227.121 63.5124 227.205 63.9452 227.203 64.3818Z" fill="#6DE0F6"/>
<path d="M220.562 62.267C220.565 62.3865 220.543 62.5054 220.499 62.6165C220.455 62.7277 220.39 62.829 220.306 62.9144C220.222 62.9998 220.122 63.0676 220.012 63.1139C219.902 63.1602 219.784 63.1841 219.664 63.1841C219.416 63.1841 219.178 63.0855 219.003 62.91C218.828 62.7345 218.729 62.4965 218.729 62.2483C218.729 62.0001 218.828 61.7621 219.003 61.5866C219.178 61.4111 219.416 61.3125 219.664 61.3125C219.787 61.3123 219.909 61.3372 220.021 61.3858C220.134 61.4345 220.236 61.5057 220.32 61.5952C220.404 61.6846 220.469 61.7904 220.511 61.9059C220.552 62.0215 220.57 62.1444 220.562 62.267Z" fill="#6DE0F6"/>
<path d="M227.633 68.3495C227.653 68.5028 227.64 68.6585 227.596 68.8065C227.551 68.9544 227.475 69.091 227.373 69.2073C227.271 69.3235 227.146 69.4167 227.005 69.4805C226.865 69.5443 226.712 69.5773 226.557 69.5773C226.403 69.5773 226.25 69.5443 226.109 69.4805C225.969 69.4167 225.843 69.3235 225.741 69.2073C225.64 69.091 225.564 68.9544 225.519 68.8065C225.474 68.6585 225.462 68.5028 225.482 68.3495C225.516 68.0886 225.644 67.849 225.842 67.6755C226.04 67.5019 226.294 67.4062 226.557 67.4062C226.82 67.4062 227.075 67.5019 227.272 67.6755C227.47 67.849 227.598 68.0886 227.633 68.3495Z" fill="#6DE0F6"/>
<path d="M228.437 66.1037C228.437 66.2426 228.382 66.3759 228.284 66.4742C228.186 66.5725 228.052 66.6277 227.913 66.6277C227.774 66.6277 227.641 66.5725 227.543 66.4742C227.445 66.3759 227.39 66.2426 227.39 66.1037C227.39 65.9647 227.445 65.8314 227.543 65.7331C227.641 65.6348 227.774 65.5796 227.913 65.5796C228.052 65.5796 228.186 65.6348 228.284 65.7331C228.382 65.8314 228.437 65.9647 228.437 66.1037Z" fill="#6DE0F6"/>
<path d="M233.693 56.4276C234.52 56.4276 235.19 55.7573 235.19 54.9304C235.19 54.1034 234.52 53.4331 233.693 53.4331C232.867 53.4331 232.197 54.1034 232.197 54.9304C232.197 55.7573 232.867 56.4276 233.693 56.4276Z" fill="#6DE0F6"/>
<path opacity="0.6" d="M148.077 299.338C176.983 299.338 200.416 285.805 200.416 269.112C200.416 252.419 176.983 238.886 148.077 238.886C119.171 238.886 95.7385 252.419 95.7385 269.112C95.7385 285.805 119.171 299.338 148.077 299.338Z" fill="#0C0F38"/>
<path d="M148.077 307.442C131.242 307.442 114.257 303.699 101.313 296.212C88.7613 288.97 81.8589 279.368 81.8589 269.019C81.8589 258.669 88.7613 249.087 101.313 241.825C127.052 226.965 168.953 226.965 194.711 241.825C207.244 249.087 214.165 258.669 214.165 269.019C214.165 279.368 207.244 288.97 194.711 296.212C181.897 303.717 164.987 307.442 148.077 307.442ZM148.077 231.494C131.242 231.494 114.538 235.237 101.762 242.555C89.4534 249.667 82.6819 259.081 82.6819 269.094C82.6819 279.106 89.4534 288.539 101.762 295.632C127.314 310.399 168.859 310.399 194.412 295.632C206.701 288.539 213.473 279.106 213.491 269.094C213.51 259.081 206.701 249.667 194.412 242.555C181.635 235.181 164.856 231.494 148.077 231.494Z" fill="url(#paint7_linear_291_1568)"/>
<path d="M206.795 216.559L189.96 190.637L185.077 201.38C162.911 192.397 133.206 192.434 111.077 201.38L106.307 190.637L87.6016 219.085C79.2775 232.186 84.2532 247.627 102.566 258.201C127.744 272.743 168.56 272.743 193.738 258.201C213.173 246.934 217.551 230.258 206.795 216.559Z" fill="url(#paint8_linear_291_1568)"/>
<path d="M111.9 201.455C123.495 196.932 135.838 194.634 148.283 194.68C135.815 194.543 123.431 196.739 111.769 201.156L111.9 201.455Z" fill="#D4088C"/>
<path d="M185.9 201.362L190.39 191.442L189.96 190.637L185.208 201.081L185.9 201.362Z" fill="#D4088C"/>
<path d="M103.408 258.201C85.0761 247.608 80.1004 232.261 88.4432 219.067L106.681 191.442L106.326 190.619L87.6201 219.067C79.296 232.167 84.2718 247.608 102.585 258.182C115.23 265.5 131.971 269.243 148.657 269.093C132.271 269.056 115.903 265.5 103.408 258.201Z" fill="#D4088C"/>
<path d="M183.936 201.38L184.086 201.043C172.378 196.666 159.958 194.508 147.46 194.68C159.932 194.598 172.307 196.871 183.936 201.38Z" fill="#6EE8FC"/>
<path d="M109.936 201.455L110.834 201.118L106.55 191.236L105.933 192.247L109.936 201.455Z" fill="#6EE8FC"/>
<path d="M206.795 216.559L189.96 190.637L189.529 191.592L205.916 216.559C216.615 230.258 212.219 246.934 192.728 258.201C180.27 265.406 163.996 269.019 147.666 269.093C164.351 269.093 181.056 265.556 193.775 258.201C213.173 246.934 217.551 230.258 206.795 216.559Z" fill="#6EE8FC"/>
<path d="M178.96 215.848C161.919 225.711 134.254 225.711 117.231 215.848C100.209 205.984 100.172 190.02 117.231 180.175C134.291 170.331 161.938 170.312 178.96 180.175C195.983 190.039 196.02 206.003 178.96 215.848Z" fill="url(#paint9_linear_291_1568)"/>
<path d="M167.513 209.241C156.775 215.454 139.36 215.454 128.605 209.241C117.849 203.027 117.867 192.977 128.605 186.782C139.342 180.587 156.775 180.568 167.513 186.782C178.25 192.996 178.287 203.046 167.513 209.241Z" fill="url(#paint10_linear_291_1568)"/>
<path d="M167.513 209.241C156.775 215.454 139.36 215.454 128.605 209.241C117.849 203.027 117.867 192.977 128.605 186.782C139.342 180.587 156.775 180.568 167.513 186.782C178.25 192.996 178.287 203.046 167.513 209.241Z" fill="#6DE0F6"/>
<path d="M128.623 195.298C139.379 189.084 156.794 189.084 167.531 195.298C170.529 196.858 172.982 199.292 174.565 202.279C177.146 196.926 174.808 191.049 167.531 186.782C156.794 180.568 139.379 180.568 128.623 186.782C121.365 190.974 119.027 196.926 121.59 202.279C123.181 199.298 125.632 196.866 128.623 195.298Z" fill="#18D0F7"/>
<path d="M128.623 192.284C139.379 186.071 156.794 186.071 167.531 192.284C171.059 194.038 173.788 197.069 175.163 200.763C176.66 195.84 174.134 190.581 167.531 186.782C156.794 180.568 139.379 180.568 128.623 186.782C122.039 190.525 119.513 195.84 121.01 200.763C122.376 197.07 125.099 194.037 128.623 192.284Z" fill="#25BFEC"/>
<path d="M128.623 189.608C139.379 183.394 156.794 183.394 167.531 189.608C172.282 192.341 174.92 195.84 175.481 199.434C176.173 194.905 173.611 190.244 167.531 186.782C156.794 180.568 139.379 180.568 128.623 186.782C122.637 190.244 119.981 194.905 120.692 199.434C121.234 195.84 123.872 192.341 128.623 189.608Z" fill="#267FE5"/>
<path d="M117.924 181.074C134.983 171.229 162.649 171.229 179.653 181.074C182.536 182.692 185.154 184.743 187.415 187.156C185.026 184.332 182.142 181.966 178.904 180.175C161.845 170.312 134.198 170.312 117.175 180.175C103.296 188.186 100.714 200.239 109.412 209.784C101.687 200.388 104.493 188.766 117.924 181.074Z" fill="#D4088C"/>
<path d="M178.96 180.175C178.717 180.026 178.437 179.895 178.175 179.764C194.804 189.627 194.673 205.404 177.763 215.174C160.853 224.943 133.88 224.999 116.782 215.585C116.912 215.684 117.05 215.771 117.194 215.847C134.254 225.711 161.919 225.711 178.923 215.847C195.927 205.984 196.02 190.02 178.96 180.175Z" fill="#6EE8FC"/>
<path d="M191.344 171.342V157.268H183.712C182.158 155.964 180.493 154.799 178.736 153.786C161.901 144.073 134.665 144.073 117.849 153.786C116.086 154.799 114.415 155.964 112.854 157.268H105.241V171.36C105.241 177.742 109.45 184.106 117.849 188.953C134.684 198.667 161.919 198.667 178.736 188.953C187.154 184.087 191.344 177.724 191.344 171.342Z" fill="url(#paint11_linear_291_1568)"/>
<path d="M105.634 171.005V157.268H105.241V171.36C105.241 177.069 108.627 182.758 115.379 187.362C108.889 182.571 105.634 176.788 105.634 171.005Z" fill="#D4088C"/>
<path d="M190.67 157.268V170.893C190.67 177.275 186.461 183.638 178.063 188.504C161.227 198.217 133.973 198.217 117.175 188.504C116.315 187.999 115.529 187.493 114.762 186.969C115.716 187.643 116.745 188.317 117.849 188.953C134.684 198.667 161.919 198.667 178.736 188.953C187.154 184.087 191.344 177.724 191.344 171.342V157.268H190.67Z" fill="#6EE8FC"/>
<path d="M148.302 182.159C172.083 182.159 191.362 171.023 191.362 157.286C191.362 143.549 172.083 132.413 148.302 132.413C124.52 132.413 105.241 143.549 105.241 157.286C105.241 171.023 124.52 182.159 148.302 182.159Z" fill="url(#paint12_linear_291_1568)"/>
<path d="M119.009 139.937C128.512 134.887 139.132 132.312 149.892 132.451C138.35 132.189 126.659 134.584 117.849 139.693C104.755 147.18 101.743 158.615 109.225 167.655C102.772 158.409 106.045 147.442 119.009 139.937Z" fill="#D4088C"/>
<path d="M178.736 139.694C173.975 137.059 168.841 135.166 163.51 134.079C168.306 135.199 172.922 136.988 177.221 139.394C194.056 149.108 194.056 164.866 177.221 174.58C164.875 181.71 146.899 183.582 131.56 180.194C147.217 183.937 165.979 182.234 178.736 174.879C195.571 165.147 195.571 149.463 178.736 139.694Z" fill="#6EE8FC"/>
<path d="M167.513 168.516C156.775 174.71 139.36 174.71 128.605 168.516C117.849 162.321 117.867 152.233 128.605 146.057C139.342 139.881 156.775 139.843 167.513 146.057C178.25 152.27 178.287 162.302 167.513 168.516Z" fill="#6DE0F6"/>
<path d="M128.623 154.554C139.379 148.34 156.794 148.34 167.531 154.554C170.529 156.114 172.982 158.548 174.565 161.535C177.146 156.182 174.808 150.305 167.531 146.038C156.794 139.825 139.379 139.825 128.623 146.038C121.365 150.23 119.027 156.182 121.59 161.535C123.181 158.555 125.632 156.122 128.623 154.554Z" fill="#18D0F7"/>
<path d="M128.623 151.541C139.379 145.327 156.794 145.327 167.531 151.541C171.059 153.294 173.788 156.325 175.163 160.019C176.66 155.096 174.134 149.837 167.531 146.038C156.794 139.825 139.379 139.825 128.623 146.038C122.039 149.781 119.513 155.096 121.01 160.019C122.376 156.326 125.099 153.293 128.623 151.541Z" fill="#25BFEC"/>
<path d="M128.623 148.864C139.379 142.651 156.794 142.651 167.531 148.864C172.282 151.615 174.92 155.096 175.481 158.69C176.173 154.161 173.611 149.501 167.531 146.038C156.794 139.825 139.379 139.825 128.623 146.038C122.619 149.463 119.981 154.161 120.748 158.69C121.234 155.078 123.872 151.597 128.623 148.864Z" fill="#267FE5"/>
<path d="M191.344 139.881V125.807H183.712C182.158 124.503 180.493 123.338 178.736 122.325C161.901 112.612 134.665 112.612 117.849 122.325C116.086 123.338 114.415 124.503 112.854 125.807H105.241V139.899C105.241 146.263 109.45 152.626 117.849 157.492C134.684 167.206 161.919 167.206 178.736 157.492C187.154 152.626 191.344 146.263 191.344 139.881Z" fill="url(#paint13_linear_291_1568)"/>
<path d="M105.634 139.544V125.807H105.241V139.899C105.241 145.608 108.627 151.297 115.379 155.901C108.889 151.11 105.634 145.327 105.634 139.544Z" fill="#D4088C"/>
<path d="M190.67 125.807V139.432C190.67 145.795 186.461 152.177 178.063 157.043C161.227 166.756 133.973 166.756 117.175 157.043C116.315 156.538 115.529 156.032 114.762 155.508C115.716 156.182 116.745 156.856 117.849 157.492C134.684 167.206 161.919 167.206 178.736 157.492C187.154 152.626 191.344 146.263 191.344 139.881V125.807H190.67Z" fill="#6EE8FC"/>
<path d="M148.302 150.68C172.083 150.68 191.362 139.544 191.362 125.807C191.362 112.07 172.083 100.933 148.302 100.933C124.52 100.933 105.241 112.07 105.241 125.807C105.241 139.544 124.52 150.68 148.302 150.68Z" fill="url(#paint14_linear_291_1568)"/>
<path d="M119.009 108.476C128.512 103.426 139.132 100.851 149.892 100.99C138.35 100.728 126.659 103.123 117.849 108.214C104.755 115.7 101.743 127.154 109.225 136.194C102.772 127.004 106.045 115.981 119.009 108.476Z" fill="#D4088C"/>
<path d="M178.736 108.289C173.972 105.662 168.838 103.769 163.51 102.674C168.306 103.794 172.922 105.583 177.221 107.989C194.056 117.703 194.056 133.461 177.221 143.175C164.875 150.305 146.899 152.177 131.56 148.789C147.217 152.532 165.979 150.829 178.736 143.474C195.571 133.686 195.571 117.927 178.736 108.289Z" fill="#6EE8FC"/>
<path d="M167.513 137.055C156.775 143.249 139.36 143.249 128.605 137.055C117.849 130.86 117.867 120.791 128.605 114.596C139.342 108.401 156.775 108.382 167.513 114.596C178.25 120.809 178.287 130.841 167.513 137.055Z" fill="#6DE0F6"/>
<path d="M128.623 123.093C139.379 116.879 156.794 116.879 167.531 123.093C170.529 124.653 172.982 127.087 174.565 130.074C177.146 124.721 174.808 118.844 167.531 114.577C156.794 108.364 139.379 108.364 128.623 114.577C121.365 118.769 119.027 124.721 121.59 130.074C123.181 127.094 125.632 124.661 128.623 123.093Z" fill="#18D0F7"/>
<path d="M128.623 120.08C139.379 113.866 156.794 113.866 167.531 120.08C171.059 121.833 173.788 124.864 175.163 128.558C176.66 123.636 174.134 118.376 167.531 114.577C156.794 108.364 139.379 108.364 128.623 114.577C122.039 118.32 119.513 123.636 121.01 128.558C122.376 124.865 125.099 121.832 128.623 120.08Z" fill="#25BFEC"/>
<path d="M128.623 117.403C139.379 111.19 156.794 111.19 167.531 117.403C172.282 120.136 174.92 123.636 175.481 127.229C176.173 122.7 173.611 118.04 167.531 114.577C156.794 108.364 139.379 108.364 128.623 114.577C122.637 118.04 119.981 122.7 120.692 127.229C121.234 123.636 123.872 120.136 128.623 117.403Z" fill="#267FE5"/>
<path style="mix-blend-mode:lighten" opacity="0.25" d="M175.575 49.297H120.748V125.226C120.43 129.494 123.086 133.817 128.736 137.092C139.435 143.268 156.794 143.268 167.475 137.092C173.087 133.817 175.781 129.494 175.463 125.226L175.575 49.297Z" fill="url(#paint15_linear_291_1568)"/>
<path style="mix-blend-mode:lighten" opacity="0.25" d="M171.441 0H124.938V123.261C124.658 126.892 126.921 130.56 131.71 133.33C140.801 138.589 155.522 138.589 164.613 133.33C169.402 130.56 171.665 126.892 171.403 123.261L171.441 0Z" fill="url(#paint16_linear_291_1568)"/>
<path d="M117.868 69.5848C117.007 69.3366 116.083 69.4407 115.299 69.8741C114.515 70.3076 113.935 71.035 113.687 71.8962C113.439 72.7574 113.543 73.6819 113.976 74.4664C114.409 75.2508 115.136 75.8309 115.997 76.0791C116.423 76.202 116.869 76.2397 117.31 76.19C117.751 76.1404 118.178 76.0044 118.566 75.7898C118.954 75.5751 119.296 75.2861 119.573 74.9391C119.849 74.5922 120.055 74.1941 120.178 73.7677C120.301 73.3413 120.338 72.8949 120.289 72.4539C120.239 72.0129 120.103 71.586 119.888 71.1975C119.674 70.8091 119.385 70.4668 119.038 70.1901C118.692 69.9134 118.294 69.7077 117.868 69.5848Z" fill="#6EE8FC"/>
<path opacity="0.8" d="M131.336 75.5175C130.539 75.1056 129.612 75.0269 128.758 75.2989C127.904 75.5709 127.193 76.1713 126.781 76.968C126.369 77.7647 126.29 78.6924 126.562 79.547C126.834 80.4017 127.434 81.1133 128.23 81.5252C128.627 81.7507 129.065 81.8932 129.519 81.944C129.972 81.9949 130.431 81.9531 130.867 81.8211C131.304 81.6891 131.709 81.4698 132.059 81.1763C132.408 80.8829 132.694 80.5215 132.9 80.114C133.105 79.7066 133.226 79.2616 133.254 78.8061C133.283 78.3506 133.218 77.8941 133.065 77.4643C132.912 77.0344 132.673 76.6402 132.363 76.3056C132.053 75.9709 131.678 75.7028 131.261 75.5175H131.336Z" fill="#6EE8FC"/>
<path opacity="0.6" d="M143.382 83.9584C142.857 83.549 142.223 83.3044 141.559 83.2555C140.895 83.2067 140.232 83.3557 139.653 83.6839C139.074 84.012 138.605 84.5045 138.305 85.0992C138.006 85.6939 137.889 86.364 137.97 87.025C138.051 87.6859 138.326 88.3081 138.76 88.8128C139.194 89.3175 139.768 89.6822 140.409 89.8607C141.05 90.0393 141.73 90.0237 142.362 89.8159C142.995 89.6082 143.551 89.2176 143.962 88.6935C144.235 88.3447 144.437 87.9454 144.556 87.5185C144.674 87.0916 144.708 86.6454 144.654 86.2056C144.6 85.7657 144.46 85.3408 144.242 84.9552C144.023 84.5696 143.731 84.2309 143.382 83.9584Z" fill="#6EE8FC"/>
<path opacity="0.4" d="M153.558 94.5702C153.123 94.0656 152.549 93.7012 151.907 93.5232C151.266 93.3452 150.586 93.3614 149.954 93.5699C149.321 93.7784 148.765 94.1697 148.355 94.6945C147.945 95.2193 147.699 95.8539 147.65 96.5182C147.6 97.1824 147.748 97.8465 148.076 98.4265C148.403 99.0065 148.895 99.4763 149.49 99.7766C150.084 100.077 150.754 100.194 151.415 100.114C152.076 100.033 152.698 99.7582 153.203 99.3239C153.538 99.0353 153.813 98.6833 154.013 98.2881C154.212 97.8929 154.332 97.4623 154.365 97.0208C154.398 96.5793 154.344 96.1356 154.205 95.7151C154.067 95.2946 153.847 94.9055 153.558 94.5702Z" fill="#6EE8FC"/>
<path opacity="0.2" d="M161.452 106.979C161.125 106.398 160.633 105.928 160.038 105.627C159.443 105.326 158.773 105.209 158.111 105.289C157.45 105.37 156.828 105.645 156.323 106.08C155.818 106.515 155.453 107.09 155.275 107.733C155.097 108.375 155.113 109.056 155.322 109.689C155.53 110.322 155.922 110.879 156.447 111.289C156.972 111.699 157.607 111.944 158.272 111.993C158.936 112.042 159.6 111.893 160.18 111.564C160.956 111.124 161.525 110.394 161.764 109.534C162.002 108.675 161.89 107.756 161.452 106.979Z" fill="#6EE8FC"/>
<path opacity="0.1" d="M166.914 122.325C167.015 121.669 166.92 120.997 166.641 120.395C166.362 119.792 165.911 119.286 165.345 118.939C164.779 118.592 164.123 118.42 163.46 118.445C162.796 118.47 162.155 118.691 161.617 119.079C161.078 119.467 160.667 120.007 160.434 120.628C160.201 121.25 160.156 121.927 160.307 122.574C160.457 123.221 160.795 123.809 161.278 124.264C161.762 124.72 162.369 125.022 163.023 125.133C163.463 125.21 163.915 125.198 164.351 125.098C164.786 124.998 165.198 124.812 165.56 124.55C165.923 124.289 166.23 123.957 166.462 123.575C166.695 123.193 166.848 122.768 166.914 122.325Z" fill="#6EE8FC"/>
<path d="M107.658 72.8687C108.173 71.0486 107.116 69.1557 105.297 68.6406C103.477 68.1256 101.585 69.1835 101.071 71.0036C100.556 72.8237 101.613 74.7167 103.432 75.2317C105.252 75.7468 107.144 74.6888 107.658 72.8687Z" fill="#6EE8FC"/>
<path opacity="0.8" d="M90.0145 69.2666C90.6094 69.5651 91.2795 69.6806 91.94 69.5983C92.6004 69.516 93.2217 69.2397 93.7253 68.8043C94.2289 68.369 94.5923 67.794 94.7695 67.1521C94.9467 66.5102 94.9297 65.8302 94.7208 65.1979C94.5119 64.5656 94.1204 64.0095 93.5958 63.5997C93.0711 63.19 92.4368 62.945 91.7731 62.8957C91.1093 62.8464 90.4459 62.9951 89.8665 63.3229C89.2872 63.6507 88.8179 64.1429 88.518 64.7374C88.3159 65.1325 88.1943 65.5638 88.1603 66.0064C88.1262 66.4489 88.1804 66.8937 88.3196 67.3151C88.4588 67.7365 88.6804 68.126 88.9713 68.461C89.2623 68.796 89.6169 69.0699 90.0145 69.2666Z" fill="#6EE8FC"/>
<path opacity="0.6" d="M77.968 60.8258C78.4924 61.2377 79.1272 61.4846 79.7919 61.5352C80.4567 61.5858 81.1215 61.4377 81.7021 61.1099C82.2827 60.7821 82.753 60.2892 83.0533 59.6936C83.3536 59.0981 83.4704 58.4268 83.389 57.7648C83.3077 57.1027 83.0317 56.4797 82.596 55.9748C82.1604 55.4699 81.5848 55.1057 80.9421 54.9284C80.2994 54.7511 79.6185 54.7687 78.9858 54.979C78.3532 55.1893 77.7971 55.5827 77.3881 56.1095C77.1154 56.4568 76.914 56.8545 76.7955 57.2799C76.677 57.7054 76.6438 58.15 76.6977 58.5883C76.7516 59.0267 76.8915 59.45 77.1095 59.834C77.3276 60.218 77.6193 60.5551 77.968 60.8258Z" fill="#6EE8FC"/>
<path opacity="0.4" d="M67.792 50.2703C68.2253 50.7775 68.7993 51.1446 69.4413 51.325C70.0834 51.5055 70.7645 51.491 71.3984 51.2836C72.0322 51.0762 72.5902 50.6852 73.0017 50.16C73.4131 49.6349 73.6594 48.9994 73.7093 48.334C73.7593 47.6686 73.6106 47.0034 73.2822 46.4227C72.9538 45.842 72.4604 45.3719 71.8646 45.0721C71.2688 44.7723 70.5975 44.6563 69.9357 44.7387C69.2739 44.8212 68.6515 45.0984 68.1474 45.5352C67.8125 45.8222 67.5375 46.1725 67.3383 46.5662C67.139 46.9598 67.0195 47.3889 66.9865 47.8288C66.9534 48.2688 67.0076 48.711 67.1458 49.1299C67.2841 49.5489 67.5037 49.9364 67.792 50.2703Z" fill="#6EE8FC"/>
<path opacity="0.2" d="M59.8796 37.7869C60.2052 38.3682 60.6957 38.8398 61.2892 39.1421C61.8826 39.4445 62.5524 39.5639 63.2137 39.4854C63.875 39.4069 64.4982 39.1339 65.0045 38.701C65.5108 38.2681 65.8773 37.6947 66.0579 37.0533C66.2384 36.4119 66.2248 35.7314 66.0187 35.0978C65.8127 34.4641 65.4235 33.9059 64.9003 33.4936C64.3771 33.0813 63.7435 32.8335 63.0796 32.7815C62.4156 32.7295 61.7512 32.8757 61.1703 33.2016C60.3952 33.642 59.825 34.3704 59.5833 35.2289C59.3417 36.0873 59.4482 37.0065 59.8796 37.7869Z" fill="#6EE8FC"/>
<path opacity="0.1" d="M54.4362 22.4401C54.3202 23.0966 54.4014 23.7729 54.6697 24.3833C54.9381 24.9936 55.3814 25.5105 55.9436 25.8686C56.5057 26.2267 57.1614 26.4099 57.8277 26.3948C58.494 26.3798 59.1408 26.1673 59.6862 25.7842C60.2317 25.4011 60.6513 24.8647 60.8918 24.2429C61.1324 23.6211 61.1831 22.9418 61.0376 22.2911C60.892 21.6405 60.5568 21.0476 60.0743 20.5877C59.5917 20.1278 58.9837 19.8215 58.327 19.7076C57.4498 19.5603 56.5498 19.7645 55.8218 20.2758C55.0937 20.7871 54.596 21.5645 54.4362 22.4401Z" fill="#6EE8FC"/>
<path d="M94.7471 90.7334C94.9373 91.1504 94.9998 91.6145 94.9267 92.067C94.8537 92.5195 94.6483 92.9402 94.3366 93.2761C94.0249 93.612 93.6207 93.848 93.1751 93.9544C92.7294 94.0607 92.2623 94.0327 91.8326 93.8737C91.4029 93.7148 91.0298 93.4321 90.7605 93.0612C90.4912 92.6904 90.3376 92.2481 90.3193 91.7901C90.3009 91.3321 90.4184 90.8789 90.6572 90.4877C90.8959 90.0965 91.245 89.7847 91.6606 89.5918C91.938 89.463 92.2382 89.3904 92.5438 89.3781C92.8493 89.3658 93.1544 89.4141 93.4412 89.5202C93.7281 89.6263 93.9911 89.7881 94.2152 89.9963C94.4393 90.2046 94.6201 90.4551 94.7471 90.7334Z" fill="#6EE8FC"/>
<path opacity="0.8" d="M89.1913 82.0868C89.4662 82.4598 89.6242 82.9061 89.6452 83.3691C89.6662 83.8321 89.5493 84.291 89.3093 84.6874C89.0693 85.0838 88.717 85.3999 88.2971 85.5957C87.8772 85.7915 87.4086 85.8581 86.9509 85.787C86.4931 85.7159 86.0668 85.5104 85.7259 85.1965C85.3851 84.8826 85.1451 84.4745 85.0364 84.024C84.9278 83.5735 84.9553 83.1008 85.1155 82.6659C85.2758 82.231 85.5615 81.8536 85.9365 81.5814C86.4359 81.219 87.0583 81.0688 87.668 81.1634C88.2776 81.2581 88.8252 81.59 89.1913 82.0868Z" fill="#6EE8FC"/>
<path opacity="0.6" d="M82.0833 74.8625C82.422 75.177 82.66 75.5847 82.7673 76.0344C82.8746 76.484 82.8463 76.9554 82.6861 77.389C82.5258 77.8226 82.2408 78.199 81.8669 78.4706C81.493 78.7423 81.0471 78.897 80.5854 78.9152C80.1237 78.9335 79.667 78.8145 79.2728 78.5733C78.8787 78.332 78.5648 77.9794 78.3708 77.5598C78.1769 77.1402 78.1115 76.6725 78.1829 76.2158C78.2544 75.7591 78.4595 75.3338 78.7723 74.9936C78.9808 74.7669 79.232 74.5836 79.5114 74.4543C79.7908 74.325 80.093 74.2522 80.4006 74.24C80.7082 74.2278 81.0152 74.2765 81.304 74.3834C81.5927 74.4902 81.8576 74.6531 82.0833 74.8625Z" fill="#6EE8FC"/>
<path opacity="0.4" d="M73.6657 69.0794C74.0629 69.3179 74.3803 69.6691 74.5776 70.0884C74.775 70.5078 74.8434 70.9763 74.7743 71.4345C74.7051 71.8928 74.5014 72.3202 74.1891 72.6625C73.8767 73.0048 73.4698 73.2466 73.02 73.3571C72.5701 73.4677 72.0976 73.442 71.6623 73.2835C71.227 73.1249 70.8486 72.8405 70.5751 72.4665C70.3016 72.0924 70.1453 71.6455 70.126 71.1824C70.1068 70.7193 70.2255 70.2609 70.467 69.8654C70.7887 69.3387 71.3054 68.9605 71.9045 68.8133C72.5037 68.666 73.1367 68.7617 73.6657 69.0794Z" fill="#6EE8FC"/>
<path opacity="0.2" d="M64.294 65.0555C64.729 65.2141 65.1072 65.4984 65.3806 65.8722C65.654 66.2461 65.8103 66.6928 65.8297 67.1556C65.8491 67.6185 65.7307 68.0767 65.4895 68.4721C65.2483 68.8676 64.8953 69.1825 64.475 69.377C64.0548 69.5714 63.5863 69.6367 63.1289 69.5645C62.6716 69.4923 62.246 69.2858 61.906 68.9713C61.5661 68.6568 61.3271 68.2484 61.2194 67.7978C61.1117 67.3473 61.1401 66.8749 61.3011 66.4405C61.5198 65.8639 61.9557 65.396 62.5151 65.1371C63.0746 64.8782 63.7132 64.849 64.294 65.0555Z" fill="#6EE8FC"/>
<path opacity="0.1" d="M53.2015 63.053C53.4888 62.9497 53.7937 62.9047 54.0985 62.9204C54.4033 62.9362 54.702 63.0125 54.977 63.1449C55.2521 63.2773 55.4981 63.4631 55.7007 63.6915C55.9033 63.9199 56.0584 64.1864 56.1571 64.4754C56.3089 64.9086 56.3289 65.3771 56.2145 65.8216C56.1002 66.2662 55.8567 66.6669 55.5148 66.9729C55.1728 67.279 54.7479 67.4767 54.2936 67.5411C53.8393 67.6055 53.3762 67.5337 52.9627 67.3347C52.5493 67.1357 52.2041 66.8185 51.9709 66.4232C51.7376 66.028 51.6267 65.5724 51.6523 65.114C51.6778 64.6557 51.8387 64.2153 52.1144 63.8484C52.3902 63.4815 52.7685 63.2047 53.2015 63.053Z" fill="#6EE8FC"/>
<path d="M92.5024 101.233C92.343 100.947 92.2444 100.631 92.2128 100.305C92.1811 99.9789 92.2172 99.6499 92.3186 99.3385C92.4201 99.0272 92.5848 98.7401 92.8023 98.4954C93.0199 98.2507 93.2857 98.0537 93.583 97.9166C93.8802 97.7795 94.2026 97.7054 94.5299 97.6988C94.8572 97.6923 95.1823 97.7535 95.4848 97.8786C95.7873 98.0037 96.0607 98.19 96.2878 98.4258C96.515 98.6617 96.691 98.9419 96.8048 99.249C97.0608 99.8207 97.0827 100.47 96.8659 101.058C96.6491 101.646 96.2109 102.125 95.645 102.393C95.3628 102.525 95.0572 102.6 94.746 102.613C94.4348 102.626 94.1241 102.577 93.8318 102.469C93.5396 102.361 93.2717 102.196 93.0435 101.984C92.8153 101.772 92.6314 101.517 92.5024 101.233Z" fill="#6EE8FC"/>
<path opacity="0.8" d="M98.0953 109.767C97.8141 109.269 97.725 108.685 97.845 108.126C97.965 107.566 98.2857 107.07 98.7464 106.732C99.2072 106.393 99.776 106.235 100.345 106.287C100.915 106.339 101.445 106.599 101.836 107.016C102.063 107.257 102.235 107.544 102.343 107.857C102.45 108.169 102.49 108.502 102.46 108.831C102.429 109.16 102.33 109.48 102.167 109.768C102.004 110.056 101.782 110.306 101.516 110.502C101.25 110.698 100.945 110.835 100.621 110.904C100.298 110.973 99.9638 110.973 99.6406 110.904C99.3173 110.835 99.0124 110.697 98.7461 110.501C98.4797 110.305 98.2579 110.055 98.0953 109.767Z" fill="#6EE8FC"/>
<path opacity="0.6" d="M105.204 117.085C104.862 116.772 104.621 116.364 104.512 115.914C104.402 115.464 104.429 114.991 104.588 114.556C104.748 114.121 105.032 113.743 105.407 113.47C105.781 113.197 106.228 113.042 106.691 113.023C107.154 113.005 107.612 113.124 108.006 113.366C108.401 113.609 108.715 113.963 108.909 114.384C109.102 114.805 109.166 115.274 109.092 115.732C109.019 116.189 108.811 116.615 108.496 116.954C108.075 117.406 107.493 117.674 106.877 117.698C106.26 117.723 105.659 117.502 105.204 117.085Z" fill="#6EE8FC"/>
<path opacity="0.4" d="M113.621 122.849C113.231 122.609 112.921 122.258 112.73 121.841C112.539 121.424 112.476 120.96 112.549 120.508C112.621 120.055 112.826 119.634 113.137 119.297C113.449 118.961 113.853 118.725 114.298 118.618C114.744 118.511 115.211 118.538 115.641 118.697C116.071 118.855 116.444 119.138 116.714 119.508C116.984 119.879 117.138 120.321 117.157 120.779C117.175 121.237 117.058 121.691 116.82 122.082C116.661 122.343 116.452 122.57 116.204 122.75C115.957 122.931 115.677 123.06 115.38 123.131C115.083 123.203 114.774 123.214 114.472 123.166C114.171 123.118 113.881 123.01 113.621 122.849Z" fill="#6EE8FC"/>
<path opacity="0.2" d="M122.974 126.873C122.395 126.658 121.924 126.223 121.664 125.662C121.405 125.101 121.378 124.46 121.59 123.879C121.803 123.296 122.239 122.821 122.802 122.56C123.365 122.298 124.009 122.271 124.592 122.485C125.175 122.698 125.649 123.134 125.911 123.698C126.172 124.261 126.199 124.905 125.986 125.488C125.879 125.778 125.717 126.043 125.508 126.269C125.299 126.496 125.047 126.678 124.767 126.807C124.488 126.936 124.185 127.008 123.877 127.019C123.57 127.031 123.263 126.981 122.974 126.873Z" fill="#6EE8FC"/>
<path opacity="0.1" d="M134.085 128.876C133.652 129.023 133.185 129.038 132.743 128.921C132.302 128.803 131.904 128.557 131.602 128.214C131.299 127.871 131.104 127.447 131.042 126.993C130.98 126.54 131.053 126.078 131.253 125.667C131.452 125.255 131.768 124.911 132.162 124.679C132.556 124.447 133.01 124.336 133.467 124.361C133.923 124.386 134.362 124.545 134.729 124.819C135.095 125.093 135.372 125.469 135.526 125.9C135.729 126.486 135.691 127.128 135.421 127.686C135.151 128.244 134.67 128.672 134.085 128.876Z" fill="#6EE8FC"/>
<path opacity="0.4" d="M133.318 127.004C133.292 127.007 133.266 127.004 133.241 126.996C133.216 126.988 133.193 126.974 133.174 126.957C133.154 126.939 133.139 126.917 133.128 126.893C133.118 126.869 133.112 126.843 133.113 126.817C133.107 126.79 133.107 126.762 133.113 126.735C133.118 126.708 133.129 126.682 133.145 126.66C133.161 126.637 133.181 126.618 133.204 126.603C133.228 126.588 133.254 126.578 133.281 126.574L158.515 122.831L123.797 124.946C123.742 124.946 123.69 124.924 123.652 124.885C123.613 124.847 123.591 124.794 123.591 124.74C123.591 124.685 123.613 124.633 123.652 124.594C123.69 124.556 123.742 124.534 123.797 124.534L156.046 109.561L114.987 121.053C114.937 121.071 114.882 121.07 114.833 121.049C114.784 121.028 114.745 120.989 114.725 120.94C114.689 120.902 114.67 120.852 114.67 120.8C114.67 120.748 114.689 120.698 114.725 120.66L148.975 97.8453L106.887 115.55C106.85 115.581 106.804 115.597 106.756 115.597C106.708 115.597 106.662 115.581 106.625 115.55C106.593 115.51 106.576 115.461 106.576 115.41C106.576 115.359 106.593 115.309 106.625 115.27L139.566 87.7014L100.172 108.588C100.134 108.624 100.083 108.643 100.031 108.643C99.9793 108.643 99.9292 108.624 99.8911 108.588C99.8556 108.55 99.8358 108.5 99.8358 108.448C99.8358 108.396 99.8556 108.345 99.8911 108.307L128.417 79.7473L94.747 100.484C94.7089 100.52 94.6588 100.539 94.6067 100.539C94.5546 100.539 94.5045 100.52 94.4664 100.484C94.4309 100.446 94.4112 100.396 94.4112 100.344C94.4112 100.292 94.4309 100.242 94.4664 100.203L115.567 74.301L92.6894 91.875C92.6495 91.9069 92.6001 91.9243 92.5491 91.9243C92.4981 91.9243 92.4486 91.9069 92.4088 91.875C92.3769 91.8352 92.3595 91.7857 92.3595 91.7347C92.3595 91.6836 92.3769 91.6341 92.4088 91.5943C96.8046 84.6321 103.239 74.2262 104.044 72.261C102.173 73.1594 93.3441 79.4291 87.3956 83.715C87.3594 83.7384 87.3172 83.7508 87.274 83.7508C87.2309 83.7508 87.1887 83.7384 87.1525 83.715C87.1311 83.678 87.1199 83.6361 87.1199 83.5933C87.1199 83.5506 87.1311 83.5087 87.1525 83.4717L91.1929 66.9084L80.699 76.7154C80.6678 76.7435 80.6294 76.7623 80.5881 76.7696C80.5468 76.777 80.5043 76.7727 80.4653 76.7571C80.4263 76.7415 80.3925 76.7153 80.3677 76.6814C80.3429 76.6476 80.328 76.6075 80.3248 76.5656L79.8946 58.9355L72.6929 71.1755C72.6595 71.1973 72.6205 71.2089 72.5807 71.2089C72.5408 71.2089 72.5018 71.1973 72.4684 71.1755C72.4236 71.1674 72.3828 71.1446 72.3523 71.1107C72.3218 71.0768 72.3035 71.0338 72.3001 70.9884L70.2424 49.0162L63.7328 67.3201C63.716 67.3694 63.6825 67.4113 63.6381 67.4387C63.5937 67.466 63.5413 67.477 63.4896 67.4698C63.4423 67.4566 63.3996 67.4302 63.3666 67.3938C63.3335 67.3574 63.3113 67.3124 63.3026 67.264L62.6666 37.5248L54.1742 65.2427C54.1569 65.2957 54.1205 65.3404 54.0721 65.3681C54.0237 65.3958 53.9667 65.4044 53.9123 65.3924C53.8851 65.3879 53.859 65.378 53.8357 65.3632C53.8124 65.3484 53.7923 65.3291 53.7766 65.3064C53.7609 65.2837 53.7499 65.2581 53.7443 65.2311C53.7387 65.2041 53.7386 65.1762 53.7439 65.1491L57.4851 22.9266C57.4943 22.8704 57.5246 22.8197 57.5697 22.785C57.6149 22.7502 57.6716 22.734 57.7283 22.7395C57.7578 22.7418 57.7865 22.75 57.8129 22.7635C57.8392 22.777 57.8626 22.7956 57.8818 22.8183C57.9009 22.8409 57.9154 22.867 57.9243 22.8953C57.9333 22.9235 57.9366 22.9532 57.934 22.9828L54.3425 63.0716L62.5731 36.0088C62.5776 35.9816 62.5875 35.9555 62.6022 35.9322C62.617 35.9089 62.6363 35.8888 62.659 35.873C62.6817 35.8573 62.7073 35.8463 62.7343 35.8407C62.7613 35.8351 62.7892 35.835 62.8162 35.8404C62.8675 35.8525 62.9135 35.8809 62.9472 35.9214C62.981 35.962 63.0007 36.0123 63.0033 36.065L63.658 66.01L70.0928 47.8933C70.1097 47.844 70.1432 47.8021 70.1875 47.7747C70.2319 47.7474 70.2844 47.7364 70.336 47.7435C70.3833 47.7568 70.426 47.7832 70.4591 47.8196C70.4921 47.856 70.5143 47.901 70.523 47.9494L72.5807 70.4082L79.8011 58.112C79.8278 58.0731 79.8644 58.0422 79.9072 58.0224C79.95 58.0027 79.9974 57.9948 80.0443 57.9997C80.0893 58.014 80.1291 58.041 80.159 58.0776C80.1889 58.1142 80.2076 58.1586 80.2126 58.2056L80.6615 76.1165L91.3425 66.141C91.3807 66.1136 91.4265 66.0989 91.4735 66.0989C91.5205 66.0989 91.5663 66.1136 91.6044 66.141C91.6258 66.178 91.637 66.22 91.637 66.2627C91.637 66.3054 91.6258 66.3473 91.6044 66.3843L87.5266 83.0974C94.8405 77.8383 103.408 71.868 104.362 71.868C104.426 71.9098 104.477 71.968 104.511 72.0365C104.736 72.7851 97.291 84.7257 93.4002 90.9018L116.839 72.7289C116.882 72.7038 116.933 72.6942 116.983 72.7016C117.033 72.709 117.079 72.733 117.114 72.7698C117.148 72.8066 117.169 72.8539 117.174 72.9042C117.178 72.9546 117.166 73.0049 117.138 73.0471L95.6449 99.4361L129.708 78.3436C129.746 78.3081 129.796 78.2884 129.848 78.2884C129.9 78.2884 129.951 78.3081 129.989 78.3436C130.009 78.3612 130.024 78.3828 130.035 78.407C130.046 78.4312 130.052 78.4574 130.052 78.484C130.052 78.5105 130.046 78.5368 130.035 78.561C130.024 78.5852 130.009 78.6068 129.989 78.6243L101.182 107.484L141.231 86.3539C141.271 86.322 141.32 86.3046 141.371 86.3046C141.422 86.3046 141.472 86.322 141.511 86.3539C141.548 86.3951 141.569 86.4484 141.569 86.5036C141.569 86.5589 141.548 86.6122 141.511 86.6534L108.066 114.596L150.92 96.5727C150.97 96.5454 151.028 96.5389 151.083 96.5547C151.137 96.5705 151.183 96.6072 151.21 96.6569C151.238 96.7065 151.244 96.765 151.228 96.8194C151.213 96.8738 151.176 96.9197 151.126 96.947L116.109 120.285L158.478 108.42C158.529 108.41 158.583 108.418 158.63 108.441C158.678 108.465 158.716 108.503 158.739 108.551C158.759 108.603 158.758 108.661 158.738 108.713C158.717 108.765 158.677 108.807 158.627 108.831L124.957 124.403L163.771 122.045C163.824 122.047 163.874 122.067 163.915 122.101C163.955 122.134 163.984 122.18 163.996 122.232C164.001 122.289 163.985 122.345 163.95 122.39C163.916 122.436 163.865 122.466 163.809 122.475L133.356 127.004H133.318Z" fill="#6EE8FC"/>
</g>
<defs>
<linearGradient id="paint0_linear_291_1568" x1="178.549" y1="206.995" x2="267.214" y2="206.995" gradientUnits="userSpaceOnUse">
<stop stop-color="#D4088C"/>
<stop offset="0.23" stop-color="#D4088C"/>
<stop offset="0.51" stop-color="#6EE1F8"/>
<stop offset="0.78" stop-color="#6EE8FC"/>
<stop offset="1" stop-color="#6EE8FC"/>
</linearGradient>
<linearGradient id="paint1_linear_291_1568" x1="178.512" y1="153.468" x2="269.44" y2="153.468" gradientUnits="userSpaceOnUse">
<stop stop-color="#A31FA9"/>
<stop offset="0.07" stop-color="#8B17A0"/>
<stop offset="0.15" stop-color="#740F98"/>
<stop offset="0.24" stop-color="#640A92"/>
<stop offset="0.34" stop-color="#5B078F"/>
<stop offset="0.48" stop-color="#58068E"/>
<stop offset="0.63" stop-color="#4D22A3"/>
<stop offset="0.94" stop-color="#3168DA"/>
<stop offset="1" stop-color="#2C75E4"/>
</linearGradient>
<linearGradient id="paint2_linear_291_1568" x1="178.512" y1="181.355" x2="269.44" y2="181.355" gradientUnits="userSpaceOnUse">
<stop stop-color="#D4088C"/>
<stop offset="0.23" stop-color="#D4088C"/>
<stop offset="0.51" stop-color="#6EE1F8"/>
<stop offset="0.78" stop-color="#6EE8FC"/>
<stop offset="1" stop-color="#6EE8FC"/>
</linearGradient>
<linearGradient id="paint3_linear_291_1568" x1="188.301" y1="129.253" x2="258.586" y2="146.345" gradientUnits="userSpaceOnUse">
<stop stop-color="#8D139B"/>
<stop offset="0.17" stop-color="#851BA1"/>
<stop offset="0.43" stop-color="#6E33B2"/>
<stop offset="0.76" stop-color="#4958CD"/>
<stop offset="1" stop-color="#2979E4"/>
</linearGradient>
<linearGradient id="paint4_linear_291_1568" x1="198.012" y1="129.24" x2="250.322" y2="141.974" gradientUnits="userSpaceOnUse">
<stop stop-color="#630692"/>
<stop offset="0.23" stop-color="#5B0E94"/>
<stop offset="0.59" stop-color="#432399"/>
<stop offset="1" stop-color="#2142A1"/>
</linearGradient>
<linearGradient id="paint5_linear_291_1568" x1="222.9" y1="137.036" x2="222.9" y2="39.6959" gradientUnits="userSpaceOnUse">
<stop offset="0.01" stop-color="#25BFEC"/>
<stop offset="0.05" stop-color="#24B4E1"/>
<stop offset="0.22" stop-color="#1F83B0"/>
<stop offset="0.39" stop-color="#1B5A86"/>
<stop offset="0.56" stop-color="#173A66"/>
<stop offset="0.72" stop-color="#152350"/>
<stop offset="0.87" stop-color="#131642"/>
<stop offset="1" stop-color="#13113D"/>
</linearGradient>
<linearGradient id="paint6_linear_291_1568" x1="222.9" y1="135.969" x2="222.9" y2="47.8746" gradientUnits="userSpaceOnUse">
<stop offset="0.01" stop-color="#70E8FC"/>
<stop offset="0.15" stop-color="#5AB5CF"/>
<stop offset="0.3" stop-color="#4584A3"/>
<stop offset="0.46" stop-color="#335A7E"/>
<stop offset="0.6" stop-color="#253A62"/>
<stop offset="0.75" stop-color="#1B244D"/>
<stop offset="0.88" stop-color="#151641"/>
<stop offset="1" stop-color="#13113D"/>
</linearGradient>
<linearGradient id="paint7_linear_291_1568" x1="81.9337" y1="269.094" x2="214.24" y2="269.094" gradientUnits="userSpaceOnUse">
<stop stop-color="#D4088C"/>
<stop offset="0.23" stop-color="#D4088C"/>
<stop offset="0.51" stop-color="#6EE1F8"/>
<stop offset="0.78" stop-color="#6EE8FC"/>
<stop offset="1" stop-color="#6EE8FC"/>
</linearGradient>
<linearGradient id="paint8_linear_291_1568" x1="83.6172" y1="229.865" x2="212.537" y2="229.865" gradientUnits="userSpaceOnUse">
<stop stop-color="#A31FA9"/>
<stop offset="0.07" stop-color="#8B17A0"/>
<stop offset="0.15" stop-color="#740F98"/>
<stop offset="0.24" stop-color="#640A92"/>
<stop offset="0.34" stop-color="#5B078F"/>
<stop offset="0.48" stop-color="#58068E"/>
<stop offset="0.63" stop-color="#4D22A3"/>
<stop offset="0.94" stop-color="#3168DA"/>
<stop offset="1" stop-color="#2C75E4"/>
</linearGradient>
<linearGradient id="paint9_linear_291_1568" x1="112.145" y1="180.166" x2="142.991" y2="233.81" gradientUnits="userSpaceOnUse">
<stop stop-color="#8D139B"/>
<stop offset="0.17" stop-color="#851BA1"/>
<stop offset="0.43" stop-color="#6E33B2"/>
<stop offset="0.76" stop-color="#4958CD"/>
<stop offset="1" stop-color="#2979E4"/>
</linearGradient>
<linearGradient id="paint10_linear_291_1568" x1="123.634" y1="186.773" x2="143.061" y2="220.557" gradientUnits="userSpaceOnUse">
<stop stop-color="#8D139B"/>
<stop offset="0.17" stop-color="#851BA1"/>
<stop offset="0.43" stop-color="#6E33B2"/>
<stop offset="0.76" stop-color="#4958CD"/>
<stop offset="1" stop-color="#2979E4"/>
</linearGradient>
<linearGradient id="paint11_linear_291_1568" x1="105.241" y1="171.36" x2="191.344" y2="171.36" gradientUnits="userSpaceOnUse">
<stop stop-color="#A31FA9"/>
<stop offset="0.07" stop-color="#8B17A0"/>
<stop offset="0.15" stop-color="#740F98"/>
<stop offset="0.24" stop-color="#640A92"/>
<stop offset="0.34" stop-color="#5B078F"/>
<stop offset="0.48" stop-color="#58068E"/>
<stop offset="0.63" stop-color="#4D22A3"/>
<stop offset="0.94" stop-color="#3168DA"/>
<stop offset="1" stop-color="#2C75E4"/>
</linearGradient>
<linearGradient id="paint12_linear_291_1568" x1="113.198" y1="139.694" x2="143.591" y2="192.55" gradientUnits="userSpaceOnUse">
<stop stop-color="#8D139B"/>
<stop offset="0.17" stop-color="#851BA1"/>
<stop offset="0.43" stop-color="#6E33B2"/>
<stop offset="0.76" stop-color="#4958CD"/>
<stop offset="1" stop-color="#2979E4"/>
</linearGradient>
<linearGradient id="paint13_linear_291_1568" x1="105.241" y1="139.899" x2="191.344" y2="139.899" gradientUnits="userSpaceOnUse">
<stop stop-color="#A31FA9"/>
<stop offset="0.07" stop-color="#8B17A0"/>
<stop offset="0.15" stop-color="#740F98"/>
<stop offset="0.24" stop-color="#640A92"/>
<stop offset="0.34" stop-color="#5B078F"/>
<stop offset="0.48" stop-color="#58068E"/>
<stop offset="0.63" stop-color="#4D22A3"/>
<stop offset="0.94" stop-color="#3168DA"/>
<stop offset="1" stop-color="#2C75E4"/>
</linearGradient>
<linearGradient id="paint14_linear_291_1568" x1="113.181" y1="108.223" x2="143.583" y2="161.094" gradientUnits="userSpaceOnUse">
<stop stop-color="#8D139B"/>
<stop offset="0.17" stop-color="#851BA1"/>
<stop offset="0.43" stop-color="#6E33B2"/>
<stop offset="0.76" stop-color="#4958CD"/>
<stop offset="1" stop-color="#2979E4"/>
</linearGradient>
<linearGradient id="paint15_linear_291_1568" x1="148.19" y1="141.715" x2="148.19" y2="49.297" gradientUnits="userSpaceOnUse">
<stop offset="0.01" stop-color="#70E8FC"/>
<stop offset="0.15" stop-color="#5AB5CF"/>
<stop offset="0.3" stop-color="#4584A3"/>
<stop offset="0.46" stop-color="#335A7E"/>
<stop offset="0.6" stop-color="#253A62"/>
<stop offset="0.75" stop-color="#1B244D"/>
<stop offset="0.88" stop-color="#151641"/>
<stop offset="1" stop-color="#13113D"/>
</linearGradient>
<linearGradient id="paint16_linear_291_1568" x1="148.19" y1="137.335" x2="148.19" y2="0" gradientUnits="userSpaceOnUse">
<stop offset="0.01" stop-color="#70E8FC"/>
<stop offset="0.15" stop-color="#5AB5CF"/>
<stop offset="0.3" stop-color="#4584A3"/>
<stop offset="0.46" stop-color="#335A7E"/>
<stop offset="0.6" stop-color="#253A62"/>
<stop offset="0.75" stop-color="#1B244D"/>
<stop offset="0.88" stop-color="#151641"/>
<stop offset="1" stop-color="#13113D"/>
</linearGradient>
<clipPath id="clip0_291_1568">
<rect width="312.05" height="320" fill="white" transform="translate(0.975098)"/>
</clipPath>
</defs>
</svg>
